<?xml version="1.0" encoding="UTF-8" standalone="no"?>
<!DOCTYPE svg PUBLIC "-//W3C//DTD SVG 1.1//EN" "http://www.w3.org/Graphics/SVG/1.1/DTD/svg11.dtd">
<svg width="100%" height="100%" viewBox="0 0 4096 2048" version="1.1" xmlns="http://www.w3.org/2000/svg" xmlns:xlink="http://www.w3.org/1999/xlink" xml:space="preserve" xmlns:serif="http://www.serif.com/" style="fill-rule:evenodd;clip-rule:evenodd;stroke-linejoin:round;stroke-miterlimit:2;">
    <g>
        <g transform="matrix(2.206919,0,0,2.206919,-85.906169,-917.873272)">
            <g id="far-waves-2" serif:id="far waves 2">
                <path d="M1894.636,832.783C1894.641,834.348 1894.636,1126.775 1894.636,1126.775L38.946,1126.775L38.946,883.383L39.237,883.383L38.811,842.537L61.784,842.537C61.784,842.537 206.877,716.075 398.756,848.956C310.963,863.565 718.646,623.621 1111.547,894.986C1285.068,789.005 1436.268,786.045 1567.345,875.964L1714.392,811.005C1714.392,811.005 1835.152,812.315 1894.636,832.783Z" style="fill:rgb(165,151,127);"/>
                <clipPath id="_clip1">
                    <path d="M1894.636,832.783C1894.641,834.348 1894.636,1126.775 1894.636,1126.775L38.946,1126.775L38.946,883.383L39.237,883.383L38.811,842.537L61.784,842.537C61.784,842.537 206.877,716.075 398.756,848.956C310.963,863.565 718.646,623.621 1111.547,894.986C1285.068,789.005 1436.268,786.045 1567.345,875.964L1714.392,811.005C1714.392,811.005 1835.152,812.315 1894.636,832.783Z"/>
                </clipPath>
                <g clip-path="url(#_clip1)">
                    <g transform="matrix(0.960256,0,0,0.870551,-8.199984,95.431269)">
                        <path d="M49.097,863.826C193.767,907.823 45.283,949.149 447.812,991.577L568.802,934.185L677.382,996.23L725.467,914.02L894.542,1087.748L809.229,931.782C829.338,939.963 876.97,984.377 876.97,984.377C876.97,984.377 1134.427,1070.087 1184.607,1098.606L1015.345,1175.561L936.423,1182.368C793.852,1133.502 677.758,1077.152 601.376,999.333L514.511,1050.521L481.937,1044.165L418.34,1087.748L261.338,999.414L49.097,917.271L49.097,863.826ZM49.097,1053.446C131.571,1041.233 212.809,986.576 278.737,1024C342.93,1078.14 401.202,1108.595 457.119,1129.629L629.296,1053.623L857.315,1185.47L440.056,1183.919C367.653,1177.204 300.47,1134.276 270.981,1097.055C200.234,1100.586 115.701,1110.615 49.097,1110.002L49.097,1053.446ZM49.097,1110.002C165.254,1115.444 274.78,1146.937 345.436,1185.47L49.167,1185.47L49.097,1110.002ZM345.436,943.491C562.809,764.799 813.737,731.799 1156.686,929.531L1037.248,997.782L767.348,848.871C719.357,858.711 663.328,881.946 602.927,912.468L562.597,882.385C498.25,916.823 426.33,938.008 345.436,943.491ZM1136.521,1185.47L1263.715,1104.811L1397.3,1185.47L1136.521,1185.47ZM1094.64,1024L1262.94,938.838L1457.609,1091.626L1366.091,953.126L1631.833,1046.488L1457.609,1145.14L1735.264,1024C1789.135,1071.122 1846.981,1115.595 1916.748,1152.121L1806.306,1012.673L1981.593,1052.06L1981.593,1185.451L1738.366,1185.47L1651.502,1104.811L1708.274,1185.47L1504.143,1185.47C1418.225,1169.34 1334.298,1138.479 1266.911,1095.876L1262.94,1047.418L1212.527,1091.626L1094.64,1024ZM1504.267,968.496C1576.123,938.973 1651.594,901.225 1795.759,839.565L1946.522,865.991L1828.333,979.168L1726.764,953.126L1653.053,1024L1504.267,968.496ZM84.619,868.629C84.619,868.629 209.999,810.547 263.226,811.644C316.452,812.741 412.958,880.669 412.958,880.669L324.551,945.589C137.45,950.805 175.539,876.474 84.619,868.629ZM1156.491,945.589C1246.379,885.379 1391.63,852.793 1471.011,846.514C1528.505,841.966 1632.773,907.913 1632.773,907.913C1563.387,907.932 1507.388,921.339 1469.77,953.126C1429.252,903.034 1223.486,924.973 1156.491,945.589ZM1981.383,864.088L1981.383,917.221C1938.2,908.142 1893.297,947.427 1848.498,983.821C1909.933,912.751 1962.797,857.258 1981.383,864.088Z" style="fill:rgb(151,138,116);"/>
                        <clipPath id="_clip2">
                            <path d="M49.097,863.826C193.767,907.823 45.283,949.149 447.812,991.577L568.802,934.185L677.382,996.23L725.467,914.02L894.542,1087.748L809.229,931.782C829.338,939.963 876.97,984.377 876.97,984.377C876.97,984.377 1134.427,1070.087 1184.607,1098.606L1015.345,1175.561L936.423,1182.368C793.852,1133.502 677.758,1077.152 601.376,999.333L514.511,1050.521L481.937,1044.165L418.34,1087.748L261.338,999.414L49.097,917.271L49.097,863.826ZM49.097,1053.446C131.571,1041.233 212.809,986.576 278.737,1024C342.93,1078.14 401.202,1108.595 457.119,1129.629L629.296,1053.623L857.315,1185.47L440.056,1183.919C367.653,1177.204 300.47,1134.276 270.981,1097.055C200.234,1100.586 115.701,1110.615 49.097,1110.002L49.097,1053.446ZM49.097,1110.002C165.254,1115.444 274.78,1146.937 345.436,1185.47L49.167,1185.47L49.097,1110.002ZM345.436,943.491C562.809,764.799 813.737,731.799 1156.686,929.531L1037.248,997.782L767.348,848.871C719.357,858.711 663.328,881.946 602.927,912.468L562.597,882.385C498.25,916.823 426.33,938.008 345.436,943.491ZM1136.521,1185.47L1263.715,1104.811L1397.3,1185.47L1136.521,1185.47ZM1094.64,1024L1262.94,938.838L1457.609,1091.626L1366.091,953.126L1631.833,1046.488L1457.609,1145.14L1735.264,1024C1789.135,1071.122 1846.981,1115.595 1916.748,1152.121L1806.306,1012.673L1981.593,1052.06L1981.593,1185.451L1738.366,1185.47L1651.502,1104.811L1708.274,1185.47L1504.143,1185.47C1418.225,1169.34 1334.298,1138.479 1266.911,1095.876L1262.94,1047.418L1212.527,1091.626L1094.64,1024ZM1504.267,968.496C1576.123,938.973 1651.594,901.225 1795.759,839.565L1946.522,865.991L1828.333,979.168L1726.764,953.126L1653.053,1024L1504.267,968.496ZM84.619,868.629C84.619,868.629 209.999,810.547 263.226,811.644C316.452,812.741 412.958,880.669 412.958,880.669L324.551,945.589C137.45,950.805 175.539,876.474 84.619,868.629ZM1156.491,945.589C1246.379,885.379 1391.63,852.793 1471.011,846.514C1528.505,841.966 1632.773,907.913 1632.773,907.913C1563.387,907.932 1507.388,921.339 1469.77,953.126C1429.252,903.034 1223.486,924.973 1156.491,945.589ZM1981.383,864.088L1981.383,917.221C1938.2,908.142 1893.297,947.427 1848.498,983.821C1909.933,912.751 1962.797,857.258 1981.383,864.088Z"/>
                        </clipPath>
                        <g clip-path="url(#_clip2)">
                            <g transform="matrix(1,0,0,1,-0,21.974252)">
                                <path d="M49.097,863.826C193.767,907.823 45.283,949.149 447.812,991.577L568.802,934.185L677.382,996.23L725.467,914.02L894.542,1087.748L809.229,931.782C829.338,939.963 876.97,984.377 876.97,984.377C876.97,984.377 1134.427,1070.087 1184.607,1098.606L1015.345,1175.561L936.423,1182.368C793.852,1133.502 677.758,1077.152 601.376,999.333L514.511,1050.521L481.937,1044.165L418.34,1087.748L261.338,999.414L49.097,917.271L49.097,863.826ZM49.097,1053.446C131.571,1041.233 212.809,986.576 278.737,1024C342.93,1078.14 401.202,1108.595 457.119,1129.629L629.296,1053.623L857.315,1185.47L440.056,1183.919C367.653,1177.204 300.47,1134.276 270.981,1097.055C200.234,1100.586 115.701,1110.615 49.097,1110.002L49.097,1053.446ZM49.097,1110.002C165.254,1115.444 274.78,1146.937 345.436,1185.47L49.167,1185.47L49.097,1110.002ZM345.436,943.491C562.809,764.799 813.737,731.799 1156.686,929.531L1037.248,997.782L767.348,848.871C719.357,858.711 663.328,881.946 602.927,912.468L562.597,882.385C498.25,916.823 426.33,938.008 345.436,943.491ZM1136.521,1185.47L1263.715,1104.811L1397.3,1185.47L1136.521,1185.47ZM1094.64,1024L1262.94,938.838L1457.609,1091.626L1366.091,953.126L1631.833,1046.488L1457.609,1145.14L1735.264,1024C1789.135,1071.122 1846.981,1115.595 1916.748,1152.121L1806.306,1012.673L1981.593,1052.06L1981.593,1185.451L1738.366,1185.47L1651.502,1104.811L1708.274,1185.47L1504.143,1185.47C1418.225,1169.34 1334.298,1138.479 1266.911,1095.876L1262.94,1047.418L1212.527,1091.626L1094.64,1024ZM1504.267,968.496C1576.123,938.973 1651.594,901.225 1795.759,839.565L1946.522,865.991L1828.333,979.168L1726.764,953.126L1653.053,1024L1504.267,968.496ZM84.619,868.629C84.619,868.629 209.999,810.547 263.226,811.644C316.452,812.741 412.958,880.669 412.958,880.669L324.551,945.589C137.45,950.805 175.539,876.474 84.619,868.629ZM1156.491,945.589C1246.379,885.379 1391.63,852.793 1471.011,846.514C1528.505,841.966 1632.773,907.913 1632.773,907.913C1563.387,907.932 1507.388,921.339 1469.77,953.126C1429.252,903.034 1223.486,924.973 1156.491,945.589ZM1981.383,864.088L1981.383,917.221C1938.2,908.142 1893.297,947.427 1848.498,983.821C1909.933,912.751 1962.797,857.258 1981.383,864.088Z" style="fill-opacity:0.1;"/>
                            </g>
                        </g>
                    </g>
                </g>
            </g>
        </g>
        <g id="mid-waves-3" serif:id="mid waves 3">
        </g>
    </g>
</svg>
