<?xml version="1.0" encoding="UTF-8" standalone="no"?>
<!DOCTYPE svg PUBLIC "-//W3C//DTD SVG 1.1//EN" "http://www.w3.org/Graphics/SVG/1.1/DTD/svg11.dtd">
<svg width="100%" height="100%" viewBox="0 0 4096 2048" version="1.1" xmlns="http://www.w3.org/2000/svg" xmlns:xlink="http://www.w3.org/1999/xlink" xml:space="preserve" xmlns:serif="http://www.serif.com/" style="fill-rule:evenodd;clip-rule:evenodd;stroke-linejoin:round;stroke-miterlimit:2;">
    <g>
        <g transform="matrix(2.206919,0,0,2.206919,-85.906169,-917.873272)">
            <g id="far-waves-2" serif:id="far waves 2">
                <path d="M1894.636,832.783C1894.641,834.348 1894.636,1126.775 1894.636,1126.775L38.946,1126.775L38.946,883.383L39.237,883.383L38.811,842.537L164.592,848.956C164.592,848.956 459.636,720.786 583.685,811.655C653.209,791.768 690.437,752.131 885.87,858.94C967.711,791.356 1283.467,792.314 1311.108,820.328C1491.704,747.412 1647.157,768.21 1781.781,866.641C1781.781,866.641 1841.421,833.472 1894.636,832.783Z" style="fill:rgb(165,151,127);"/>
                <clipPath id="_clip1">
                    <path d="M1894.636,832.783C1894.641,834.348 1894.636,1126.775 1894.636,1126.775L38.946,1126.775L38.946,883.383L39.237,883.383L38.811,842.537L164.592,848.956C164.592,848.956 459.636,720.786 583.685,811.655C653.209,791.768 690.437,752.131 885.87,858.94C967.711,791.356 1283.467,792.314 1311.108,820.328C1491.704,747.412 1647.157,768.21 1781.781,866.641C1781.781,866.641 1841.421,833.472 1894.636,832.783Z"/>
                </clipPath>
                <g clip-path="url(#_clip1)">
                    <g transform="matrix(0.970482,0,0,0.976233,-22.023146,-63.045302)">
                        <path d="M62.754,932.651C62.754,932.651 214.648,924.501 379.374,996.577C282.75,1024.671 177.911,981.334 62.754,980.306L62.754,932.651ZM221.064,928.512C374.074,872.93 539.613,854.481 610.557,894.201C538.564,913.693 461.957,937.799 379.374,967.88C346.908,943.929 293.24,931.285 221.064,928.512ZM458.483,982.616C614.457,877.325 771.41,849.288 930.032,953.145C858.387,957.666 805.755,972.883 776.468,1001.23C636.623,958.098 540.048,962.17 458.483,982.616ZM840.375,1021.416C831.804,1009.256 955.827,935.621 1212.216,1041.602C1261.067,1094.515 1284.329,1107.853 1389.357,1112.707C1275.805,1172.305 1149.621,1171.553 1012.242,1117.317C1019.304,1072.938 849.412,1008.614 840.375,1021.416ZM983.621,943.788C977.27,915.309 1181.933,896.216 1343.605,896.314C1300.317,918.518 984.109,984.619 983.621,943.788ZM1226.301,1006.923C1299.2,991.508 1319.488,961.841 1333.069,950.664C1388.892,974.083 1466.838,990.517 1562.9,1001.23C1522.391,963.435 1448.171,946.508 1363.149,936.268C1526.402,848.658 1687.743,848.032 1846.759,953.145C1744.909,989.487 1636.296,1026.506 1513.263,1064.966C1380.582,1067.399 1286.975,1046.847 1226.301,1006.923ZM1687.562,1031.942C1790.914,1003.862 1899.847,925.27 1974.748,932.881L1974.748,980.262C1879.019,972.395 1783.291,1010.896 1687.562,1031.942ZM1704.259,1198.828C1642.495,1197.648 1584.955,1200.257 1550.49,1210.635L1381.415,1210.635L1211.211,1172.799C1398.705,1141.701 1709.669,1056.356 1974.956,1100.503C1975.112,1110.448 1974.956,1219.54 1974.956,1219.54L1974.268,1219.454L1660.014,1219.461C1676.235,1211.089 1690.58,1204.365 1704.259,1198.828ZM62.754,1100.503C252.226,1104.501 310.117,1062.001 447.997,1024C538.966,998.928 694.567,1032.935 694.567,1032.935C412.028,1126.37 645.099,1102.309 253.359,1210.635L62.754,1219.54L62.754,1100.503ZM379.374,1210.635L715.663,1041.602L1241.998,1210.635L379.374,1210.635Z" style="fill:rgb(151,138,116);"/>
                        <clipPath id="_clip2">
                            <path d="M62.754,932.651C62.754,932.651 214.648,924.501 379.374,996.577C282.75,1024.671 177.911,981.334 62.754,980.306L62.754,932.651ZM221.064,928.512C374.074,872.93 539.613,854.481 610.557,894.201C538.564,913.693 461.957,937.799 379.374,967.88C346.908,943.929 293.24,931.285 221.064,928.512ZM458.483,982.616C614.457,877.325 771.41,849.288 930.032,953.145C858.387,957.666 805.755,972.883 776.468,1001.23C636.623,958.098 540.048,962.17 458.483,982.616ZM840.375,1021.416C831.804,1009.256 955.827,935.621 1212.216,1041.602C1261.067,1094.515 1284.329,1107.853 1389.357,1112.707C1275.805,1172.305 1149.621,1171.553 1012.242,1117.317C1019.304,1072.938 849.412,1008.614 840.375,1021.416ZM983.621,943.788C977.27,915.309 1181.933,896.216 1343.605,896.314C1300.317,918.518 984.109,984.619 983.621,943.788ZM1226.301,1006.923C1299.2,991.508 1319.488,961.841 1333.069,950.664C1388.892,974.083 1466.838,990.517 1562.9,1001.23C1522.391,963.435 1448.171,946.508 1363.149,936.268C1526.402,848.658 1687.743,848.032 1846.759,953.145C1744.909,989.487 1636.296,1026.506 1513.263,1064.966C1380.582,1067.399 1286.975,1046.847 1226.301,1006.923ZM1687.562,1031.942C1790.914,1003.862 1899.847,925.27 1974.748,932.881L1974.748,980.262C1879.019,972.395 1783.291,1010.896 1687.562,1031.942ZM1704.259,1198.828C1642.495,1197.648 1584.955,1200.257 1550.49,1210.635L1381.415,1210.635L1211.211,1172.799C1398.705,1141.701 1709.669,1056.356 1974.956,1100.503C1975.112,1110.448 1974.956,1219.54 1974.956,1219.54L1974.268,1219.454L1660.014,1219.461C1676.235,1211.089 1690.58,1204.365 1704.259,1198.828ZM62.754,1100.503C252.226,1104.501 310.117,1062.001 447.997,1024C538.966,998.928 694.567,1032.935 694.567,1032.935C412.028,1126.37 645.099,1102.309 253.359,1210.635L62.754,1219.54L62.754,1100.503ZM379.374,1210.635L715.663,1041.602L1241.998,1210.635L379.374,1210.635Z"/>
                        </clipPath>
                        <g clip-path="url(#_clip2)">
                            <g transform="matrix(1,0,0,1,-0.069422,23.68869)">
                                <path d="M62.754,932.651C62.754,932.651 214.648,924.501 379.374,996.577C282.75,1024.671 177.911,981.334 62.754,980.306L62.754,932.651ZM221.064,928.512C374.074,872.93 539.613,854.481 610.557,894.201C538.564,913.693 461.957,937.799 379.374,967.88C346.908,943.929 293.24,931.285 221.064,928.512ZM458.483,982.616C614.457,877.325 771.41,849.288 930.032,953.145C858.387,957.666 805.755,972.883 776.468,1001.23C636.623,958.098 540.048,962.17 458.483,982.616ZM840.375,1021.416C831.804,1009.256 955.827,935.621 1212.216,1041.602C1261.067,1094.515 1284.329,1107.853 1389.357,1112.707C1275.805,1172.305 1149.621,1171.553 1012.242,1117.317C1019.304,1072.938 849.412,1008.614 840.375,1021.416ZM983.621,943.788C977.27,915.309 1181.933,896.216 1343.605,896.314C1300.317,918.518 984.109,984.619 983.621,943.788ZM1226.301,1006.923C1299.2,991.508 1319.488,961.841 1333.069,950.664C1388.892,974.083 1466.838,990.517 1562.9,1001.23C1522.391,963.435 1448.171,946.508 1363.149,936.268C1526.402,848.658 1687.743,848.032 1846.759,953.145C1744.909,989.487 1636.296,1026.506 1513.263,1064.966C1380.582,1067.399 1286.975,1046.847 1226.301,1006.923ZM1687.562,1031.942C1790.914,1003.862 1899.847,925.27 1974.748,932.881L1974.748,980.262C1879.019,972.395 1783.291,1010.896 1687.562,1031.942ZM1704.259,1198.828C1642.495,1197.648 1584.955,1200.257 1550.49,1210.635L1381.415,1210.635L1211.211,1172.799C1398.705,1141.701 1709.669,1056.356 1974.956,1100.503C1975.112,1110.448 1974.956,1219.54 1974.956,1219.54L1974.268,1219.454L1660.014,1219.461C1676.235,1211.089 1690.58,1204.365 1704.259,1198.828ZM62.754,1100.503C252.226,1104.501 310.117,1062.001 447.997,1024C538.966,998.928 694.567,1032.935 694.567,1032.935C412.028,1126.37 645.099,1102.309 253.359,1210.635L62.754,1219.54L62.754,1100.503ZM379.374,1210.635L715.663,1041.602L1241.998,1210.635L379.374,1210.635Z" style="fill-opacity:0.1;"/>
                            </g>
                        </g>
                    </g>
                </g>
            </g>
        </g>
        <g id="mid-waves-3" serif:id="mid waves 3">
        </g>
    </g>
</svg>
