<?xml version="1.0" encoding="UTF-8" standalone="no"?>
<!DOCTYPE svg PUBLIC "-//W3C//DTD SVG 1.1//EN" "http://www.w3.org/Graphics/SVG/1.1/DTD/svg11.dtd">
<svg width="100%" height="100%" viewBox="0 0 4096 2048" version="1.1" xmlns="http://www.w3.org/2000/svg" xmlns:xlink="http://www.w3.org/1999/xlink" xml:space="preserve" xmlns:serif="http://www.serif.com/" style="fill-rule:evenodd;clip-rule:evenodd;stroke-linejoin:round;stroke-miterlimit:2;">
    <g>
        <g transform="matrix(2.206919,0,0,2.206919,-85.906169,-917.873272)">
            <g id="far-waves-2" serif:id="far waves 2">
                <path d="M1894.636,832.783C1894.641,834.348 1894.636,1126.775 1894.636,1126.775L38.946,1126.775L38.946,883.383L39.237,883.383L39.237,848.956L62.209,848.956L241.084,885.466C232.213,906.432 520.163,633.944 927.244,871.791C961.292,873.674 1013.965,856.64 1013.965,830.838L1129.039,835.201C1129.039,835.201 1209.851,867.344 1275.219,869.068C1415.726,782.888 1552.739,768.861 1661.483,843.162C1661.483,843.162 1835.152,833.629 1894.636,832.783Z" style="fill:rgb(165,151,127);"/>
                <clipPath id="_clip1">
                    <path d="M1894.636,832.783C1894.641,834.348 1894.636,1126.775 1894.636,1126.775L38.946,1126.775L38.946,883.383L39.237,883.383L39.237,848.956L62.209,848.956L241.084,885.466C232.213,906.432 520.163,633.944 927.244,871.791C961.292,873.674 1013.965,856.64 1013.965,830.838L1129.039,835.201C1129.039,835.201 1209.851,867.344 1275.219,869.068C1415.726,782.888 1552.739,768.861 1661.483,843.162C1661.483,843.162 1835.152,833.629 1894.636,832.783Z"/>
                </clipPath>
                <g clip-path="url(#_clip1)">
                    <g transform="matrix(0.906033,0,0,0.903138,38.945958,83.562894)">
                        <path d="M2048.149,1027.24L2048.149,1155.911L1849.264,1155.911C1687.341,1116.998 1564.421,1055.505 1452.853,987.439C1470.493,978.577 1495.858,964.259 1556.097,934.097C1721.689,1008.809 1886.046,1093.327 2048.149,1027.24ZM2048.149,1155.911C1919.834,1145.091 1786.991,1018.077 1650.717,906.952C1679.324,889.23 1690.36,854.201 1826.928,850.956C1892.538,848.614 1944.904,844.41 2047.926,846.051L2047.926,897.267L1760.725,893.054L1752.412,906.952C1774.591,960.523 1918.186,1024.369 2048.149,1027.24L2048.149,1155.911ZM-0,845.799L374.123,930.995L304.322,965.12L-0,897.315L-0,845.799ZM0,1028.577C213.155,939.595 426.818,977.568 653.33,1152.809L498.215,1155.911C233.571,1095.765 89.876,1079.686 -0,1083.092C0.479,1065.91 2.993,1052.726 0,1028.577ZM390.938,961.27L543.198,920.137L723.131,999.68L653.33,893.054L898.411,1060.768L818.806,976.911L1203.118,1155.911L830.16,1155.911C572.573,1102.684 620.375,1070.771 390.938,961.27ZM753.1,893.054L894.44,895.039C992.06,921.677 1094.003,948.661 1258.277,980.631C1175.058,999.603 1104.067,1025.912 1047.321,1060.768C959.512,1015.224 837.544,959.907 753.1,893.054ZM1220.987,962.948C1353.843,893.547 1495.232,800.875 1661.327,806.345C1696.061,809.825 1681.318,804.767 1760.725,836.375C1580.446,874.361 1438.969,911.754 1351.346,965.624L1220.987,962.948ZM1062.522,1060.768C1305.066,956.71 1498.637,1021.381 1713.384,1155.911C1632.742,1151.072 1536.392,1150.16 1413.392,1155.911C1308.717,1138.897 1175.139,1106.902 1062.522,1060.768ZM0,1083.092L113.717,1108.339C171.724,1118.692 222.324,1134.969 267.094,1155.911L0,1155.911L0,1083.092ZM241.221,885.639C664.371,685.4 831.415,820.883 974.417,878.256C869.539,869.135 798.663,866.815 733.617,865.66L724.683,882.909L638.439,828.619L398.942,920.137L241.221,885.639ZM990.26,881.397C1029.128,875.723 1062.55,865.284 1080.226,841.067C1115.351,841.129 1155.956,841.191 1204.318,841.253C1216.808,855.101 1274.87,866.474 1333.994,873.368C1274.831,927.883 1009.928,922.942 990.26,881.397Z" style="fill:rgb(151,138,116);"/>
                        <clipPath id="_clip2">
                            <path d="M2048.149,1027.24L2048.149,1155.911L1849.264,1155.911C1687.341,1116.998 1564.421,1055.505 1452.853,987.439C1470.493,978.577 1495.858,964.259 1556.097,934.097C1721.689,1008.809 1886.046,1093.327 2048.149,1027.24ZM2048.149,1155.911C1919.834,1145.091 1786.991,1018.077 1650.717,906.952C1679.324,889.23 1690.36,854.201 1826.928,850.956C1892.538,848.614 1944.904,844.41 2047.926,846.051L2047.926,897.267L1760.725,893.054L1752.412,906.952C1774.591,960.523 1918.186,1024.369 2048.149,1027.24L2048.149,1155.911ZM-0,845.799L374.123,930.995L304.322,965.12L-0,897.315L-0,845.799ZM0,1028.577C213.155,939.595 426.818,977.568 653.33,1152.809L498.215,1155.911C233.571,1095.765 89.876,1079.686 -0,1083.092C0.479,1065.91 2.993,1052.726 0,1028.577ZM390.938,961.27L543.198,920.137L723.131,999.68L653.33,893.054L898.411,1060.768L818.806,976.911L1203.118,1155.911L830.16,1155.911C572.573,1102.684 620.375,1070.771 390.938,961.27ZM753.1,893.054L894.44,895.039C992.06,921.677 1094.003,948.661 1258.277,980.631C1175.058,999.603 1104.067,1025.912 1047.321,1060.768C959.512,1015.224 837.544,959.907 753.1,893.054ZM1220.987,962.948C1353.843,893.547 1495.232,800.875 1661.327,806.345C1696.061,809.825 1681.318,804.767 1760.725,836.375C1580.446,874.361 1438.969,911.754 1351.346,965.624L1220.987,962.948ZM1062.522,1060.768C1305.066,956.71 1498.637,1021.381 1713.384,1155.911C1632.742,1151.072 1536.392,1150.16 1413.392,1155.911C1308.717,1138.897 1175.139,1106.902 1062.522,1060.768ZM0,1083.092L113.717,1108.339C171.724,1118.692 222.324,1134.969 267.094,1155.911L0,1155.911L0,1083.092ZM241.221,885.639C664.371,685.4 831.415,820.883 974.417,878.256C869.539,869.135 798.663,866.815 733.617,865.66L724.683,882.909L638.439,828.619L398.942,920.137L241.221,885.639ZM990.26,881.397C1029.128,875.723 1062.55,865.284 1080.226,841.067C1115.351,841.129 1155.956,841.191 1204.318,841.253C1216.808,855.101 1274.87,866.474 1333.994,873.368C1274.831,927.883 1009.928,922.942 990.26,881.397Z"/>
                        </clipPath>
                        <g clip-path="url(#_clip2)">
                            <g transform="matrix(1,0,0,1,0,24.099695)">
                                <path d="M2048.149,1027.24L2048.149,1155.911L1849.264,1155.911C1687.341,1116.998 1564.421,1055.505 1452.853,987.439C1470.493,978.577 1495.858,964.259 1556.097,934.097C1721.689,1008.809 1886.046,1093.327 2048.149,1027.24ZM2048.149,1155.911C1919.834,1145.091 1786.991,1018.077 1650.717,906.952C1679.324,889.23 1690.36,854.201 1826.928,850.956C1892.538,848.614 1944.904,844.41 2047.926,846.051L2047.926,897.267L1760.725,893.054L1752.412,906.952C1774.591,960.523 1918.186,1024.369 2048.149,1027.24L2048.149,1155.911ZM-0,845.799L374.123,930.995L304.322,965.12L-0,897.315L-0,845.799ZM0,1028.577C213.155,939.595 426.818,977.568 653.33,1152.809L498.215,1155.911C233.571,1095.765 89.876,1079.686 -0,1083.092C0.479,1065.91 2.993,1052.726 0,1028.577ZM390.938,961.27L543.198,920.137L723.131,999.68L653.33,893.054L898.411,1060.768L818.806,976.911L1203.118,1155.911L830.16,1155.911C572.573,1102.684 620.375,1070.771 390.938,961.27ZM753.1,893.054L894.44,895.039C992.06,921.677 1094.003,948.661 1258.277,980.631C1175.058,999.603 1104.067,1025.912 1047.321,1060.768C959.512,1015.224 837.544,959.907 753.1,893.054ZM1220.987,962.948C1353.843,893.547 1495.232,800.875 1661.327,806.345C1696.061,809.825 1681.318,804.767 1760.725,836.375C1580.446,874.361 1438.969,911.754 1351.346,965.624L1220.987,962.948ZM1062.522,1060.768C1305.066,956.71 1498.637,1021.381 1713.384,1155.911C1632.742,1151.072 1536.392,1150.16 1413.392,1155.911C1308.717,1138.897 1175.139,1106.902 1062.522,1060.768ZM0,1083.092L113.717,1108.339C171.724,1118.692 222.324,1134.969 267.094,1155.911L0,1155.911L0,1083.092ZM241.221,885.639C664.371,685.4 831.415,820.883 974.417,878.256C869.539,869.135 798.663,866.815 733.617,865.66L724.683,882.909L638.439,828.619L398.942,920.137L241.221,885.639ZM990.26,881.397C1029.128,875.723 1062.55,865.284 1080.226,841.067C1115.351,841.129 1155.956,841.191 1204.318,841.253C1216.808,855.101 1274.87,866.474 1333.994,873.368C1274.831,927.883 1009.928,922.942 990.26,881.397Z" style="fill-opacity:0.1;"/>
                            </g>
                        </g>
                    </g>
                </g>
            </g>
        </g>
        <g id="mid-waves-3" serif:id="mid waves 3">
        </g>
    </g>
</svg>
