<?xml version="1.0" encoding="UTF-8" standalone="no"?>
<!DOCTYPE svg PUBLIC "-//W3C//DTD SVG 1.1//EN" "http://www.w3.org/Graphics/SVG/1.1/DTD/svg11.dtd">
<svg width="100%" height="100%" viewBox="0 0 4981 4678" version="1.1" xmlns="http://www.w3.org/2000/svg" xmlns:xlink="http://www.w3.org/1999/xlink" xml:space="preserve" xmlns:serif="http://www.serif.com/" style="fill-rule:evenodd;clip-rule:evenodd;stroke-linejoin:round;stroke-miterlimit:2;">
    <g transform="matrix(1,0,0,1,-566.075385,-252.15951)">
        <g transform="matrix(1.379497,0,0,1.379497,-1159.070281,-2069.809526)">
            <path d="M1379.585,3854.373C1378.119,3846.917 1375.341,3836.488 1370.55,3822.246L1250.562,3815.424L1356.906,3761.159C1341.405,3668.692 1329.175,3542.399 1327.611,3398.549C1286.049,3388.691 1250.562,3375.793 1250.562,3375.793C1250.562,3375.793 1296.304,3280.376 1332.865,3191.729C1335.318,3152.314 1338.662,3112.257 1343.014,3071.818C1342.752,3068.609 1342.496,3065.403 1342.247,3062.201C1307.054,3040.595 1258.203,3001.81 1258.203,3001.81C1258.203,3001.81 1295.838,2952.905 1334.257,2893.576C1331.172,2716.301 1344.938,2559.44 1363.288,2449.98L1256.944,2395.715L1376.932,2388.893C1415.121,2275.381 1324.398,2305.238 1462.609,2251.294L1445.956,2206.444C1393.3,2149.699 1354.136,2107.645 1354.136,2107.645L1432.415,2089.756C1478.841,2079.151 1539.486,2077.135 1603.964,2079.973L1601.39,2034.504L1628.878,2081.293C1662.327,2083.352 1696.433,2086.56 1729.8,2090.414C1753.522,2072.282 1779.263,2056.661 1806.625,2043.947L1833.54,1884.999L1908.069,2012.014C1931.539,2007.866 1955.689,2005.702 1980.341,2005.702L2057.671,2005.702L2102.616,1989.529C2119.537,1983.441 2137.018,1979.811 2154.28,1978.455C2154.943,1975.916 2157.669,1976.547 2162.138,1979.852C2215.416,1893.077 2270.577,1803.35 2306.075,1745.626L2344.47,1683.2C2344.47,1683.2 2397.082,1799.701 2445.968,1906.626L2470.744,1791.815L2557.013,2005.702L2586.513,2005.702C2609.24,1950.606 2625.363,1900.033 2628.81,1861.656L2635.297,1789.485C2635.297,1789.485 2794.207,1921.97 2896.315,2005.702L3208.888,2005.702C3310.995,1921.97 3469.905,1789.485 3469.905,1789.485L3476.393,1861.656C3479.839,1900.033 3495.963,1950.606 3518.69,2005.702L3548.189,2005.702L3634.459,1791.815L3659.235,1906.626C3708.121,1799.701 3760.733,1683.2 3760.733,1683.2L3799.128,1745.626C3838.168,1809.109 3900.989,1911.3 3958.934,2005.702L3981.002,2005.702C4071.864,2005.702 4155.914,2035.099 4224.152,2084.894L4283.45,1983.835L4303.092,2099.83C4427.29,2081.952 4579.033,2068.339 4672.788,2089.756L4751.067,2107.645C4751.067,2107.645 4653.725,2212.171 4559.632,2314.002L4675.558,2293.097L4654.381,2350.13C4705.021,2369.895 4725.059,2365.141 4731.999,2356.766C4733.466,2364.222 4736.243,2374.651 4741.035,2388.893L4861.023,2395.715L4754.678,2449.98C4770.179,2542.447 4782.41,2668.74 4783.974,2812.59C4825.536,2822.448 4861.023,2835.346 4861.023,2835.346C4861.023,2835.346 4815.28,2930.763 4778.72,3019.41C4776.267,3058.825 4772.923,3098.882 4768.57,3139.321C4768.832,3142.53 4769.088,3145.736 4769.338,3148.938C4804.531,3170.544 4853.382,3209.329 4853.382,3209.329C4853.382,3209.329 4815.746,3258.234 4777.328,3317.563C4780.413,3494.838 4766.646,3651.699 4748.297,3761.159L4854.641,3815.424L4734.653,3822.246C4696.463,3935.758 4787.186,3905.901 4648.975,3959.845L4665.628,4004.695C4718.285,4061.44 4757.448,4103.494 4757.448,4103.494L4679.169,4121.383C4632.744,4131.988 4572.099,4134.004 4507.621,4131.166L4510.194,4176.635L4482.707,4129.846C4426.205,4126.367 4367.827,4119.612 4314.305,4112L4278.045,4326.14L4191.811,4179.179C4130.081,4215.911 4057.987,4237.015 3981.002,4237.015L3945.93,4237.015C3893.752,4321.992 3840.227,4409.058 3805.51,4465.513L3767.114,4527.939C3767.114,4527.939 3714.502,4411.438 3665.617,4304.513L3640.841,4419.324L3567.308,4237.015L3512.605,4237.015C3496.553,4279.744 3485.551,4318.57 3482.775,4349.483L3476.287,4421.654C3476.287,4421.654 3352.867,4318.757 3253.674,4237.015L2864.292,4237.015C2765.1,4318.757 2641.679,4421.654 2641.679,4421.654L2635.192,4349.483C2632.415,4318.57 2621.414,4279.744 2605.362,4237.015L2550.659,4237.015L2477.126,4419.324L2452.35,4304.513C2403.464,4411.438 2350.852,4527.939 2350.852,4527.939L2312.456,4465.513C2306.92,4456.51 2300.905,4446.728 2294.493,4436.3L1616.309,5074.041L1828.134,4227.304L1824.632,4206.618C1777.21,4187.284 1734.176,4159.388 1697.454,4124.854C1602.432,4134.103 1505.804,4136.69 1438.797,4121.383L1360.518,4103.494C1360.518,4103.494 1457.86,3998.968 1551.953,3897.137L1436.027,3918.042L1457.204,3861.009C1406.563,3841.244 1386.526,3845.998 1379.585,3854.373Z" style="fill:rgb(165,151,127);"/>
            <clipPath id="_clip1">
                <path d="M1379.585,3854.373C1378.119,3846.917 1375.341,3836.488 1370.55,3822.246L1250.562,3815.424L1356.906,3761.159C1341.405,3668.692 1329.175,3542.399 1327.611,3398.549C1286.049,3388.691 1250.562,3375.793 1250.562,3375.793C1250.562,3375.793 1296.304,3280.376 1332.865,3191.729C1335.318,3152.314 1338.662,3112.257 1343.014,3071.818C1342.752,3068.609 1342.496,3065.403 1342.247,3062.201C1307.054,3040.595 1258.203,3001.81 1258.203,3001.81C1258.203,3001.81 1295.838,2952.905 1334.257,2893.576C1331.172,2716.301 1344.938,2559.44 1363.288,2449.98L1256.944,2395.715L1376.932,2388.893C1415.121,2275.381 1324.398,2305.238 1462.609,2251.294L1445.956,2206.444C1393.3,2149.699 1354.136,2107.645 1354.136,2107.645L1432.415,2089.756C1478.841,2079.151 1539.486,2077.135 1603.964,2079.973L1601.39,2034.504L1628.878,2081.293C1662.327,2083.352 1696.433,2086.56 1729.8,2090.414C1753.522,2072.282 1779.263,2056.661 1806.625,2043.947L1833.54,1884.999L1908.069,2012.014C1931.539,2007.866 1955.689,2005.702 1980.341,2005.702L2057.671,2005.702L2102.616,1989.529C2119.537,1983.441 2137.018,1979.811 2154.28,1978.455C2154.943,1975.916 2157.669,1976.547 2162.138,1979.852C2215.416,1893.077 2270.577,1803.35 2306.075,1745.626L2344.47,1683.2C2344.47,1683.2 2397.082,1799.701 2445.968,1906.626L2470.744,1791.815L2557.013,2005.702L2586.513,2005.702C2609.24,1950.606 2625.363,1900.033 2628.81,1861.656L2635.297,1789.485C2635.297,1789.485 2794.207,1921.97 2896.315,2005.702L3208.888,2005.702C3310.995,1921.97 3469.905,1789.485 3469.905,1789.485L3476.393,1861.656C3479.839,1900.033 3495.963,1950.606 3518.69,2005.702L3548.189,2005.702L3634.459,1791.815L3659.235,1906.626C3708.121,1799.701 3760.733,1683.2 3760.733,1683.2L3799.128,1745.626C3838.168,1809.109 3900.989,1911.3 3958.934,2005.702L3981.002,2005.702C4071.864,2005.702 4155.914,2035.099 4224.152,2084.894L4283.45,1983.835L4303.092,2099.83C4427.29,2081.952 4579.033,2068.339 4672.788,2089.756L4751.067,2107.645C4751.067,2107.645 4653.725,2212.171 4559.632,2314.002L4675.558,2293.097L4654.381,2350.13C4705.021,2369.895 4725.059,2365.141 4731.999,2356.766C4733.466,2364.222 4736.243,2374.651 4741.035,2388.893L4861.023,2395.715L4754.678,2449.98C4770.179,2542.447 4782.41,2668.74 4783.974,2812.59C4825.536,2822.448 4861.023,2835.346 4861.023,2835.346C4861.023,2835.346 4815.28,2930.763 4778.72,3019.41C4776.267,3058.825 4772.923,3098.882 4768.57,3139.321C4768.832,3142.53 4769.088,3145.736 4769.338,3148.938C4804.531,3170.544 4853.382,3209.329 4853.382,3209.329C4853.382,3209.329 4815.746,3258.234 4777.328,3317.563C4780.413,3494.838 4766.646,3651.699 4748.297,3761.159L4854.641,3815.424L4734.653,3822.246C4696.463,3935.758 4787.186,3905.901 4648.975,3959.845L4665.628,4004.695C4718.285,4061.44 4757.448,4103.494 4757.448,4103.494L4679.169,4121.383C4632.744,4131.988 4572.099,4134.004 4507.621,4131.166L4510.194,4176.635L4482.707,4129.846C4426.205,4126.367 4367.827,4119.612 4314.305,4112L4278.045,4326.14L4191.811,4179.179C4130.081,4215.911 4057.987,4237.015 3981.002,4237.015L3945.93,4237.015C3893.752,4321.992 3840.227,4409.058 3805.51,4465.513L3767.114,4527.939C3767.114,4527.939 3714.502,4411.438 3665.617,4304.513L3640.841,4419.324L3567.308,4237.015L3512.605,4237.015C3496.553,4279.744 3485.551,4318.57 3482.775,4349.483L3476.287,4421.654C3476.287,4421.654 3352.867,4318.757 3253.674,4237.015L2864.292,4237.015C2765.1,4318.757 2641.679,4421.654 2641.679,4421.654L2635.192,4349.483C2632.415,4318.57 2621.414,4279.744 2605.362,4237.015L2550.659,4237.015L2477.126,4419.324L2452.35,4304.513C2403.464,4411.438 2350.852,4527.939 2350.852,4527.939L2312.456,4465.513C2306.92,4456.51 2300.905,4446.728 2294.493,4436.3L1616.309,5074.041L1828.134,4227.304L1824.632,4206.618C1777.21,4187.284 1734.176,4159.388 1697.454,4124.854C1602.432,4134.103 1505.804,4136.69 1438.797,4121.383L1360.518,4103.494C1360.518,4103.494 1457.86,3998.968 1551.953,3897.137L1436.027,3918.042L1457.204,3861.009C1406.563,3841.244 1386.526,3845.998 1379.585,3854.373Z"/>
            </clipPath>
            <g clip-path="url(#_clip1)">
                <g transform="matrix(0.920632,0,0,0.920632,242.532781,268.155102)">
                    <path d="M1379.585,3854.373C1378.119,3846.917 1375.341,3836.488 1370.55,3822.246L1250.562,3815.424L1356.906,3761.159C1341.405,3668.692 1329.175,3542.399 1327.611,3398.549C1286.049,3388.691 1250.562,3375.793 1250.562,3375.793C1250.562,3375.793 1296.304,3280.376 1332.865,3191.729C1335.318,3152.314 1338.662,3112.257 1343.014,3071.818C1342.752,3068.609 1342.496,3065.403 1342.247,3062.201C1307.054,3040.595 1258.203,3001.81 1258.203,3001.81C1258.203,3001.81 1295.838,2952.905 1334.257,2893.576C1331.172,2716.301 1344.938,2559.44 1363.288,2449.98L1256.944,2395.715L1376.932,2388.893C1415.121,2275.381 1324.398,2305.238 1462.609,2251.294L1445.956,2206.444C1393.3,2149.699 1354.136,2107.645 1354.136,2107.645L1432.415,2089.756C1478.841,2079.151 1539.486,2077.135 1603.964,2079.973L1601.39,2034.504L1628.878,2081.293C1662.327,2083.352 1696.433,2086.56 1729.8,2090.414C1753.522,2072.282 1779.263,2056.661 1806.625,2043.947L1833.54,1884.999L1908.069,2012.014C1931.539,2007.866 1955.689,2005.702 1980.341,2005.702L2057.671,2005.702L2102.616,1989.529C2119.537,1983.441 2137.018,1979.811 2154.28,1978.455C2154.943,1975.916 2157.669,1976.547 2162.138,1979.852C2215.416,1893.077 2270.577,1803.35 2306.075,1745.626L2344.47,1683.2C2344.47,1683.2 2397.082,1799.701 2445.968,1906.626L2470.744,1791.815L2557.013,2005.702L2586.513,2005.702C2609.24,1950.606 2625.363,1900.033 2628.81,1861.656L2635.297,1789.485C2635.297,1789.485 2794.207,1921.97 2896.315,2005.702L3208.888,2005.702C3310.995,1921.97 3469.905,1789.485 3469.905,1789.485L3476.393,1861.656C3479.839,1900.033 3495.963,1950.606 3518.69,2005.702L3548.189,2005.702L3634.459,1791.815L3659.235,1906.626C3708.121,1799.701 3760.733,1683.2 3760.733,1683.2L3799.128,1745.626C3838.168,1809.109 3900.989,1911.3 3958.934,2005.702L3981.002,2005.702C4071.864,2005.702 4155.914,2035.099 4224.152,2084.894L4283.45,1983.835L4303.092,2099.83C4427.29,2081.952 4579.033,2068.339 4672.788,2089.756L4751.067,2107.645C4751.067,2107.645 4653.725,2212.171 4559.632,2314.002L4675.558,2293.097L4654.381,2350.13C4705.021,2369.895 4725.059,2365.141 4731.999,2356.766C4733.466,2364.222 4736.243,2374.651 4741.035,2388.893L4861.023,2395.715L4754.678,2449.98C4770.179,2542.447 4782.41,2668.74 4783.974,2812.59C4825.536,2822.448 4861.023,2835.346 4861.023,2835.346C4861.023,2835.346 4815.28,2930.763 4778.72,3019.41C4776.267,3058.825 4772.923,3098.882 4768.57,3139.321C4768.832,3142.53 4769.088,3145.736 4769.338,3148.938C4804.531,3170.544 4853.382,3209.329 4853.382,3209.329C4853.382,3209.329 4815.746,3258.234 4777.328,3317.563C4780.413,3494.838 4766.646,3651.699 4748.297,3761.159L4854.641,3815.424L4734.653,3822.246C4696.463,3935.758 4787.186,3905.901 4648.975,3959.845L4665.628,4004.695C4718.285,4061.44 4757.448,4103.494 4757.448,4103.494L4679.169,4121.383C4632.744,4131.988 4572.099,4134.004 4507.621,4131.166L4510.194,4176.635L4482.707,4129.846C4426.205,4126.367 4367.827,4119.612 4314.305,4112L4278.045,4326.14L4191.811,4179.179C4130.081,4215.911 4057.987,4237.015 3981.002,4237.015L3945.93,4237.015C3893.752,4321.992 3840.227,4409.058 3805.51,4465.513L3767.114,4527.939C3767.114,4527.939 3714.502,4411.438 3665.617,4304.513L3640.841,4419.324L3567.308,4237.015L3512.605,4237.015C3496.553,4279.744 3485.551,4318.57 3482.775,4349.483L3476.287,4421.654C3476.287,4421.654 3352.867,4318.757 3253.674,4237.015L2864.292,4237.015C2765.1,4318.757 2641.679,4421.654 2641.679,4421.654L2635.192,4349.483C2632.415,4318.57 2621.414,4279.744 2605.362,4237.015L2550.659,4237.015L2477.126,4419.324L2452.35,4304.513C2403.464,4411.438 2350.852,4527.939 2350.852,4527.939L2312.456,4465.513C2306.92,4456.51 2300.905,4446.728 2294.493,4436.3L1616.309,5074.041L1828.134,4227.304L1824.632,4206.618C1777.21,4187.284 1734.176,4159.388 1697.454,4124.854C1602.432,4134.103 1505.804,4136.69 1438.797,4121.383L1360.518,4103.494C1360.518,4103.494 1457.86,3998.968 1551.953,3897.137L1436.027,3918.042L1457.204,3861.009C1406.563,3841.244 1386.526,3845.998 1379.585,3854.373Z" style="fill-opacity:0.1;"/>
                </g>
            </g>
        </g>
    </g>
</svg>
