<?xml version="1.0" encoding="UTF-8" standalone="no"?>
<!DOCTYPE svg PUBLIC "-//W3C//DTD SVG 1.1//EN" "http://www.w3.org/Graphics/SVG/1.1/DTD/svg11.dtd">
<svg width="100%" height="100%" viewBox="0 0 4096 2048" version="1.1" xmlns="http://www.w3.org/2000/svg" xmlns:xlink="http://www.w3.org/1999/xlink" xml:space="preserve" xmlns:serif="http://www.serif.com/" style="fill-rule:evenodd;clip-rule:evenodd;stroke-linejoin:round;stroke-miterlimit:2;">
    <g>
        <g transform="matrix(2.206919,0,0,2.206919,-85.906169,-917.873272)">
            <path d="M49.121,797.023C46.122,796.847 42.557,796.601 38.946,795.71C38.946,795.71 42.926,796.053 49.121,797.023ZM1894.907,806.768L1894.636,1126.775L38.946,1126.775L38.946,883.383L39.237,883.383L39.237,848.956C39.237,848.956 38.105,812.207 38.946,795.71C83.918,809.447 80.183,744.017 170.497,789.771C181.104,795.144 188.547,799.199 193.578,802.244L217.015,795.151L215.508,794.58C439.279,633.175 623.053,637.618 731.282,641.036L754.784,649.196L750.119,672.458C795.637,681.697 838.993,693.099 873.694,713.155L808.748,713.505C808.748,713.505 818.664,716.624 905.1,807.215C849.537,801.313 810.751,792.381 800.235,789.8L815.994,841.104C816.071,846.381 796.407,834.736 744.555,793.551C729.03,828.47 741.561,870.32 778.317,916.075C776.433,917.432 779.381,917.4 778.317,916.075C836.434,874.225 911.916,823.139 1007.346,761.749L1201.112,816.158C1286.49,759.02 1475.318,690.38 1569.348,685.743C1686.722,679.955 1776.48,698.962 1894.9,796.149C1894.905,797.715 1894.907,806.768 1894.907,806.768Z" style="fill:rgb(165,151,127);"/>
            <clipPath id="_clip1">
                <path d="M49.121,797.023C46.122,796.847 42.557,796.601 38.946,795.71C38.946,795.71 42.926,796.053 49.121,797.023ZM1894.907,806.768L1894.636,1126.775L38.946,1126.775L38.946,883.383L39.237,883.383L39.237,848.956C39.237,848.956 38.105,812.207 38.946,795.71C83.918,809.447 80.183,744.017 170.497,789.771C181.104,795.144 188.547,799.199 193.578,802.244L217.015,795.151L215.508,794.58C439.279,633.175 623.053,637.618 731.282,641.036L754.784,649.196L750.119,672.458C795.637,681.697 838.993,693.099 873.694,713.155L808.748,713.505C808.748,713.505 818.664,716.624 905.1,807.215C849.537,801.313 810.751,792.381 800.235,789.8L815.994,841.104C816.071,846.381 796.407,834.736 744.555,793.551C729.03,828.47 741.561,870.32 778.317,916.075C776.433,917.432 779.381,917.4 778.317,916.075C836.434,874.225 911.916,823.139 1007.346,761.749L1201.112,816.158C1286.49,759.02 1475.318,690.38 1569.348,685.743C1686.722,679.955 1776.48,698.962 1894.9,796.149C1894.905,797.715 1894.907,806.768 1894.907,806.768Z"/>
            </clipPath>
            <g clip-path="url(#_clip1)">
                <path d="M968.336,1029.097C946.125,1014.526 932.259,1003.501 934.137,1000.998L1083.81,1052.289C1086.029,1052.815 1088.231,1053.319 1090.414,1053.801L1090.559,1042.903C1088.159,1033.372 1084.223,1021.131 1087.333,1021.205C1123.562,1022.064 1159.673,1015.705 1187.394,1013.907L1193.764,1013.186L1194.252,1013.556C1195.262,1013.52 1196.258,1013.492 1197.241,1013.473C1203.567,1013.35 1223.777,1032.215 1242.66,1050.254L1282.041,1080.109L1265.862,1000.998L1267.328,1001.458C1267.23,1001.156 1267.178,1000.998 1267.178,1000.998L1292.032,1009.223L1647.207,1120.864L1629.996,1121.078L1647.207,1126.775L1172.27,1126.775C1151.139,1124.178 1118.044,1110.975 1083.169,1094.015C1040.768,1075.675 1002.235,1054.24 968.336,1029.097ZM39.237,860.737L181.637,1014.067L179.181,950.111L488.981,1126.074L284.828,1126.775L203.478,1054.31C162.45,1031.853 91.518,1011.446 39.237,993.912L39.237,860.737ZM39.237,860.737L39.237,795.455C91.044,808.243 73.416,740.589 170.497,789.771C233.414,821.645 317.976,887.564 317.976,887.564C317.976,887.564 289.762,898.294 271.424,912.332C266.932,915.77 185.011,807.098 182.361,810.95C177.593,817.881 253.894,936.517 252.968,934.397C128.493,896.037 136.694,866.926 39.237,860.737ZM1201.112,816.158C1286.49,759.02 1475.318,690.38 1569.348,685.743C1686.722,679.955 1776.48,698.962 1894.9,796.149C1894.961,814.681 1894.9,994.772 1894.9,994.772L1845.184,943.128L1800.987,956.397C1726.487,917.523 1699.43,891.821 1618.488,843.283C1665.514,931.342 1711.748,978.442 1789.795,1029.9L1894.9,1029.581L1894.598,1126.775C1894.598,1126.775 1715.053,1114.932 1618.048,1085.589C1618.048,1085.589 1384.657,1000.508 1242.285,940.93C1150.212,928.809 1029.112,970.645 1029.112,970.645C1074.963,972.715 1140.81,969.16 1136.955,985.21L1026.991,1000.998L881.967,924.572L1107.4,887.703L1169.491,924.112L1231.162,871.974L1358.365,947.28L1334.082,840.149L1386.521,865.246L1374.18,835.578L1559.853,872.442L1535.293,790.717C1619.403,795.137 1695.299,826.441 1760.847,891.61L1751.525,852.257C1750.403,816.76 1701.526,781.263 1634.116,745.766C1717.109,744.516 1798.688,772.956 1879.672,813.884C1664.58,611.325 1280.791,780.028 1203.959,816.957L1204.474,817.102C1204.474,817.102 1202.779,817.793 1199.632,819.055C1193.581,822.013 1190.354,823.705 1190.354,823.705C1191.3,823.007 1192.262,822.307 1193.242,821.604C1145.451,840.582 958.648,912.909 896.472,909.275C858.525,907.058 836.041,883.383 836.041,883.383C888.667,862.774 959.975,803.381 1007.346,761.749L1201.112,816.158ZM1428.456,876.092C1475.909,942.983 1528.843,1006.351 1599.944,1058.039L1733.943,1019.59C1733.943,1019.59 1630.368,1015.853 1584.706,994.404C1533.791,970.488 1467.596,882.687 1428.456,876.092ZM815.789,843.302C815.789,843.302 799.96,837.559 744.555,793.551C706.902,878.242 834.284,1003.703 1072.035,1126.775C994.936,1123.982 884.421,1081.506 784.626,1022.51C780.68,1021.358 850.971,1017.426 850.971,1017.426C849.566,1001.504 747.479,975.109 742.931,988.984C690.921,932.487 611.757,835.58 611.757,835.58C611.757,835.58 701.338,995.468 690.424,989.887C588.185,937.613 505.625,864.532 505.625,864.532C505.625,864.532 516.47,912.286 512.695,940.502L387.091,813.794C442.182,765.592 522.779,769.533 586.998,799.276C583.21,767.005 576.976,779.208 564.49,759.299C606.82,759.15 657.724,771.247 705.313,806.022C714.383,775.005 695.47,735.196 695.47,735.196L863.561,784.655C862.805,768.018 773.721,697.294 727.336,682.486L744.853,654.44C534.995,641.15 406.087,710.709 246.93,806.479L215.508,794.58C439.279,633.175 623.053,637.618 731.282,641.036L754.784,649.196L750.119,672.458C795.637,681.697 838.993,693.099 873.694,713.155L808.748,713.505C808.748,713.505 818.664,716.624 905.1,807.215C839.567,800.254 797.371,789.078 797.371,789.078L815.789,843.302ZM39.237,1028.516C78.377,1035.11 115.176,1079.081 135.37,1088.933C170.992,1106.31 252.968,1126.775 252.968,1126.775L39.237,1126.775L39.237,1028.516ZM285.422,934.397L333.195,898.878C333.195,898.878 433.042,975.967 512.695,1103.117C512.695,1103.117 409.889,1055.418 394.533,1055.418L285.422,934.397ZM549.326,1126.775L423.258,934.397C513.958,999.15 731.793,1126.775 731.793,1126.775L549.326,1126.775ZM629.666,990.954L896.472,1126.775L738.127,1126.775L629.666,990.954Z" style="fill:rgb(151,138,116);"/>
                <clipPath id="_clip2">
                    <path d="M968.336,1029.097C946.125,1014.526 932.259,1003.501 934.137,1000.998L1083.81,1052.289C1086.029,1052.815 1088.231,1053.319 1090.414,1053.801L1090.559,1042.903C1088.159,1033.372 1084.223,1021.131 1087.333,1021.205C1123.562,1022.064 1159.673,1015.705 1187.394,1013.907L1193.764,1013.186L1194.252,1013.556C1195.262,1013.52 1196.258,1013.492 1197.241,1013.473C1203.567,1013.35 1223.777,1032.215 1242.66,1050.254L1282.041,1080.109L1265.862,1000.998L1267.328,1001.458C1267.23,1001.156 1267.178,1000.998 1267.178,1000.998L1292.032,1009.223L1647.207,1120.864L1629.996,1121.078L1647.207,1126.775L1172.27,1126.775C1151.139,1124.178 1118.044,1110.975 1083.169,1094.015C1040.768,1075.675 1002.235,1054.24 968.336,1029.097ZM39.237,860.737L181.637,1014.067L179.181,950.111L488.981,1126.074L284.828,1126.775L203.478,1054.31C162.45,1031.853 91.518,1011.446 39.237,993.912L39.237,860.737ZM39.237,860.737L39.237,795.455C91.044,808.243 73.416,740.589 170.497,789.771C233.414,821.645 317.976,887.564 317.976,887.564C317.976,887.564 289.762,898.294 271.424,912.332C266.932,915.77 185.011,807.098 182.361,810.95C177.593,817.881 253.894,936.517 252.968,934.397C128.493,896.037 136.694,866.926 39.237,860.737ZM1201.112,816.158C1286.49,759.02 1475.318,690.38 1569.348,685.743C1686.722,679.955 1776.48,698.962 1894.9,796.149C1894.961,814.681 1894.9,994.772 1894.9,994.772L1845.184,943.128L1800.987,956.397C1726.487,917.523 1699.43,891.821 1618.488,843.283C1665.514,931.342 1711.748,978.442 1789.795,1029.9L1894.9,1029.581L1894.598,1126.775C1894.598,1126.775 1715.053,1114.932 1618.048,1085.589C1618.048,1085.589 1384.657,1000.508 1242.285,940.93C1150.212,928.809 1029.112,970.645 1029.112,970.645C1074.963,972.715 1140.81,969.16 1136.955,985.21L1026.991,1000.998L881.967,924.572L1107.4,887.703L1169.491,924.112L1231.162,871.974L1358.365,947.28L1334.082,840.149L1386.521,865.246L1374.18,835.578L1559.853,872.442L1535.293,790.717C1619.403,795.137 1695.299,826.441 1760.847,891.61L1751.525,852.257C1750.403,816.76 1701.526,781.263 1634.116,745.766C1717.109,744.516 1798.688,772.956 1879.672,813.884C1664.58,611.325 1280.791,780.028 1203.959,816.957L1204.474,817.102C1204.474,817.102 1202.779,817.793 1199.632,819.055C1193.581,822.013 1190.354,823.705 1190.354,823.705C1191.3,823.007 1192.262,822.307 1193.242,821.604C1145.451,840.582 958.648,912.909 896.472,909.275C858.525,907.058 836.041,883.383 836.041,883.383C888.667,862.774 959.975,803.381 1007.346,761.749L1201.112,816.158ZM1428.456,876.092C1475.909,942.983 1528.843,1006.351 1599.944,1058.039L1733.943,1019.59C1733.943,1019.59 1630.368,1015.853 1584.706,994.404C1533.791,970.488 1467.596,882.687 1428.456,876.092ZM815.789,843.302C815.789,843.302 799.96,837.559 744.555,793.551C706.902,878.242 834.284,1003.703 1072.035,1126.775C994.936,1123.982 884.421,1081.506 784.626,1022.51C780.68,1021.358 850.971,1017.426 850.971,1017.426C849.566,1001.504 747.479,975.109 742.931,988.984C690.921,932.487 611.757,835.58 611.757,835.58C611.757,835.58 701.338,995.468 690.424,989.887C588.185,937.613 505.625,864.532 505.625,864.532C505.625,864.532 516.47,912.286 512.695,940.502L387.091,813.794C442.182,765.592 522.779,769.533 586.998,799.276C583.21,767.005 576.976,779.208 564.49,759.299C606.82,759.15 657.724,771.247 705.313,806.022C714.383,775.005 695.47,735.196 695.47,735.196L863.561,784.655C862.805,768.018 773.721,697.294 727.336,682.486L744.853,654.44C534.995,641.15 406.087,710.709 246.93,806.479L215.508,794.58C439.279,633.175 623.053,637.618 731.282,641.036L754.784,649.196L750.119,672.458C795.637,681.697 838.993,693.099 873.694,713.155L808.748,713.505C808.748,713.505 818.664,716.624 905.1,807.215C839.567,800.254 797.371,789.078 797.371,789.078L815.789,843.302ZM39.237,1028.516C78.377,1035.11 115.176,1079.081 135.37,1088.933C170.992,1106.31 252.968,1126.775 252.968,1126.775L39.237,1126.775L39.237,1028.516ZM285.422,934.397L333.195,898.878C333.195,898.878 433.042,975.967 512.695,1103.117C512.695,1103.117 409.889,1055.418 394.533,1055.418L285.422,934.397ZM549.326,1126.775L423.258,934.397C513.958,999.15 731.793,1126.775 731.793,1126.775L549.326,1126.775ZM629.666,990.954L896.472,1126.775L738.127,1126.775L629.666,990.954Z"/>
                </clipPath>
                <g clip-path="url(#_clip2)">
                    <g transform="matrix(1,0,0,1,-0.290781,15.699051)">
                        <path d="M968.336,1029.097C946.125,1014.526 932.259,1003.501 934.137,1000.998L1083.81,1052.289C1086.029,1052.815 1088.231,1053.319 1090.414,1053.801L1090.559,1042.903C1088.159,1033.372 1084.223,1021.131 1087.333,1021.205C1123.562,1022.064 1159.673,1015.705 1187.394,1013.907L1193.764,1013.186L1194.252,1013.556C1195.262,1013.52 1196.258,1013.492 1197.241,1013.473C1203.567,1013.35 1223.777,1032.215 1242.66,1050.254L1282.041,1080.109L1265.862,1000.998L1267.328,1001.458C1267.23,1001.156 1267.178,1000.998 1267.178,1000.998L1292.032,1009.223L1647.207,1120.864L1629.996,1121.078L1647.207,1126.775L1172.27,1126.775C1151.139,1124.178 1118.044,1110.975 1083.169,1094.015C1040.768,1075.675 1002.235,1054.24 968.336,1029.097ZM39.237,860.737L181.637,1014.067L179.181,950.111L488.981,1126.074L284.828,1126.775L203.478,1054.31C162.45,1031.853 91.518,1011.446 39.237,993.912L39.237,860.737ZM39.237,860.737L39.237,795.455C91.044,808.243 73.416,740.589 170.497,789.771C233.414,821.645 317.976,887.564 317.976,887.564C317.976,887.564 289.762,898.294 271.424,912.332C266.932,915.77 185.011,807.098 182.361,810.95C177.593,817.881 253.894,936.517 252.968,934.397C128.493,896.037 136.694,866.926 39.237,860.737ZM1201.112,816.158C1286.49,759.02 1475.318,690.38 1569.348,685.743C1686.722,679.955 1776.48,698.962 1894.9,796.149C1894.961,814.681 1894.9,994.772 1894.9,994.772L1845.184,943.128L1800.987,956.397C1726.487,917.523 1699.43,891.821 1618.488,843.283C1665.514,931.342 1711.748,978.442 1789.795,1029.9L1894.9,1029.581L1894.598,1126.775C1894.598,1126.775 1715.053,1114.932 1618.048,1085.589C1618.048,1085.589 1384.657,1000.508 1242.285,940.93C1150.212,928.809 1029.112,970.645 1029.112,970.645C1074.963,972.715 1140.81,969.16 1136.955,985.21L1026.991,1000.998L881.967,924.572L1107.4,887.703L1169.491,924.112L1231.162,871.974L1358.365,947.28L1334.082,840.149L1386.521,865.246L1374.18,835.578L1559.853,872.442L1535.293,790.717C1619.403,795.137 1695.299,826.441 1760.847,891.61L1751.525,852.257C1750.403,816.76 1701.526,781.263 1634.116,745.766C1717.109,744.516 1798.688,772.956 1879.672,813.884C1664.58,611.325 1280.791,780.028 1203.959,816.957L1204.474,817.102C1204.474,817.102 1202.779,817.793 1199.632,819.055C1193.581,822.013 1190.354,823.705 1190.354,823.705C1191.3,823.007 1192.262,822.307 1193.242,821.604C1145.451,840.582 958.648,912.909 896.472,909.275C858.525,907.058 836.041,883.383 836.041,883.383C888.667,862.774 959.975,803.381 1007.346,761.749L1201.112,816.158ZM1428.456,876.092C1475.909,942.983 1528.843,1006.351 1599.944,1058.039L1733.943,1019.59C1733.943,1019.59 1630.368,1015.853 1584.706,994.404C1533.791,970.488 1467.596,882.687 1428.456,876.092ZM815.789,843.302C815.789,843.302 799.96,837.559 744.555,793.551C706.902,878.242 834.284,1003.703 1072.035,1126.775C994.936,1123.982 884.421,1081.506 784.626,1022.51C780.68,1021.358 850.971,1017.426 850.971,1017.426C849.566,1001.504 747.479,975.109 742.931,988.984C690.921,932.487 611.757,835.58 611.757,835.58C611.757,835.58 701.338,995.468 690.424,989.887C588.185,937.613 505.625,864.532 505.625,864.532C505.625,864.532 516.47,912.286 512.695,940.502L387.091,813.794C442.182,765.592 522.779,769.533 586.998,799.276C583.21,767.005 576.976,779.208 564.49,759.299C606.82,759.15 657.724,771.247 705.313,806.022C714.383,775.005 695.47,735.196 695.47,735.196L863.561,784.655C862.805,768.018 773.721,697.294 727.336,682.486L744.853,654.44C534.995,641.15 406.087,710.709 246.93,806.479L215.508,794.58C439.279,633.175 623.053,637.618 731.282,641.036L754.784,649.196L750.119,672.458C795.637,681.697 838.993,693.099 873.694,713.155L808.748,713.505C808.748,713.505 818.664,716.624 905.1,807.215C839.567,800.254 797.371,789.078 797.371,789.078L815.789,843.302ZM39.237,1028.516C78.377,1035.11 115.176,1079.081 135.37,1088.933C170.992,1106.31 252.968,1126.775 252.968,1126.775L39.237,1126.775L39.237,1028.516ZM285.422,934.397L333.195,898.878C333.195,898.878 433.042,975.967 512.695,1103.117C512.695,1103.117 409.889,1055.418 394.533,1055.418L285.422,934.397ZM549.326,1126.775L423.258,934.397C513.958,999.15 731.793,1126.775 731.793,1126.775L549.326,1126.775ZM629.666,990.954L896.472,1126.775L738.127,1126.775L629.666,990.954Z" style="fill-opacity:0.1;"/>
                    </g>
                </g>
            </g>
        </g>
    </g>
</svg>
