<?xml version="1.0" encoding="UTF-8" standalone="no"?>
<!DOCTYPE svg PUBLIC "-//W3C//DTD SVG 1.1//EN" "http://www.w3.org/Graphics/SVG/1.1/DTD/svg11.dtd">
<svg width="100%" height="100%" viewBox="0 0 4096 2048" version="1.1" xmlns="http://www.w3.org/2000/svg" xmlns:xlink="http://www.w3.org/1999/xlink" xml:space="preserve" xmlns:serif="http://www.serif.com/" style="fill-rule:evenodd;clip-rule:evenodd;stroke-linejoin:round;stroke-miterlimit:2;">
    <g>
        <g transform="matrix(2.206919,0,0,2.206919,-85.906169,-917.873272)">
            <path d="M49.121,797.023C46.122,796.847 42.557,796.601 38.946,795.71C38.946,795.71 42.926,796.053 49.121,797.023ZM1894.907,806.768L1894.636,1126.775L38.946,1126.775L38.946,883.383L39.237,883.383L39.237,848.956C39.237,848.956 38.105,812.207 38.946,795.71C78.682,807.154 113.053,820.347 157.284,821.159C381.055,659.754 605.811,656.756 732.944,639.561C799.971,630.495 941.056,708.447 975.757,728.503L878.684,738.711L906.066,826.854C906.066,826.854 802.014,780.319 791.498,777.738L828.21,865.039C828.288,870.316 837.786,888.936 836.722,887.611C894.839,845.761 920.434,834.82 1015.865,773.43L1204.887,827.127C1290.264,769.989 1399.822,712.154 1493.852,707.517C1611.226,701.728 1820.027,687.581 1894.9,796.149C1894.905,797.715 1894.907,806.768 1894.907,806.768Z" style="fill:rgb(165,151,127);"/>
            <clipPath id="_clip1">
                <path d="M49.121,797.023C46.122,796.847 42.557,796.601 38.946,795.71C38.946,795.71 42.926,796.053 49.121,797.023ZM1894.907,806.768L1894.636,1126.775L38.946,1126.775L38.946,883.383L39.237,883.383L39.237,848.956C39.237,848.956 38.105,812.207 38.946,795.71C78.682,807.154 113.053,820.347 157.284,821.159C381.055,659.754 605.811,656.756 732.944,639.561C799.971,630.495 941.056,708.447 975.757,728.503L878.684,738.711L906.066,826.854C906.066,826.854 802.014,780.319 791.498,777.738L828.21,865.039C828.288,870.316 837.786,888.936 836.722,887.611C894.839,845.761 920.434,834.82 1015.865,773.43L1204.887,827.127C1290.264,769.989 1399.822,712.154 1493.852,707.517C1611.226,701.728 1820.027,687.581 1894.9,796.149C1894.905,797.715 1894.907,806.768 1894.907,806.768Z"/>
            </clipPath>
            <g clip-path="url(#_clip1)">
                <g transform="matrix(1,0,0,1,-0.290781,7.21522)">
                    <path d="M159.464,818.748L157.797,817.867C381.568,656.462 623.053,637.618 731.282,641.036C731.282,641.036 818.17,629.008 953.736,718.55L867.566,727.637C867.566,727.637 885.443,748.206 896.981,805.29C888.87,812.495 835.961,769.145 791.03,760.585C777.243,767.247 774.621,849.258 926.362,979.336C759.075,968.325 680.546,857.552 646.512,809.853C646.512,809.853 744.445,1028.213 796.552,1107.003C745.272,1113.164 596.379,924.596 566.359,865.943C578.317,930.144 611.54,990.091 670.588,1044.874C531.755,1014.161 464.114,884.275 464.114,884.275C464.114,884.275 471.615,934.054 467.84,962.27L401.326,926.116L336.467,812.782C405.733,785.335 471.648,795.857 535.868,825.6C532.08,793.329 504.584,772.121 475.392,751.705C531.39,734.344 582.8,745.429 630.389,780.203C639.46,749.187 635.734,736.715 635.734,736.715L749.657,765.418C748.901,748.781 769.672,710.456 723.286,695.648L904.318,708.101C633.746,579.705 400.343,748.391 241.326,845.974C305.75,890.83 390.874,986.28 390.874,986.28L680.069,1118.169L415.613,1111.9L279.397,977.987L397.143,1019.452C238.75,867.695 136.694,914.314 39.237,908.125L39.237,789.078C77.702,809.991 122.922,814.635 159.464,818.748ZM39.237,908.125L160.172,1012.043L147.591,932.292L213.993,953.953L394.998,1115.06C279.54,1116.385 217.903,1067.73 217.903,1067.73L167.535,1052.792C126.507,1030.334 91.518,1005.235 39.237,987.7L39.237,908.125ZM1126.216,933.462C1144.23,919.712 1036.469,911.74 1036.469,911.74L1249.379,851.582L1126.216,933.462ZM1126.216,933.462C1125.812,933.771 1125.344,934.082 1124.81,934.397L1126.216,933.462ZM865.908,885.794L1090.471,954.38C1024.764,977.549 996.023,987.818 958.596,976.387C921.169,964.956 865.908,885.794 865.908,885.794ZM1849.716,761.099C1651.828,620.227 1213.096,824.693 1213.096,824.693C1292.251,766.24 1378.402,730.383 1463.24,711.663C1468.093,710.592 1460.958,724.713 1465.8,723.754C1636.281,689.969 1776.179,691.788 1894.598,788.975C1894.659,807.506 1894.598,987.432 1894.598,987.432L1845.184,943.128L1803.518,980.443C1729.018,941.57 1690.571,883.721 1648.862,827.589C1668.046,909.32 1711.748,978.442 1789.795,1029.9L1894.598,1022.036L1894.598,1119.704C1894.598,1119.704 1692.272,1112.401 1595.268,1083.057C1595.268,1083.057 1758.167,1047.854 1749.274,1038.828C1657.498,1028.931 1546.358,943.334 1528.308,903.554C1508.735,910.21 1575.068,998.433 1636.388,1036.543C1382.06,1103.309 1430.04,880.145 1167.376,928.673C1185.826,923.384 1300.671,849.261 1300.671,849.261L1466.315,940.571L1421.65,822.831L1573.261,872.19L1574.172,804.388L1748.361,824.676L1696.216,751.374L1849.716,761.099ZM1275.395,967.625L1585.174,1120.231L1231.204,1119.53L1135.999,1011.304C1135.999,1011.304 1302.994,1054.237 1326.437,1047.588C1349.88,1040.939 1272.154,985.559 1275.395,967.625ZM39.237,1022.51C78.377,1029.105 179.514,1086.098 179.514,1086.098L275.647,1120.295L39.237,1120.295L39.237,1022.51ZM289.472,860.737L384.11,915.312C384.11,915.312 374.958,930.386 359.603,930.386L289.472,860.737ZM1019.369,773.772L1207.006,825.961C1207.006,825.961 1047.422,891.94 991.079,898.518C953.324,902.925 868.946,865.425 868.946,865.425C921.573,844.816 971.998,815.404 1019.369,773.772ZM881.418,1117.576L739.151,950.948C829.851,1015.701 1090.716,1120.295 1090.716,1120.295L881.418,1117.576ZM868.666,1004.649L1095.876,1012.185L1166.847,1117.763L868.666,1004.649Z" style="fill:rgb(151,138,116);"/>
                    <clipPath id="_clip2">
                        <path d="M159.464,818.748L157.797,817.867C381.568,656.462 623.053,637.618 731.282,641.036C731.282,641.036 818.17,629.008 953.736,718.55L867.566,727.637C867.566,727.637 885.443,748.206 896.981,805.29C888.87,812.495 835.961,769.145 791.03,760.585C777.243,767.247 774.621,849.258 926.362,979.336C759.075,968.325 680.546,857.552 646.512,809.853C646.512,809.853 744.445,1028.213 796.552,1107.003C745.272,1113.164 596.379,924.596 566.359,865.943C578.317,930.144 611.54,990.091 670.588,1044.874C531.755,1014.161 464.114,884.275 464.114,884.275C464.114,884.275 471.615,934.054 467.84,962.27L401.326,926.116L336.467,812.782C405.733,785.335 471.648,795.857 535.868,825.6C532.08,793.329 504.584,772.121 475.392,751.705C531.39,734.344 582.8,745.429 630.389,780.203C639.46,749.187 635.734,736.715 635.734,736.715L749.657,765.418C748.901,748.781 769.672,710.456 723.286,695.648L904.318,708.101C633.746,579.705 400.343,748.391 241.326,845.974C305.75,890.83 390.874,986.28 390.874,986.28L680.069,1118.169L415.613,1111.9L279.397,977.987L397.143,1019.452C238.75,867.695 136.694,914.314 39.237,908.125L39.237,789.078C77.702,809.991 122.922,814.635 159.464,818.748ZM39.237,908.125L160.172,1012.043L147.591,932.292L213.993,953.953L394.998,1115.06C279.54,1116.385 217.903,1067.73 217.903,1067.73L167.535,1052.792C126.507,1030.334 91.518,1005.235 39.237,987.7L39.237,908.125ZM1126.216,933.462C1144.23,919.712 1036.469,911.74 1036.469,911.74L1249.379,851.582L1126.216,933.462ZM1126.216,933.462C1125.812,933.771 1125.344,934.082 1124.81,934.397L1126.216,933.462ZM865.908,885.794L1090.471,954.38C1024.764,977.549 996.023,987.818 958.596,976.387C921.169,964.956 865.908,885.794 865.908,885.794ZM1849.716,761.099C1651.828,620.227 1213.096,824.693 1213.096,824.693C1292.251,766.24 1378.402,730.383 1463.24,711.663C1468.093,710.592 1460.958,724.713 1465.8,723.754C1636.281,689.969 1776.179,691.788 1894.598,788.975C1894.659,807.506 1894.598,987.432 1894.598,987.432L1845.184,943.128L1803.518,980.443C1729.018,941.57 1690.571,883.721 1648.862,827.589C1668.046,909.32 1711.748,978.442 1789.795,1029.9L1894.598,1022.036L1894.598,1119.704C1894.598,1119.704 1692.272,1112.401 1595.268,1083.057C1595.268,1083.057 1758.167,1047.854 1749.274,1038.828C1657.498,1028.931 1546.358,943.334 1528.308,903.554C1508.735,910.21 1575.068,998.433 1636.388,1036.543C1382.06,1103.309 1430.04,880.145 1167.376,928.673C1185.826,923.384 1300.671,849.261 1300.671,849.261L1466.315,940.571L1421.65,822.831L1573.261,872.19L1574.172,804.388L1748.361,824.676L1696.216,751.374L1849.716,761.099ZM1275.395,967.625L1585.174,1120.231L1231.204,1119.53L1135.999,1011.304C1135.999,1011.304 1302.994,1054.237 1326.437,1047.588C1349.88,1040.939 1272.154,985.559 1275.395,967.625ZM39.237,1022.51C78.377,1029.105 179.514,1086.098 179.514,1086.098L275.647,1120.295L39.237,1120.295L39.237,1022.51ZM289.472,860.737L384.11,915.312C384.11,915.312 374.958,930.386 359.603,930.386L289.472,860.737ZM1019.369,773.772L1207.006,825.961C1207.006,825.961 1047.422,891.94 991.079,898.518C953.324,902.925 868.946,865.425 868.946,865.425C921.573,844.816 971.998,815.404 1019.369,773.772ZM881.418,1117.576L739.151,950.948C829.851,1015.701 1090.716,1120.295 1090.716,1120.295L881.418,1117.576ZM868.666,1004.649L1095.876,1012.185L1166.847,1117.763L868.666,1004.649Z"/>
                    </clipPath>
                    <g clip-path="url(#_clip2)">
                        <g transform="matrix(1,0,0,1,0.010608,17.828405)">
                            <path d="M159.464,818.748L157.797,817.867C381.568,656.462 623.053,637.618 731.282,641.036C731.282,641.036 818.17,629.008 953.736,718.55L867.566,727.637C867.566,727.637 885.443,748.206 896.981,805.29C888.87,812.495 835.961,769.145 791.03,760.585C777.243,767.247 774.621,849.258 926.362,979.336C759.075,968.325 680.546,857.552 646.512,809.853C646.512,809.853 744.445,1028.213 796.552,1107.003C745.272,1113.164 596.379,924.596 566.359,865.943C578.317,930.144 611.54,990.091 670.588,1044.874C531.755,1014.161 464.114,884.275 464.114,884.275C464.114,884.275 471.615,934.054 467.84,962.27L401.326,926.116L336.467,812.782C405.733,785.335 471.648,795.857 535.868,825.6C532.08,793.329 504.584,772.121 475.392,751.705C531.39,734.344 582.8,745.429 630.389,780.203C639.46,749.187 635.734,736.715 635.734,736.715L749.657,765.418C748.901,748.781 769.672,710.456 723.286,695.648L904.318,708.101C633.746,579.705 400.343,748.391 241.326,845.974C305.75,890.83 390.874,986.28 390.874,986.28L680.069,1118.169L415.613,1111.9L279.397,977.987L397.143,1019.452C238.75,867.695 136.694,914.314 39.237,908.125L39.237,789.078C77.702,809.991 122.922,814.635 159.464,818.748ZM39.237,908.125L160.172,1012.043L147.591,932.292L213.993,953.953L394.998,1115.06C279.54,1116.385 217.903,1067.73 217.903,1067.73L167.535,1052.792C126.507,1030.334 91.518,1005.235 39.237,987.7L39.237,908.125ZM1126.216,933.462C1144.23,919.712 1036.469,911.74 1036.469,911.74L1249.379,851.582L1126.216,933.462ZM1126.216,933.462C1125.812,933.771 1125.344,934.082 1124.81,934.397L1126.216,933.462ZM865.908,885.794L1090.471,954.38C1024.764,977.549 996.023,987.818 958.596,976.387C921.169,964.956 865.908,885.794 865.908,885.794ZM1849.716,761.099C1651.828,620.227 1213.096,824.693 1213.096,824.693C1292.251,766.24 1378.402,730.383 1463.24,711.663C1468.093,710.592 1460.958,724.713 1465.8,723.754C1636.281,689.969 1776.179,691.788 1894.598,788.975C1894.659,807.506 1894.598,987.432 1894.598,987.432L1845.184,943.128L1803.518,980.443C1729.018,941.57 1690.571,883.721 1648.862,827.589C1668.046,909.32 1711.748,978.442 1789.795,1029.9L1894.598,1022.036L1894.598,1119.704C1894.598,1119.704 1692.272,1112.401 1595.268,1083.057C1595.268,1083.057 1758.167,1047.854 1749.274,1038.828C1657.498,1028.931 1546.358,943.334 1528.308,903.554C1508.735,910.21 1575.068,998.433 1636.388,1036.543C1382.06,1103.309 1430.04,880.145 1167.376,928.673C1185.826,923.384 1300.671,849.261 1300.671,849.261L1466.315,940.571L1421.65,822.831L1573.261,872.19L1574.172,804.388L1748.361,824.676L1696.216,751.374L1849.716,761.099ZM1275.395,967.625L1585.174,1120.231L1231.204,1119.53L1135.999,1011.304C1135.999,1011.304 1302.994,1054.237 1326.437,1047.588C1349.88,1040.939 1272.154,985.559 1275.395,967.625ZM39.237,1022.51C78.377,1029.105 179.514,1086.098 179.514,1086.098L275.647,1120.295L39.237,1120.295L39.237,1022.51ZM289.472,860.737L384.11,915.312C384.11,915.312 374.958,930.386 359.603,930.386L289.472,860.737ZM1019.369,773.772L1207.006,825.961C1207.006,825.961 1047.422,891.94 991.079,898.518C953.324,902.925 868.946,865.425 868.946,865.425C921.573,844.816 971.998,815.404 1019.369,773.772ZM881.418,1117.576L739.151,950.948C829.851,1015.701 1090.716,1120.295 1090.716,1120.295L881.418,1117.576ZM868.666,1004.649L1095.876,1012.185L1166.847,1117.763L868.666,1004.649Z" style="fill-opacity:0.1;"/>
                        </g>
                    </g>
                </g>
            </g>
        </g>
    </g>
</svg>
