<?xml version="1.0" encoding="UTF-8" standalone="no"?>
<!DOCTYPE svg PUBLIC "-//W3C//DTD SVG 1.1//EN" "http://www.w3.org/Graphics/SVG/1.1/DTD/svg11.dtd">
<svg width="100%" height="100%" viewBox="0 0 4096 2048" version="1.1" xmlns="http://www.w3.org/2000/svg" xmlns:xlink="http://www.w3.org/1999/xlink" xml:space="preserve" xmlns:serif="http://www.serif.com/" style="fill-rule:evenodd;clip-rule:evenodd;stroke-linejoin:round;stroke-miterlimit:2;">
    <g>
        <g transform="matrix(2.206919,0,0,2.206919,-85.906169,-917.873272)">
            <path d="M1894.907,806.768L1894.636,1126.775L38.946,1126.775L38.946,883.383L39.237,883.383L39.237,848.956C39.237,848.956 38.105,812.207 38.946,795.71C85.773,811.2 113.455,822.498 212.807,830.596C244.823,818.757 582.612,629.998 694.942,633.304C694.942,633.304 882.239,645.046 955.353,663.685C1018.662,679.824 1133.628,745.139 1133.628,745.139L1018.48,762.368C1074.677,787.395 1069.388,783.298 1031.472,805.024C1042.053,808.403 1031.642,825.756 1031.642,825.756L936.066,806.215C928.348,846.104 954.227,862.462 974.709,884.104C995.822,906.414 1033.615,836.483 1173.549,825.784C1220.913,827.958 1277.559,838.284 1344.346,862.033C1413.314,791.896 1722.047,633.395 1894.9,796.149C1894.905,797.715 1894.907,806.768 1894.907,806.768Z" style="fill:rgb(165,151,127);"/>
            <clipPath id="_clip1">
                <path d="M1894.907,806.768L1894.636,1126.775L38.946,1126.775L38.946,883.383L39.237,883.383L39.237,848.956C39.237,848.956 38.105,812.207 38.946,795.71C85.773,811.2 113.455,822.498 212.807,830.596C244.823,818.757 582.612,629.998 694.942,633.304C694.942,633.304 882.239,645.046 955.353,663.685C1018.662,679.824 1133.628,745.139 1133.628,745.139L1018.48,762.368C1074.677,787.395 1069.388,783.298 1031.472,805.024C1042.053,808.403 1031.642,825.756 1031.642,825.756L936.066,806.215C928.348,846.104 954.227,862.462 974.709,884.104C995.822,906.414 1033.615,836.483 1173.549,825.784C1220.913,827.958 1277.559,838.284 1344.346,862.033C1413.314,791.896 1722.047,633.395 1894.9,796.149C1894.905,797.715 1894.907,806.768 1894.907,806.768Z"/>
            </clipPath>
            <g clip-path="url(#_clip1)">
                <g transform="matrix(0.999829,0,0,0.999829,0.351607,9.311006)">
                    <path d="M213.891,829.603L213.148,828.208C528.413,669.692 699.877,605.862 731.282,641.036C733.855,634.603 982.934,644.605 1118.499,734.147L1004.23,753.154C1004.23,753.154 1075.78,786.109 1037.653,786.433C1021.299,786.572 1018.754,810.875 1025.64,813.057C1044.176,818.931 910.826,783.281 932.618,792.306C913.71,837.382 960.427,884.284 1034.758,927.772C1154.361,1049.068 1525.426,1112.837 1525.426,1112.837C1525.426,1112.837 1351.966,1112.99 1152.017,1113.333C1120.028,1113.388 848.718,938.672 809.25,818.729C808.157,814.399 806.99,809.863 805.745,805.112C806.551,809.561 807.728,814.104 809.25,818.729C825.928,884.808 825.466,902.877 825.466,902.877C825.466,902.877 934.278,1041.079 1026.748,1100.696C870.188,1082.713 758.145,1033.992 665.714,971.73L571.608,814.171L739.31,871.907L680.135,738.883C680.135,738.883 785.751,756.333 834.561,796.64L825.11,738.421C885.896,752.813 946.447,770.723 1006.255,799.782L1008.234,778.032C974.682,739.321 914.411,713.609 844.69,692.494L1056.468,718.35C786.16,590.079 409.83,748.67 242.198,845.715C311.197,890.107 413.539,984.31 413.539,984.31L414.549,1016.044L483.417,1064.576C483.417,1064.576 229.582,965.778 155.552,949.361C117.311,940.881 38.919,985.629 38.919,985.629C38.513,921.371 38.477,852.361 38.919,786.973C91.48,826.891 180.612,814.246 213.148,829.258C213.394,829.371 213.642,829.487 213.891,829.603ZM385.02,1112.837L315.894,1041.888L554.628,1099.474C540.844,1074.309 511.389,1044.663 467.07,1023.314C467.07,1023.314 578.35,1005.755 631.678,1018.756C692.876,1033.677 718.099,1095.8 834.26,1112.837L385.02,1112.837ZM1876.655,827.148C1710.932,664.202 1346.611,849.349 1346.611,849.349C1628.792,687.502 1760.173,698.289 1894.598,786.87L1894.598,985.361L1805.283,967.759L1671.118,874.976C1602.255,831.103 1784.119,1002.742 1784.119,1002.742L1645.212,1017.263C1522.01,989.084 1395.295,897.956 1384.515,901.622C1364.941,908.279 1487.404,999.024 1548.725,1037.134C1410.44,1052.185 1280.57,1025.161 1156.024,971.519C1257.893,942.319 1359.763,896.51 1461.632,844.401C1560.599,808.42 1680.684,837.188 1811.429,918.607L1779.465,816.925L1876.655,827.148ZM1894.598,1019.971L1894.598,1117.655C1894.598,1117.655 1724.819,1115.57 1626.715,1106.364C1562.721,1100.36 1521.785,1073.03 1484.303,1070.49C1587.131,1046.781 1836.489,1012.678 1894.598,1019.971ZM38.919,1020.445C130.28,1011.025 246.366,1020.508 246.366,1020.508L357.1,1112.837C357.1,1112.837 113.208,1118.247 38.919,1118.247L38.919,1020.445ZM459.647,812.204C483.96,797.881 510.662,789.587 529.959,790.532C553.841,805.636 602.939,902.824 602.939,902.824L459.647,812.204ZM315.073,872.244L445.887,817.876C536.588,882.629 623.761,948.263 691.499,1018.756C567.171,982.541 441.312,929.482 315.073,872.244ZM1011.356,872.996C1208.223,788.221 1154.056,820.453 1340.262,856.881C1260.758,908.107 1184.443,948.169 1116.393,959.306C1027.816,941.996 1087.496,919.168 1011.356,872.996Z" style="fill:rgb(151,138,116);"/>
                    <clipPath id="_clip2">
                        <path d="M213.891,829.603L213.148,828.208C528.413,669.692 699.877,605.862 731.282,641.036C733.855,634.603 982.934,644.605 1118.499,734.147L1004.23,753.154C1004.23,753.154 1075.78,786.109 1037.653,786.433C1021.299,786.572 1018.754,810.875 1025.64,813.057C1044.176,818.931 910.826,783.281 932.618,792.306C913.71,837.382 960.427,884.284 1034.758,927.772C1154.361,1049.068 1525.426,1112.837 1525.426,1112.837C1525.426,1112.837 1351.966,1112.99 1152.017,1113.333C1120.028,1113.388 848.718,938.672 809.25,818.729C808.157,814.399 806.99,809.863 805.745,805.112C806.551,809.561 807.728,814.104 809.25,818.729C825.928,884.808 825.466,902.877 825.466,902.877C825.466,902.877 934.278,1041.079 1026.748,1100.696C870.188,1082.713 758.145,1033.992 665.714,971.73L571.608,814.171L739.31,871.907L680.135,738.883C680.135,738.883 785.751,756.333 834.561,796.64L825.11,738.421C885.896,752.813 946.447,770.723 1006.255,799.782L1008.234,778.032C974.682,739.321 914.411,713.609 844.69,692.494L1056.468,718.35C786.16,590.079 409.83,748.67 242.198,845.715C311.197,890.107 413.539,984.31 413.539,984.31L414.549,1016.044L483.417,1064.576C483.417,1064.576 229.582,965.778 155.552,949.361C117.311,940.881 38.919,985.629 38.919,985.629C38.513,921.371 38.477,852.361 38.919,786.973C91.48,826.891 180.612,814.246 213.148,829.258C213.394,829.371 213.642,829.487 213.891,829.603ZM385.02,1112.837L315.894,1041.888L554.628,1099.474C540.844,1074.309 511.389,1044.663 467.07,1023.314C467.07,1023.314 578.35,1005.755 631.678,1018.756C692.876,1033.677 718.099,1095.8 834.26,1112.837L385.02,1112.837ZM1876.655,827.148C1710.932,664.202 1346.611,849.349 1346.611,849.349C1628.792,687.502 1760.173,698.289 1894.598,786.87L1894.598,985.361L1805.283,967.759L1671.118,874.976C1602.255,831.103 1784.119,1002.742 1784.119,1002.742L1645.212,1017.263C1522.01,989.084 1395.295,897.956 1384.515,901.622C1364.941,908.279 1487.404,999.024 1548.725,1037.134C1410.44,1052.185 1280.57,1025.161 1156.024,971.519C1257.893,942.319 1359.763,896.51 1461.632,844.401C1560.599,808.42 1680.684,837.188 1811.429,918.607L1779.465,816.925L1876.655,827.148ZM1894.598,1019.971L1894.598,1117.655C1894.598,1117.655 1724.819,1115.57 1626.715,1106.364C1562.721,1100.36 1521.785,1073.03 1484.303,1070.49C1587.131,1046.781 1836.489,1012.678 1894.598,1019.971ZM38.919,1020.445C130.28,1011.025 246.366,1020.508 246.366,1020.508L357.1,1112.837C357.1,1112.837 113.208,1118.247 38.919,1118.247L38.919,1020.445ZM459.647,812.204C483.96,797.881 510.662,789.587 529.959,790.532C553.841,805.636 602.939,902.824 602.939,902.824L459.647,812.204ZM315.073,872.244L445.887,817.876C536.588,882.629 623.761,948.263 691.499,1018.756C567.171,982.541 441.312,929.482 315.073,872.244ZM1011.356,872.996C1208.223,788.221 1154.056,820.453 1340.262,856.881C1260.758,908.107 1184.443,948.169 1116.393,959.306C1027.816,941.996 1087.496,919.168 1011.356,872.996Z"/>
                    </clipPath>
                    <g clip-path="url(#_clip2)">
                        <g transform="matrix(1,0,0,1,0.01061,14.966242)">
                            <path d="M213.891,829.603L213.148,828.208C528.413,669.692 699.877,605.862 731.282,641.036C733.855,634.603 982.934,644.605 1118.499,734.147L1004.23,753.154C1004.23,753.154 1075.78,786.109 1037.653,786.433C1021.299,786.572 1018.754,810.875 1025.64,813.057C1044.176,818.931 910.826,783.281 932.618,792.306C913.71,837.382 960.427,884.284 1034.758,927.772C1154.361,1049.068 1525.426,1112.837 1525.426,1112.837C1525.426,1112.837 1351.966,1112.99 1152.017,1113.333C1120.028,1113.388 848.718,938.672 809.25,818.729C808.157,814.399 806.99,809.863 805.745,805.112C806.551,809.561 807.728,814.104 809.25,818.729C825.928,884.808 825.466,902.877 825.466,902.877C825.466,902.877 934.278,1041.079 1026.748,1100.696C870.188,1082.713 758.145,1033.992 665.714,971.73L571.608,814.171L739.31,871.907L680.135,738.883C680.135,738.883 785.751,756.333 834.561,796.64L825.11,738.421C885.896,752.813 946.447,770.723 1006.255,799.782L1008.234,778.032C974.682,739.321 914.411,713.609 844.69,692.494L1056.468,718.35C786.16,590.079 409.83,748.67 242.198,845.715C311.197,890.107 413.539,984.31 413.539,984.31L414.549,1016.044L483.417,1064.576C483.417,1064.576 229.582,965.778 155.552,949.361C117.311,940.881 38.919,985.629 38.919,985.629C38.513,921.371 38.477,852.361 38.919,786.973C91.48,826.891 180.612,814.246 213.148,829.258C213.394,829.371 213.642,829.487 213.891,829.603ZM385.02,1112.837L315.894,1041.888L554.628,1099.474C540.844,1074.309 511.389,1044.663 467.07,1023.314C467.07,1023.314 578.35,1005.755 631.678,1018.756C692.876,1033.677 718.099,1095.8 834.26,1112.837L385.02,1112.837ZM1876.655,827.148C1710.932,664.202 1346.611,849.349 1346.611,849.349C1628.792,687.502 1760.173,698.289 1894.598,786.87L1894.598,985.361L1805.283,967.759L1671.118,874.976C1602.255,831.103 1784.119,1002.742 1784.119,1002.742L1645.212,1017.263C1522.01,989.084 1395.295,897.956 1384.515,901.622C1364.941,908.279 1487.404,999.024 1548.725,1037.134C1410.44,1052.185 1280.57,1025.161 1156.024,971.519C1257.893,942.319 1359.763,896.51 1461.632,844.401C1560.599,808.42 1680.684,837.188 1811.429,918.607L1779.465,816.925L1876.655,827.148ZM1894.598,1019.971L1894.598,1117.655C1894.598,1117.655 1724.819,1115.57 1626.715,1106.364C1562.721,1100.36 1521.785,1073.03 1484.303,1070.49C1587.131,1046.781 1836.489,1012.678 1894.598,1019.971ZM38.919,1020.445C130.28,1011.025 246.366,1020.508 246.366,1020.508L357.1,1112.837C357.1,1112.837 113.208,1118.247 38.919,1118.247L38.919,1020.445ZM459.647,812.204C483.96,797.881 510.662,789.587 529.959,790.532C553.841,805.636 602.939,902.824 602.939,902.824L459.647,812.204ZM315.073,872.244L445.887,817.876C536.588,882.629 623.761,948.263 691.499,1018.756C567.171,982.541 441.312,929.482 315.073,872.244ZM1011.356,872.996C1208.223,788.221 1154.056,820.453 1340.262,856.881C1260.758,908.107 1184.443,948.169 1116.393,959.306C1027.816,941.996 1087.496,919.168 1011.356,872.996Z" style="fill-opacity:0.1;"/>
                        </g>
                    </g>
                </g>
            </g>
        </g>
    </g>
</svg>
