<?xml version="1.0" encoding="UTF-8" standalone="no"?>
<!DOCTYPE svg PUBLIC "-//W3C//DTD SVG 1.1//EN" "http://www.w3.org/Graphics/SVG/1.1/DTD/svg11.dtd">
<svg width="100%" height="100%" viewBox="0 0 4096 2048" version="1.1" xmlns="http://www.w3.org/2000/svg" xmlns:xlink="http://www.w3.org/1999/xlink" xml:space="preserve" xmlns:serif="http://www.serif.com/" style="fill-rule:evenodd;clip-rule:evenodd;stroke-linejoin:round;stroke-miterlimit:2;">
    <g>
        <g transform="matrix(2.205803,0,0,2.205803,-85.853465,-910.801808)">
            <path d="M1895.556,633.03C1895.561,634.596 1894.636,1126.775 1894.636,1126.775L38.946,1126.775L38.946,883.383L39.237,883.383L39.237,848.956C39.237,848.956 38.081,648.547 38.922,632.05C110.514,618.404 200.992,550.208 202.546,555.607L319.404,570.403L336.235,612.828L500.323,596.177C500.323,596.177 509.836,634.291 540.983,653.887C603.407,693.16 714.314,728.965 740.798,730.902C779.383,733.724 798.31,722.99 821.879,728.034C847.187,733.452 863.406,771.101 863.406,771.101C863.406,771.101 972.421,783.495 1031.388,825.999C1053.594,777.643 1139.493,694.129 1139.493,694.129L1447.943,662.049L1439.398,702.103L1580.323,644.797C1580.323,644.797 1830.139,630.494 1895.556,633.03Z" style="fill:rgb(165,151,127);"/>
            <clipPath id="_clip1">
                <path d="M1895.556,633.03C1895.561,634.596 1894.636,1126.775 1894.636,1126.775L38.946,1126.775L38.946,883.383L39.237,883.383L39.237,848.956C39.237,848.956 38.081,648.547 38.922,632.05C110.514,618.404 200.992,550.208 202.546,555.607L319.404,570.403L336.235,612.828L500.323,596.177C500.323,596.177 509.836,634.291 540.983,653.887C603.407,693.16 714.314,728.965 740.798,730.902C779.383,733.724 798.31,722.99 821.879,728.034C847.187,733.452 863.406,771.101 863.406,771.101C863.406,771.101 972.421,783.495 1031.388,825.999C1053.594,777.643 1139.493,694.129 1139.493,694.129L1447.943,662.049L1439.398,702.103L1580.323,644.797C1580.323,644.797 1830.139,630.494 1895.556,633.03Z"/>
            </clipPath>
            <g clip-path="url(#_clip1)">
                <g transform="matrix(0.924506,0,0,1.084142,-2.324906,-454.010642)">
                    <path d="M1606.658,1253.095C1622.118,1243.014 1826.32,1251.957 1826.32,1251.957L1953.328,1346.79L1821.24,1370.876L1790.758,1436.542L1492.713,1455.413L1513.034,1390.819L1778.904,1370.876L1365.705,1272.278L1377.559,1231.636L1568.918,1187.607C1568.918,1187.607 1599.753,1238.644 1606.658,1253.095C1605.64,1253.76 1605.44,1254.506 1606.173,1255.344C1608.634,1258.157 1608.468,1256.882 1606.658,1253.095ZM1906.245,1072.051L2051.553,1089.789L2051.554,1166.749L2016.318,1168.555L2014.201,1196.942L1848.843,1209.642L1906.245,1072.051ZM44.643,1090.375L301.763,992.955L432.158,1150.445L44.655,1166.937L44.643,1090.375ZM366.452,992.955L459.591,992.955L517.168,1170.766L366.452,992.955ZM44.966,1287.794L316.977,1311.267L250.865,1182.295L530.486,1200.968L633.447,1288.507L177.167,1404.474L328.899,1393.636L353.826,1455.413L44.659,1458.777L44.645,1356.741L235.563,1352.224L44.648,1313.631L44.966,1287.794ZM366.452,1386.049L481.104,1368.709L637.171,1455.413L378.143,1455.413L366.452,1386.049ZM517.168,1342.697L862.602,1286.34L1066.356,1378.463L1093.451,1455.413L730.378,1455.413L517.168,1342.697ZM489.505,982.04L530.689,982.04L576.209,1035.147L805.309,1113.18L881.84,1101.258L906.767,1142.443L1058.499,1170.766L1179.885,1286.34L1043.326,1305.013L856.913,1250.823L673.75,1267.08C628.796,1234.154 553.843,1150.096 553.843,1150.096C553.843,1150.096 505.82,1044.273 489.505,982.04ZM1082.867,1375.11L1304.911,1412.061L1126.084,1318.854L1374.003,1286.34L1470.19,1386.416L1453.933,1455.413L1166.727,1455.413L1082.867,1375.11ZM1252.753,1074.146L1552.491,1041.971L1391.615,1199.461L1337.425,1207.928L1281.821,1267.198L1220.578,1272.278L1147.76,1182.295L1252.753,1074.146ZM1552.491,1091.081L1693.047,1041.971L1848.843,1077.533L1470.19,1170.672L1552.491,1091.081ZM1615.148,1170.672L1823.441,1123.256L1782.799,1218.088L1642.243,1229.942L1615.148,1170.672ZM44.649,1013.467L227.138,944.907L340.287,956.005L366.215,1042.29L297.932,969.447L44.648,1054.089L44.649,1013.467ZM1848.843,1393.719L2051.554,1357.71L2051.558,1458.777L1823.441,1439.78L1848.843,1393.719ZM44.648,1258.921L44.648,1188.049L211.563,1170.766L287.889,1291.651L44.648,1258.921ZM1942.635,1322.323L1903.63,1282.181L2051.554,1187.957L2051.551,1259.212L1989.305,1285.197L2051.547,1288.409L2051.547,1314.203L1942.635,1322.323ZM1902.124,1061.895L1897.682,1036.52L1749.146,1044.588L1698.904,1036.747L1852.435,1013.662L2051.558,1014.043L2051.554,1053.316C2005.52,1056.698 1950.803,1058.512 1902.124,1061.895Z" style="fill:rgb(151,138,116);"/>
                    <clipPath id="_clip2">
                        <path d="M1606.658,1253.095C1622.118,1243.014 1826.32,1251.957 1826.32,1251.957L1953.328,1346.79L1821.24,1370.876L1790.758,1436.542L1492.713,1455.413L1513.034,1390.819L1778.904,1370.876L1365.705,1272.278L1377.559,1231.636L1568.918,1187.607C1568.918,1187.607 1599.753,1238.644 1606.658,1253.095C1605.64,1253.76 1605.44,1254.506 1606.173,1255.344C1608.634,1258.157 1608.468,1256.882 1606.658,1253.095ZM1906.245,1072.051L2051.553,1089.789L2051.554,1166.749L2016.318,1168.555L2014.201,1196.942L1848.843,1209.642L1906.245,1072.051ZM44.643,1090.375L301.763,992.955L432.158,1150.445L44.655,1166.937L44.643,1090.375ZM366.452,992.955L459.591,992.955L517.168,1170.766L366.452,992.955ZM44.966,1287.794L316.977,1311.267L250.865,1182.295L530.486,1200.968L633.447,1288.507L177.167,1404.474L328.899,1393.636L353.826,1455.413L44.659,1458.777L44.645,1356.741L235.563,1352.224L44.648,1313.631L44.966,1287.794ZM366.452,1386.049L481.104,1368.709L637.171,1455.413L378.143,1455.413L366.452,1386.049ZM517.168,1342.697L862.602,1286.34L1066.356,1378.463L1093.451,1455.413L730.378,1455.413L517.168,1342.697ZM489.505,982.04L530.689,982.04L576.209,1035.147L805.309,1113.18L881.84,1101.258L906.767,1142.443L1058.499,1170.766L1179.885,1286.34L1043.326,1305.013L856.913,1250.823L673.75,1267.08C628.796,1234.154 553.843,1150.096 553.843,1150.096C553.843,1150.096 505.82,1044.273 489.505,982.04ZM1082.867,1375.11L1304.911,1412.061L1126.084,1318.854L1374.003,1286.34L1470.19,1386.416L1453.933,1455.413L1166.727,1455.413L1082.867,1375.11ZM1252.753,1074.146L1552.491,1041.971L1391.615,1199.461L1337.425,1207.928L1281.821,1267.198L1220.578,1272.278L1147.76,1182.295L1252.753,1074.146ZM1552.491,1091.081L1693.047,1041.971L1848.843,1077.533L1470.19,1170.672L1552.491,1091.081ZM1615.148,1170.672L1823.441,1123.256L1782.799,1218.088L1642.243,1229.942L1615.148,1170.672ZM44.649,1013.467L227.138,944.907L340.287,956.005L366.215,1042.29L297.932,969.447L44.648,1054.089L44.649,1013.467ZM1848.843,1393.719L2051.554,1357.71L2051.558,1458.777L1823.441,1439.78L1848.843,1393.719ZM44.648,1258.921L44.648,1188.049L211.563,1170.766L287.889,1291.651L44.648,1258.921ZM1942.635,1322.323L1903.63,1282.181L2051.554,1187.957L2051.551,1259.212L1989.305,1285.197L2051.547,1288.409L2051.547,1314.203L1942.635,1322.323ZM1902.124,1061.895L1897.682,1036.52L1749.146,1044.588L1698.904,1036.747L1852.435,1013.662L2051.558,1014.043L2051.554,1053.316C2005.52,1056.698 1950.803,1058.512 1902.124,1061.895Z"/>
                    </clipPath>
                    <g clip-path="url(#_clip2)">
                        <g transform="matrix(1.00016,0,0,1.00016,-0.643356,23.622083)">
                            <path d="M1606.658,1253.095C1622.118,1243.014 1826.32,1251.957 1826.32,1251.957L1953.328,1346.79L1821.24,1370.876L1790.758,1436.542L1492.713,1455.413L1513.034,1390.819L1778.904,1370.876L1365.705,1272.278L1377.559,1231.636L1568.918,1187.607C1568.918,1187.607 1599.753,1238.644 1606.658,1253.095C1605.64,1253.76 1605.44,1254.506 1606.173,1255.344C1608.634,1258.157 1608.468,1256.882 1606.658,1253.095ZM1906.245,1072.051L2051.861,1088.237L2051.866,1165.196L2016.318,1168.555L2014.201,1196.942L1848.843,1209.642L1906.245,1072.051ZM44.652,1088.824L301.763,992.955L432.158,1150.445L44.655,1165.384L44.652,1088.824ZM366.452,992.955L459.591,992.955L517.168,1170.766L366.452,992.955ZM44.966,1286.241L316.977,1311.267L250.865,1182.295L530.486,1200.968L633.447,1288.507L177.167,1404.474L328.899,1393.636L353.826,1455.413L44.652,1457.224L44.652,1355.188L235.563,1352.224L44.655,1312.078L44.966,1286.241ZM366.452,1386.049L481.104,1368.709L637.171,1455.413L378.143,1455.413L366.452,1386.049ZM517.168,1342.697L862.602,1286.34L1066.356,1378.463L1093.451,1455.413L730.378,1455.413L517.168,1342.697ZM489.505,982.04L530.689,982.04L576.209,1035.147L805.309,1113.18L881.84,1101.258L906.767,1142.443L1058.499,1170.766L1179.885,1286.34L1043.326,1305.013L856.913,1250.823L673.75,1267.08C628.796,1234.154 553.843,1150.096 553.843,1150.096C553.843,1150.096 505.82,1044.273 489.505,982.04ZM1082.867,1375.11L1304.911,1412.061L1126.084,1318.854L1374.003,1286.34L1470.19,1386.416L1453.933,1455.413L1166.727,1455.413L1082.867,1375.11ZM1252.753,1074.146L1552.491,1041.971L1391.615,1199.461L1337.425,1207.928L1281.821,1267.198L1220.578,1272.278L1147.76,1182.295L1252.753,1074.146ZM1552.491,1091.081L1693.047,1041.971L1848.843,1077.533L1470.19,1170.672L1552.491,1091.081ZM1615.148,1170.672L1823.441,1123.256L1782.799,1218.088L1642.243,1229.942L1615.148,1170.672ZM44.649,1013.467L227.138,944.907L340.287,956.005L366.215,1042.29L297.932,969.447L44.651,1052.533L44.649,1013.467ZM1848.843,1393.719L2051.862,1356.158L2051.866,1457.224L1823.441,1439.78L1848.843,1393.719ZM44.648,1257.371L44.648,1186.483L211.563,1170.766L287.889,1291.651L44.648,1257.371ZM1942.635,1322.323L1903.63,1282.181L2051.858,1186.404L2051.858,1257.66L1989.305,1285.197L2051.862,1286.856L2051.862,1312.651L1942.635,1322.323ZM1902.124,1061.895L1897.682,1036.52L1749.146,1044.588L1698.904,1036.747L1852.435,1013.662L2051.857,1012.49L2051.866,1051.763C2005.831,1055.145 1950.803,1058.512 1902.124,1061.895Z" style="fill-opacity:0.1;"/>
                        </g>
                    </g>
                </g>
            </g>
        </g>
        <g id="mid-waves-3" serif:id="mid waves 3">
        </g>
    </g>
</svg>
