<?xml version="1.0" encoding="UTF-8" standalone="no"?>
<!DOCTYPE svg PUBLIC "-//W3C//DTD SVG 1.1//EN" "http://www.w3.org/Graphics/SVG/1.1/DTD/svg11.dtd">
<svg width="100%" height="100%" viewBox="0 0 4096 2048" version="1.1" xmlns="http://www.w3.org/2000/svg" xmlns:xlink="http://www.w3.org/1999/xlink" xml:space="preserve" xmlns:serif="http://www.serif.com/" style="fill-rule:evenodd;clip-rule:evenodd;stroke-linejoin:round;stroke-miterlimit:2;">
    <g>
        <g transform="matrix(2.206893,0,0,2.206893,-85.263394,-913.652818)">
            <path d="M1894.352,634.033L1894.636,1126.775L38.946,1126.775L38.946,883.383L39.237,883.383L39.237,848.956C39.237,848.956 37.794,649.527 38.635,633.03C127.113,679.854 178.121,717.162 178.121,717.162L179.93,676.391L239.567,685.682L336.268,668.054L515.18,639.714L615.494,725.182L707.513,749.939L717.394,760.817L907.086,834.312C915.395,826.003 943.526,799.912 943.526,799.912L1000.044,827.593L1128.814,783.788L1092.044,855.668L1190.028,813.691L1165.37,739.323L1262.782,707.51L1270.819,718.611L1388.417,678.11L1570.949,672.752L1596.287,692.033L1894.352,634.033Z" style="fill:rgb(165,151,127);"/>
            <clipPath id="_clip1">
                <path d="M1894.352,634.033L1894.636,1126.775L38.946,1126.775L38.946,883.383L39.237,883.383L39.237,848.956C39.237,848.956 37.794,649.527 38.635,633.03C127.113,679.854 178.121,717.162 178.121,717.162L179.93,676.391L239.567,685.682L336.268,668.054L515.18,639.714L615.494,725.182L707.513,749.939L717.394,760.817L907.086,834.312C915.395,826.003 943.526,799.912 943.526,799.912L1000.044,827.593L1128.814,783.788L1092.044,855.668L1190.028,813.691L1165.37,739.323L1262.782,707.51L1270.819,718.611L1388.417,678.11L1570.949,672.752L1596.287,692.033L1894.352,634.033Z"/>
            </clipPath>
            <g clip-path="url(#_clip1)">
                <g transform="matrix(0.962143,0,0,1.059719,4.28388,-154.768612)">
                    <path d="M1700.222,1068.553L1607.153,985.411L1720.076,925.351L1806.941,925.351L1773.436,1009.535L1700.222,1068.553ZM1700.222,1068.553C1665.313,1092.38 1607.317,1105.945 1535.18,1113.226L1473.134,1052.967L1546.348,1009.535L1700.222,1068.553ZM36.028,833.126L172.008,927.09L36.033,911.452L36.028,833.126ZM36.029,933.05L188.101,952.49L267.209,989.717L128.21,972.039L36.026,1005.558L36.029,933.05ZM229.546,1015.104L273.414,1040.905L36.033,1061.526L36.331,1035.094L148.261,993.098L229.546,1015.104ZM36.029,1105.63L159.471,1082.428L273.414,1059.519L329.255,1096.746L188.101,1146.383L123.215,1209.135L36.029,1210.017L36.029,1105.63ZM172.008,1208.429L347.869,1133.974L453.347,1208.429L172.008,1208.429ZM36.028,796L36.029,756.034L172.008,833.021L187.616,913.711L36.028,796ZM301.36,884.957L341.863,877.7L393.485,955.53L349.805,966.649L301.36,884.957ZM353.776,1024L426.841,1024L553.117,1146.135L530.086,1076.247L703.218,1082.6L781.843,1208.429L652.39,1208.429L613.475,1133.974L626.976,1208.429L596.003,1208.429L493.553,1149.312L453.347,1145.608L331.539,1069.099L294.063,1024L347.422,1059.519L353.776,1024ZM264.033,796.913L507.848,759.366L434.783,856.257L329.156,856.257L264.033,796.913ZM460.991,856.257L527.703,759.366L622.211,828.46L608.71,864.993L460.991,856.257ZM661.921,856.257C672.245,850.697 722.279,856.257 722.279,856.257L758.017,936.47L701.63,895.172L672.245,895.966C672.245,895.966 651.596,861.816 661.921,856.257ZM622.211,884.957L708.524,1053.215L534.851,1024L622.211,884.957ZM742.134,1106.426L908.119,1205.699L802.492,1204.905L742.134,1106.426ZM685.151,936.47C850.951,968.428 974.025,1009.541 1024,1066.319L834.061,1079.225L685.151,936.47ZM936.312,969.086L972.901,909.467L1036.579,936.47L1153.721,895.128L1074.303,1007.847C1011.345,1018.248 966.179,1004.186 936.312,969.086ZM869.799,1106.426L981.978,1098.087L1137.838,1205.699L950.211,1205.699L869.799,1106.426ZM1111.034,1156.062L1251.009,1151.893L1328.443,1205.699L1182.511,1205.699L1111.034,1156.062ZM1656.383,812.25L1964.436,755.034L1964.432,795.212L1826.712,840.499L1656.383,812.25ZM1024,1040.508L1064.375,1035.544L1084.416,1113.226C1073.966,1088.987 1055.132,1064.747 1024,1040.508ZM1123.939,969.086L1238.104,925.351L1219.738,1035.544L1111.034,1021.001L1123.939,969.086ZM1219.738,848.91L1300.646,820.369L1328.443,873.729L1246.976,980.448L1247.597,910.336L1219.738,848.91ZM1289.478,958.111L1361.451,925.351L1363.933,1035.544L1238.104,1093.719L1289.478,958.111ZM1274.09,1122.806L1394.956,1052.967L1576.13,1200.09L1507.879,1210.017L1439.629,1119.927L1409.847,1119.927L1478.097,1201.331L1373.86,1206.295L1274.09,1122.806ZM1328.443,925.351L1363.933,862.56L1344.078,820.369L1425.11,794.31L1425.11,856.356C1395.427,897.13 1362.273,913.605 1328.443,925.351ZM1376.776,925.351L1425.11,925.351L1444.592,859.83L1515.325,980.448L1480.579,995.339L1452.038,925.351L1460.724,1024L1425.11,1037.53L1413.57,1009.535L1376.776,1024L1376.776,925.351ZM1446.051,794.31L1617.08,794.31L1689.053,905.993L1562.48,985.411C1502.074,931.527 1460.955,868.876 1446.051,794.31ZM1552.552,1137.349L1700.222,1113.226L1835.482,1200.09L1618.321,1206.295L1552.552,1137.349ZM1748.617,1090.889L1793.29,1024L1964.425,1106.622L1964.429,1210.017L1748.617,1090.889ZM1707.047,859.83L1964.424,832.526L1964.429,911.259L1816.868,971.761L1853.475,889.861L1717.594,889.861L1707.047,859.83ZM1835.482,1009.535L1964.425,1035.723L1964.425,1062.112L1835.482,1009.535ZM194.144,796.913L240.207,805.429L312.677,973.002L213.205,933.876L194.144,796.913ZM380.778,893.583L583.296,884.957L507.848,1011.917L426.047,988.092L380.778,893.583ZM758.017,874.721L923.407,936.47L908.119,969.086L801.301,936.47L758.017,874.721ZM1092.172,1052.967L1219.738,1064.334L1208.322,1107.021L1111.034,1119.927L1092.172,1052.967ZM1790.604,998.807L1964.425,932.956L1964.422,1005.854L1896.907,1006.406L1790.604,998.807Z" style="fill:rgb(151,138,116);"/>
                    <clipPath id="_clip2">
                        <path d="M1700.222,1068.553L1607.153,985.411L1720.076,925.351L1806.941,925.351L1773.436,1009.535L1700.222,1068.553ZM1700.222,1068.553C1665.313,1092.38 1607.317,1105.945 1535.18,1113.226L1473.134,1052.967L1546.348,1009.535L1700.222,1068.553ZM36.028,833.126L172.008,927.09L36.033,911.452L36.028,833.126ZM36.029,933.05L188.101,952.49L267.209,989.717L128.21,972.039L36.026,1005.558L36.029,933.05ZM229.546,1015.104L273.414,1040.905L36.033,1061.526L36.331,1035.094L148.261,993.098L229.546,1015.104ZM36.029,1105.63L159.471,1082.428L273.414,1059.519L329.255,1096.746L188.101,1146.383L123.215,1209.135L36.029,1210.017L36.029,1105.63ZM172.008,1208.429L347.869,1133.974L453.347,1208.429L172.008,1208.429ZM36.028,796L36.029,756.034L172.008,833.021L187.616,913.711L36.028,796ZM301.36,884.957L341.863,877.7L393.485,955.53L349.805,966.649L301.36,884.957ZM353.776,1024L426.841,1024L553.117,1146.135L530.086,1076.247L703.218,1082.6L781.843,1208.429L652.39,1208.429L613.475,1133.974L626.976,1208.429L596.003,1208.429L493.553,1149.312L453.347,1145.608L331.539,1069.099L294.063,1024L347.422,1059.519L353.776,1024ZM264.033,796.913L507.848,759.366L434.783,856.257L329.156,856.257L264.033,796.913ZM460.991,856.257L527.703,759.366L622.211,828.46L608.71,864.993L460.991,856.257ZM661.921,856.257C672.245,850.697 722.279,856.257 722.279,856.257L758.017,936.47L701.63,895.172L672.245,895.966C672.245,895.966 651.596,861.816 661.921,856.257ZM622.211,884.957L708.524,1053.215L534.851,1024L622.211,884.957ZM742.134,1106.426L908.119,1205.699L802.492,1204.905L742.134,1106.426ZM685.151,936.47C850.951,968.428 974.025,1009.541 1024,1066.319L834.061,1079.225L685.151,936.47ZM936.312,969.086L972.901,909.467L1036.579,936.47L1153.721,895.128L1074.303,1007.847C1011.345,1018.248 966.179,1004.186 936.312,969.086ZM869.799,1106.426L981.978,1098.087L1137.838,1205.699L950.211,1205.699L869.799,1106.426ZM1111.034,1156.062L1251.009,1151.893L1328.443,1205.699L1182.511,1205.699L1111.034,1156.062ZM1656.383,812.25L1964.436,755.034L1964.432,795.212L1826.712,840.499L1656.383,812.25ZM1024,1040.508L1064.375,1035.544L1084.416,1113.226C1073.966,1088.987 1055.132,1064.747 1024,1040.508ZM1123.939,969.086L1238.104,925.351L1219.738,1035.544L1111.034,1021.001L1123.939,969.086ZM1219.738,848.91L1300.646,820.369L1328.443,873.729L1246.976,980.448L1247.597,910.336L1219.738,848.91ZM1289.478,958.111L1361.451,925.351L1363.933,1035.544L1238.104,1093.719L1289.478,958.111ZM1274.09,1122.806L1394.956,1052.967L1576.13,1200.09L1507.879,1210.017L1439.629,1119.927L1409.847,1119.927L1478.097,1201.331L1373.86,1206.295L1274.09,1122.806ZM1328.443,925.351L1363.933,862.56L1344.078,820.369L1425.11,794.31L1425.11,856.356C1395.427,897.13 1362.273,913.605 1328.443,925.351ZM1376.776,925.351L1425.11,925.351L1444.592,859.83L1515.325,980.448L1480.579,995.339L1452.038,925.351L1460.724,1024L1425.11,1037.53L1413.57,1009.535L1376.776,1024L1376.776,925.351ZM1446.051,794.31L1617.08,794.31L1689.053,905.993L1562.48,985.411C1502.074,931.527 1460.955,868.876 1446.051,794.31ZM1552.552,1137.349L1700.222,1113.226L1835.482,1200.09L1618.321,1206.295L1552.552,1137.349ZM1748.617,1090.889L1793.29,1024L1964.425,1106.622L1964.429,1210.017L1748.617,1090.889ZM1707.047,859.83L1964.424,832.526L1964.429,911.259L1816.868,971.761L1853.475,889.861L1717.594,889.861L1707.047,859.83ZM1835.482,1009.535L1964.425,1035.723L1964.425,1062.112L1835.482,1009.535ZM194.144,796.913L240.207,805.429L312.677,973.002L213.205,933.876L194.144,796.913ZM380.778,893.583L583.296,884.957L507.848,1011.917L426.047,988.092L380.778,893.583ZM758.017,874.721L923.407,936.47L908.119,969.086L801.301,936.47L758.017,874.721ZM1092.172,1052.967L1219.738,1064.334L1208.322,1107.021L1111.034,1119.927L1092.172,1052.967ZM1790.604,998.807L1964.425,932.956L1964.422,1005.854L1896.907,1006.406L1790.604,998.807Z"/>
                    </clipPath>
                    <g clip-path="url(#_clip2)">
                        <g transform="matrix(1,0,0,1,0.006869,25.169116)">
                            <path d="M1700.222,1068.553L1607.153,985.411L1720.076,925.351L1806.941,925.351L1773.436,1009.535L1700.222,1068.553ZM1700.222,1068.553C1665.313,1092.38 1607.317,1105.945 1535.18,1113.226L1473.134,1052.967L1546.348,1009.535L1700.222,1068.553ZM36.028,833.126L172.008,927.09L36.033,911.452L36.028,833.126ZM36.029,933.05L188.101,952.49L267.209,989.717L128.21,972.039L36.026,1005.558L36.029,933.05ZM229.546,1015.104L273.414,1040.905L36.033,1061.526L36.331,1035.094L148.261,993.098L229.546,1015.104ZM36.029,1105.63L159.471,1082.428L273.414,1059.519L329.255,1096.746L188.101,1146.383L123.215,1209.135L36.029,1210.017L36.029,1105.63ZM172.008,1208.429L347.869,1133.974L453.347,1208.429L172.008,1208.429ZM36.028,796L36.029,756.034L172.008,833.021L187.616,913.711L36.028,796ZM301.36,884.957L341.863,877.7L393.485,955.53L349.805,966.649L301.36,884.957ZM353.776,1024L426.841,1024L553.117,1146.135L530.086,1076.247L703.218,1082.6L781.843,1208.429L652.39,1208.429L613.475,1133.974L626.976,1208.429L596.003,1208.429L493.553,1149.312L453.347,1145.608L331.539,1069.099L294.063,1024L347.422,1059.519L353.776,1024ZM264.033,796.913L507.848,759.366L434.783,856.257L329.156,856.257L264.033,796.913ZM460.991,856.257L527.703,759.366L622.211,828.46L608.71,864.993L460.991,856.257ZM661.921,856.257C672.245,850.697 722.279,856.257 722.279,856.257L758.017,936.47L701.63,895.172L672.245,895.966C672.245,895.966 651.596,861.816 661.921,856.257ZM622.211,884.957L708.524,1053.215L534.851,1024L622.211,884.957ZM742.134,1106.426L908.119,1205.699L802.492,1204.905L742.134,1106.426ZM685.151,936.47C850.951,968.428 974.025,1009.541 1024,1066.319L834.061,1079.225L685.151,936.47ZM936.312,969.086L972.901,909.467L1036.579,936.47L1153.721,895.128L1074.303,1007.847C1011.345,1018.248 966.179,1004.186 936.312,969.086ZM869.799,1106.426L981.978,1098.087L1137.838,1205.699L950.211,1205.699L869.799,1106.426ZM1111.034,1156.062L1251.009,1151.893L1328.443,1205.699L1182.511,1205.699L1111.034,1156.062ZM1656.383,812.25L1964.716,755.034L1964.721,795.212L1826.712,840.499L1656.383,812.25ZM1024,1040.508L1064.375,1035.544L1084.416,1113.226C1073.966,1088.987 1055.132,1064.747 1024,1040.508ZM1123.939,969.086L1238.104,925.351L1219.738,1035.544L1111.034,1021.001L1123.939,969.086ZM1219.738,848.91L1300.646,820.369L1328.443,873.729L1246.976,980.448L1247.597,910.336L1219.738,848.91ZM1289.478,958.111L1361.451,925.351L1363.933,1035.544L1238.104,1093.719L1289.478,958.111ZM1274.09,1122.806L1394.956,1052.967L1576.13,1200.09L1507.879,1210.017L1439.629,1119.927L1409.847,1119.927L1478.097,1201.331L1373.86,1206.295L1274.09,1122.806ZM1328.443,925.351L1363.933,862.56L1344.078,820.369L1425.11,794.31L1425.11,856.356C1395.427,897.13 1362.273,913.605 1328.443,925.351ZM1376.776,925.351L1425.11,925.351L1444.592,859.83L1515.325,980.448L1480.579,995.339L1452.038,925.351L1460.724,1024L1425.11,1037.53L1413.57,1009.535L1376.776,1024L1376.776,925.351ZM1446.051,794.31L1617.08,794.31L1689.053,905.993L1562.48,985.411C1502.074,931.527 1460.955,868.876 1446.051,794.31ZM1552.552,1137.349L1700.222,1113.226L1835.482,1200.09L1618.321,1206.295L1552.552,1137.349ZM1748.617,1090.889L1793.29,1024L1964.721,1106.622L1964.724,1210.017L1748.617,1090.889ZM1707.047,859.83L1964.719,832.526L1964.724,911.259L1816.868,971.761L1853.475,889.861L1717.594,889.861L1707.047,859.83ZM1835.482,1009.535L1964.721,1035.723L1964.721,1062.112L1835.482,1009.535ZM194.144,796.913L240.207,805.429L312.677,973.002L213.205,933.876L194.144,796.913ZM380.778,893.583L583.296,884.957L507.848,1011.917L426.047,988.092L380.778,893.583ZM758.017,874.721L923.407,936.47L908.119,969.086L801.301,936.47L758.017,874.721ZM1092.172,1052.967L1219.738,1064.334L1208.322,1107.021L1111.034,1119.927L1092.172,1052.967ZM1790.604,998.807L1964.721,932.956L1964.717,1005.854L1896.907,1006.406L1790.604,998.807Z" style="fill-opacity:0.1;"/>
                        </g>
                    </g>
                </g>
            </g>
        </g>
        <g id="mid-waves-3" serif:id="mid waves 3">
        </g>
    </g>
</svg>
