<?xml version="1.0" encoding="UTF-8" standalone="no"?>
<!DOCTYPE svg PUBLIC "-//W3C//DTD SVG 1.1//EN" "http://www.w3.org/Graphics/SVG/1.1/DTD/svg11.dtd">
<svg width="100%" height="100%" viewBox="0 0 4096 2048" version="1.1" xmlns="http://www.w3.org/2000/svg" xmlns:xlink="http://www.w3.org/1999/xlink" xml:space="preserve" xmlns:serif="http://www.serif.com/" style="fill-rule:evenodd;clip-rule:evenodd;stroke-linejoin:round;stroke-miterlimit:2;">
    <g>
        <g transform="matrix(2.206893,0,0,2.206893,-85.263394,-913.652818)">
            <path d="M1894.352,634.033C1894.357,635.599 1894.636,1126.775 1894.636,1126.775L38.946,1126.775L38.946,883.383L39.237,883.383L39.237,848.956C39.237,848.956 37.794,649.527 38.635,633.03C182.543,660.084 201.281,632.059 276.541,649.459C325.703,660.826 307.163,679.412 350.687,686.86C417.659,698.321 458.134,679.575 458.134,679.575L657.99,818.896L677.9,754.548L753.501,766.609C761.81,758.3 907.113,774.891 897.137,784.867C919.704,784.867 951.148,716.636 951.148,716.636C951.148,716.636 1006.633,715.191 1033.117,717.128C1071.701,719.95 1052.367,680.137 1075.936,685.181C1101.244,690.599 1184.803,671.62 1184.803,671.62C1184.803,671.62 1191.277,679.424 1250.245,721.928C1272.451,673.571 1283.357,666.581 1283.357,666.581L1538.241,685.006L1626.115,723.529L1737.961,635.614C1737.961,635.614 1835.262,629.976 1894.352,634.033Z" style="fill:rgb(165,151,127);"/>
            <clipPath id="_clip1">
                <path d="M1894.352,634.033C1894.357,635.599 1894.636,1126.775 1894.636,1126.775L38.946,1126.775L38.946,883.383L39.237,883.383L39.237,848.956C39.237,848.956 37.794,649.527 38.635,633.03C182.543,660.084 201.281,632.059 276.541,649.459C325.703,660.826 307.163,679.412 350.687,686.86C417.659,698.321 458.134,679.575 458.134,679.575L657.99,818.896L677.9,754.548L753.501,766.609C761.81,758.3 907.113,774.891 897.137,784.867C919.704,784.867 951.148,716.636 951.148,716.636C951.148,716.636 1006.633,715.191 1033.117,717.128C1071.701,719.95 1052.367,680.137 1075.936,685.181C1101.244,690.599 1184.803,671.62 1184.803,671.62C1184.803,671.62 1191.277,679.424 1250.245,721.928C1272.451,673.571 1283.357,666.581 1283.357,666.581L1538.241,685.006L1626.115,723.529L1737.961,635.614C1737.961,635.614 1835.262,629.976 1894.352,634.033Z"/>
            </clipPath>
            <g clip-path="url(#_clip1)">
                <g transform="matrix(0.898418,0,0,1.053549,42.504998,-206.536205)">
                    <path d="M322.919,1167.376C338.416,1170.85 520.947,1210.041 520.947,1210.041L513.501,1187.084L762.926,1183.361L595.402,1232.998L666.134,1239.203L579.27,1262.78L390.65,1262.78C390.65,1262.78 336.287,1172.175 322.919,1167.376ZM322.919,1167.376C321.756,1167.116 321.533,1167.056 322.4,1167.229C322.565,1167.262 322.738,1167.311 322.919,1167.376ZM168.645,820.082L244.222,820.082L298.822,941.072L224.367,973.646L168.645,820.082ZM414.228,1055.547L508.537,1070.438L565.62,1157.302L436.564,1167.229L414.228,1055.547ZM341.634,859.482L455.178,855.759L467.587,1024L374.518,986.055L341.634,859.482ZM528.392,1024.2L663.652,984.814L717.012,1105.183L528.392,1024.2ZM801.89,939.879L907.12,939.979L1082.834,984.814L1077.871,1024L875.353,1008.64L845.571,1032.466L801.89,939.879ZM1024,892.49L1115.595,892.49L1091.769,966.945L980.583,939.879L1024,892.49ZM954.772,1042.393L1071.914,1043.386L1064.965,1092.03L954.772,1042.393ZM1266.738,1092.03L1397.035,1032.466L1347.398,1102.95L1255.57,1146.382L1266.738,1092.03ZM1326.303,1024L1379.662,844.839L1609.232,863.452L1521.127,986.303L1326.303,1024ZM1746.974,1004.917L1820.188,983.822L1833.838,1196.019L1719.674,1158.791L1746.974,1004.917ZM1880.993,932.944L2061.227,886.538L2061.228,965.732L1880.993,932.944ZM-3.954,987.638L117.648,973.646L212.164,994.837L-3.954,1060.584L-3.954,987.638ZM-3.952,887.141L78.249,958.135L-3.947,965.926L-3.952,887.141ZM-3.953,809.598L151.153,824.736L197.687,973.646L-3.952,849.798L-3.953,809.598ZM-3.627,1090.292L218.163,1009.633L278.968,1142.411L-3.947,1116.879L-3.627,1090.292ZM-3.95,1161.241L197.687,1162.266L337.291,1260.298C223.87,1262.249 128.942,1262.732 -3.948,1266.24L-3.95,1161.241ZM269.04,973.646L380.723,1074.16L414.228,1167.229L298.822,1142.411L269.04,973.646ZM259.113,820.082L321.873,855.759L360.868,973.646L259.113,820.082ZM467.587,855.759L663.652,973.646C663.652,973.646 511.019,1017.078 489.924,1024C468.828,1030.922 467.587,855.759 467.587,855.759ZM717.012,922.867L770.371,928.973L837.381,1077.883L765.407,1118.833L717.012,922.867ZM536.83,1063.24L717.012,1155.565L622.702,1158.543L536.83,1063.24ZM777.196,1137.695L908.113,1032.466L1055.038,1105.183L993.488,1158.543L970.655,1130.746L827.702,1169.463L777.196,1137.695ZM669.857,1254.838L753.246,1226.049L743.319,1204.209L942.362,1158.543L1024,1256.824L669.857,1254.838ZM1009.372,1181.376L1074.893,1158.543L1253.585,1256.824L1082.834,1256.824L1009.372,1181.376ZM1131.478,929.718L1150.092,859.73L1224.547,858.489L1131.478,929.718ZM1115.595,986.172C1115.595,986.172 1223.306,874.621 1235.716,880.825C1248.125,887.03 1265.498,894.103 1265.498,894.103L1294.039,986.172L1280.389,1053.313L1082.834,1115.359L1115.595,986.172ZM1178.013,1158.543L1214.62,1092.03L1241.92,1167.477L1178.013,1158.543ZM1267.359,849.492L1326.303,894.103L1310.171,950.317L1267.359,849.492ZM1891.876,811.606L2061.223,808.592L2061.228,849.006L1790.198,884.633L1891.876,811.606ZM1227.029,1183.609L1353.603,1129.754L1423.094,1044.627L1456.599,1167.477L1478.935,1167.477L1481.417,1004.917L1547.186,1024L1646.459,1167.477L1516.163,1263.028L1339.953,1254.342L1227.029,1183.609ZM1559.595,1004.917L1663.832,860.971L1833.838,934.419L1703.542,961.485L1682.446,1004.917L1559.595,1004.917ZM1605.199,1037.119L1719.674,1024L1682.446,1169.959L1605.199,1037.119ZM1559.595,1263.028L1696.717,1196.019L1805.297,1263.028L1559.595,1263.028ZM1867.343,968.931L2061.228,987.556L2061.224,1060.881L1964.496,1035.925L2061.228,1090.925L2061.22,1117.468L1978.679,1063.084L1856.353,1202.69L1905.83,1055.915L1862.239,1052.502L1867.343,968.931ZM1825.152,1263.028L1980.266,1076.89L2061.228,1162.239L2061.232,1266.24L1935.963,1262.656L1825.152,1263.028Z" style="fill:rgb(151,138,116);"/>
                    <clipPath id="_clip2">
                        <path d="M322.919,1167.376C338.416,1170.85 520.947,1210.041 520.947,1210.041L513.501,1187.084L762.926,1183.361L595.402,1232.998L666.134,1239.203L579.27,1262.78L390.65,1262.78C390.65,1262.78 336.287,1172.175 322.919,1167.376ZM322.919,1167.376C321.756,1167.116 321.533,1167.056 322.4,1167.229C322.565,1167.262 322.738,1167.311 322.919,1167.376ZM168.645,820.082L244.222,820.082L298.822,941.072L224.367,973.646L168.645,820.082ZM414.228,1055.547L508.537,1070.438L565.62,1157.302L436.564,1167.229L414.228,1055.547ZM341.634,859.482L455.178,855.759L467.587,1024L374.518,986.055L341.634,859.482ZM528.392,1024.2L663.652,984.814L717.012,1105.183L528.392,1024.2ZM801.89,939.879L907.12,939.979L1082.834,984.814L1077.871,1024L875.353,1008.64L845.571,1032.466L801.89,939.879ZM1024,892.49L1115.595,892.49L1091.769,966.945L980.583,939.879L1024,892.49ZM954.772,1042.393L1071.914,1043.386L1064.965,1092.03L954.772,1042.393ZM1266.738,1092.03L1397.035,1032.466L1347.398,1102.95L1255.57,1146.382L1266.738,1092.03ZM1326.303,1024L1379.662,844.839L1609.232,863.452L1521.127,986.303L1326.303,1024ZM1746.974,1004.917L1820.188,983.822L1833.838,1196.019L1719.674,1158.791L1746.974,1004.917ZM1880.993,932.944L2061.227,886.538L2061.228,965.732L1880.993,932.944ZM-3.954,987.638L117.648,973.646L212.164,994.837L-3.954,1060.584L-3.954,987.638ZM-3.952,887.141L78.249,958.135L-3.947,965.926L-3.952,887.141ZM-3.953,809.598L151.153,824.736L197.687,973.646L-3.952,849.798L-3.953,809.598ZM-3.627,1090.292L218.163,1009.633L278.968,1142.411L-3.947,1116.879L-3.627,1090.292ZM-3.95,1161.241L197.687,1162.266L337.291,1260.298C223.87,1262.249 128.942,1262.732 -3.948,1266.24L-3.95,1161.241ZM269.04,973.646L380.723,1074.16L414.228,1167.229L298.822,1142.411L269.04,973.646ZM259.113,820.082L321.873,855.759L360.868,973.646L259.113,820.082ZM467.587,855.759L663.652,973.646C663.652,973.646 511.019,1017.078 489.924,1024C468.828,1030.922 467.587,855.759 467.587,855.759ZM717.012,922.867L770.371,928.973L837.381,1077.883L765.407,1118.833L717.012,922.867ZM536.83,1063.24L717.012,1155.565L622.702,1158.543L536.83,1063.24ZM777.196,1137.695L908.113,1032.466L1055.038,1105.183L993.488,1158.543L970.655,1130.746L827.702,1169.463L777.196,1137.695ZM669.857,1254.838L753.246,1226.049L743.319,1204.209L942.362,1158.543L1024,1256.824L669.857,1254.838ZM1009.372,1181.376L1074.893,1158.543L1253.585,1256.824L1082.834,1256.824L1009.372,1181.376ZM1131.478,929.718L1150.092,859.73L1224.547,858.489L1131.478,929.718ZM1115.595,986.172C1115.595,986.172 1223.306,874.621 1235.716,880.825C1248.125,887.03 1265.498,894.103 1265.498,894.103L1294.039,986.172L1280.389,1053.313L1082.834,1115.359L1115.595,986.172ZM1178.013,1158.543L1214.62,1092.03L1241.92,1167.477L1178.013,1158.543ZM1267.359,849.492L1326.303,894.103L1310.171,950.317L1267.359,849.492ZM1891.876,811.606L2061.223,808.592L2061.228,849.006L1790.198,884.633L1891.876,811.606ZM1227.029,1183.609L1353.603,1129.754L1423.094,1044.627L1456.599,1167.477L1478.935,1167.477L1481.417,1004.917L1547.186,1024L1646.459,1167.477L1516.163,1263.028L1339.953,1254.342L1227.029,1183.609ZM1559.595,1004.917L1663.832,860.971L1833.838,934.419L1703.542,961.485L1682.446,1004.917L1559.595,1004.917ZM1605.199,1037.119L1719.674,1024L1682.446,1169.959L1605.199,1037.119ZM1559.595,1263.028L1696.717,1196.019L1805.297,1263.028L1559.595,1263.028ZM1867.343,968.931L2061.228,987.556L2061.224,1060.881L1964.496,1035.925L2061.228,1090.925L2061.22,1117.468L1978.679,1063.084L1856.353,1202.69L1905.83,1055.915L1862.239,1052.502L1867.343,968.931ZM1825.152,1263.028L1980.266,1076.89L2061.228,1162.239L2061.232,1266.24L1935.963,1262.656L1825.152,1263.028Z"/>
                    </clipPath>
                    <g clip-path="url(#_clip2)">
                        <g transform="matrix(1,0,0,1,-0.323659,22.617635)">
                            <path d="M322.919,1167.376C338.416,1170.85 520.947,1210.041 520.947,1210.041L513.501,1187.084L762.926,1183.361L595.402,1232.998L666.134,1239.203L579.27,1262.78L390.65,1262.78C390.65,1262.78 336.287,1172.175 322.919,1167.376ZM322.919,1167.376C321.756,1167.116 321.533,1167.056 322.4,1167.229C322.565,1167.262 322.738,1167.311 322.919,1167.376ZM168.645,820.082L244.222,820.082L298.822,941.072L224.367,973.646L168.645,820.082ZM414.228,1055.547L508.537,1070.438L565.62,1157.302L436.564,1167.229L414.228,1055.547ZM341.634,859.482L455.178,855.759L467.587,1024L374.518,986.055L341.634,859.482ZM528.392,1024.2L663.652,984.814L717.012,1105.183L528.392,1024.2ZM801.89,939.879L907.12,939.979L1082.834,984.814L1077.871,1024L875.353,1008.64L845.571,1032.466L801.89,939.879ZM1024,892.49L1115.595,892.49L1091.769,966.945L980.583,939.879L1024,892.49ZM954.772,1042.393L1071.914,1043.386L1064.965,1092.03L954.772,1042.393ZM1266.738,1092.03L1397.035,1032.466L1347.398,1102.95L1255.57,1146.382L1266.738,1092.03ZM1326.303,1024L1379.662,844.839L1609.232,863.452L1521.127,986.303L1326.303,1024ZM1746.974,1004.917L1820.188,983.822L1833.838,1196.019L1719.674,1158.791L1746.974,1004.917ZM1880.993,932.944L2061.543,886.538L2061.544,965.732L1880.993,932.944ZM-3.954,987.638L117.648,973.646L212.164,994.837L-3.954,1060.584L-3.954,987.638ZM-3.952,887.141L78.249,958.135L-3.947,965.926L-3.952,887.141ZM-3.953,809.598L151.153,824.736L197.687,973.646L-3.952,849.798L-3.953,809.598ZM-3.627,1090.292L218.163,1009.633L278.968,1142.411L-3.947,1116.879L-3.627,1090.292ZM-3.95,1161.241L197.687,1162.266L337.291,1260.298C223.87,1262.249 128.942,1262.732 -3.948,1266.24L-3.95,1161.241ZM269.04,973.646L380.723,1074.16L414.228,1167.229L298.822,1142.411L269.04,973.646ZM259.113,820.082L321.873,855.759L360.868,973.646L259.113,820.082ZM467.587,855.759L663.652,973.646C663.652,973.646 511.019,1017.078 489.924,1024C468.828,1030.922 467.587,855.759 467.587,855.759ZM717.012,922.867L770.371,928.973L837.381,1077.883L765.407,1118.833L717.012,922.867ZM536.83,1063.24L717.012,1155.565L622.702,1158.543L536.83,1063.24ZM777.196,1137.695L908.113,1032.466L1055.038,1105.183L993.488,1158.543L970.655,1130.746L827.702,1169.463L777.196,1137.695ZM669.857,1254.838L753.246,1226.049L743.319,1204.209L942.362,1158.543L1024,1256.824L669.857,1254.838ZM1009.372,1181.376L1074.893,1158.543L1253.585,1256.824L1082.834,1256.824L1009.372,1181.376ZM1131.478,929.718L1150.092,859.73L1224.547,858.489L1131.478,929.718ZM1115.595,986.172C1115.595,986.172 1223.306,874.621 1235.716,880.825C1248.125,887.03 1265.498,894.103 1265.498,894.103L1294.039,986.172L1280.389,1053.313L1082.834,1115.359L1115.595,986.172ZM1178.013,1158.543L1214.62,1092.03L1241.92,1167.477L1178.013,1158.543ZM1267.359,849.492L1326.303,894.103L1310.171,950.317L1267.359,849.492ZM1891.876,811.606L2061.539,808.592L2061.544,849.006L1790.198,884.633L1891.876,811.606ZM1227.029,1183.609L1353.603,1129.754L1423.094,1044.627L1456.599,1167.477L1478.935,1167.477L1481.417,1004.917L1547.186,1024L1646.459,1167.477L1516.163,1263.028L1339.953,1254.342L1227.029,1183.609ZM1559.595,1004.917L1663.832,860.971L1833.838,934.419L1703.542,961.485L1682.446,1004.917L1559.595,1004.917ZM1605.199,1037.119L1719.674,1024L1682.446,1169.959L1605.199,1037.119ZM1559.595,1263.028L1696.717,1196.019L1805.297,1263.028L1559.595,1263.028ZM1867.343,968.931L2061.544,987.556L2061.54,1060.881L1964.496,1035.925L2061.544,1090.925L2061.544,1117.468L1978.679,1063.084L1856.353,1202.69L1905.83,1055.915L1862.239,1052.502L1867.343,968.931ZM1825.152,1263.028L1980.266,1076.89L2061.544,1162.239L2061.548,1266.24L1935.963,1262.656L1825.152,1263.028Z" style="fill-opacity:0.1;"/>
                        </g>
                    </g>
                </g>
            </g>
        </g>
        <g id="mid-waves-3" serif:id="mid waves 3">
        </g>
    </g>
</svg>
