<svg width="1024" height="256" viewBox="0 0 1024 256" fill="none" xmlns="http://www.w3.org/2000/svg">
  <g filter="url(#shadow)">
    <path d="M80 132C80 97.758 107.758 70 142 70H882C916.242 70 944 97.758 944 132C944 166.242 916.242 194 882 194H142C107.758 194 80 166.242 80 132Z" fill="#2E3644"/>
    <path d="M142 74H882C914.033 74 940 99.967 940 132C940 164.033 914.033 190 882 190H142C109.967 190 84 164.033 84 132C84 99.967 109.967 74 142 74Z" stroke="#A5977F" stroke-width="8"/>
  </g>
  <text x="512" y="150" text-anchor="middle" fill="#A5977F" font-size="92" font-family="Text Me One, Arial, sans-serif" letter-spacing="10">GAME OVER</text>
  <defs>
    <filter id="shadow" x="56" y="52" width="912" height="172" filterUnits="userSpaceOnUse" color-interpolation-filters="sRGB">
      <feFlood flood-opacity="0" result="BackgroundImageFix"/>
      <feColorMatrix in="SourceAlpha" type="matrix" values="0 0 0 0 0 0 0 0 0 0 0 0 0 0 0 0 0 0 127 0" result="hardAlpha"/>
      <feOffset dy="6"/>
      <feGaussianBlur stdDeviation="12"/>
      <feComposite in2="hardAlpha" operator="out"/>
      <feColorMatrix type="matrix" values="0 0 0 0 0.180392 0 0 0 0 0.211765 0 0 0 0 0.266667 0 0 0 0.24 0"/>
      <feBlend mode="normal" in2="BackgroundImageFix" result="effect1_dropShadow_1_1"/>
      <feBlend mode="normal" in="SourceGraphic" in2="effect1_dropShadow_1_1" result="shape"/>
    </filter>
  </defs>
</svg>
