<?xml version="1.0" encoding="UTF-8" standalone="no"?>
<!DOCTYPE svg PUBLIC "-//W3C//DTD SVG 1.1//EN" "http://www.w3.org/Graphics/SVG/1.1/DTD/svg11.dtd">
<svg width="100%" height="100%" viewBox="0 0 500 500" version="1.1" xmlns="http://www.w3.org/2000/svg" xmlns:xlink="http://www.w3.org/1999/xlink" xml:space="preserve" xmlns:serif="http://www.serif.com/" style="fill-rule:evenodd;clip-rule:evenodd;stroke-linejoin:round;stroke-miterlimit:2;">
    <g id="Chremas" transform="matrix(-0.858015,0,0,0.858015,298.144184,65.534333)">
        <g transform="matrix(-24.264579,0,0,24.264579,1032.996182,-318.881034)">
            <path d="M47.756,17.903C47.684,17.973 47.603,18.037 47.51,18.093C46.695,18.582 44.847,20.014 43.016,19.796C41.973,19.672 41.315,18.291 37.326,17.386C32.524,17.024 32.248,15.767 32.248,15.767C32.289,15.268 32.852,14.593 33.147,14.087C33.442,13.581 33.596,12.949 34.018,12.731C35.465,11.986 39.76,12.158 41.66,12.37C43.779,12.607 44.035,14.062 45.055,14.694C45.82,15.169 47.018,15.396 47.532,16.569C47.774,17.052 47.822,17.5 47.756,17.903Z" style="fill:rgb(165,151,127);"/>
            <clipPath id="_clip1">
                <path d="M47.756,17.903C47.684,17.973 47.603,18.037 47.51,18.093C46.695,18.582 44.847,20.014 43.016,19.796C41.973,19.672 41.315,18.291 37.326,17.386C32.524,17.024 32.248,15.767 32.248,15.767C32.289,15.268 32.852,14.593 33.147,14.087C33.442,13.581 33.596,12.949 34.018,12.731C35.465,11.986 39.76,12.158 41.66,12.37C43.779,12.607 44.035,14.062 45.055,14.694C45.82,15.169 47.018,15.396 47.532,16.569C47.774,17.052 47.822,17.5 47.756,17.903Z"/>
            </clipPath>
            <g clip-path="url(#_clip1)">
                <g transform="matrix(1,0,0,1,0.268188,1.592759)">
                    <path d="M47.756,17.903C47.684,17.973 47.603,18.037 47.51,18.093C46.695,18.582 44.847,20.014 43.016,19.796C41.973,19.672 41.315,18.291 37.326,17.386C32.524,17.024 32.248,15.767 32.248,15.767C32.289,15.268 32.852,14.593 33.147,14.087C33.442,13.581 33.596,12.949 34.018,12.731C35.465,11.986 39.76,12.158 41.66,12.37C43.779,12.607 44.035,14.062 45.055,14.694C45.82,15.169 47.018,15.396 47.532,16.569C47.774,17.052 47.822,17.5 47.756,17.903Z" style="fill-opacity:0.23;"/>
                </g>
                <g transform="matrix(1,0,0,1,0.657529,2.615978)">
                    <path d="M47.756,17.903C47.684,17.973 47.603,18.037 47.51,18.093C46.695,18.582 44.847,20.014 43.016,19.796C41.973,19.672 41.315,18.291 37.326,17.386C32.524,17.024 32.248,15.767 32.248,15.767C32.289,15.268 32.852,14.593 33.147,14.087C33.442,13.581 33.596,12.949 34.018,12.731C35.465,11.986 39.76,12.158 41.66,12.37C43.779,12.607 44.035,14.062 45.055,14.694C45.82,15.169 47.018,15.396 47.532,16.569C47.774,17.052 47.822,17.5 47.756,17.903Z" style="fill-opacity:0.23;"/>
                </g>
            </g>
        </g>
        <g transform="matrix(-24.264579,0,0,24.264579,1032.996182,-318.881034)">
            <path d="M32.395,16.003C32.269,15.86 32.248,15.767 32.248,15.767C32.289,15.268 32.852,14.593 33.147,14.087C33.442,13.581 33.596,12.949 34.018,12.731C35.465,11.986 39.76,12.158 41.66,12.37C43.779,12.607 44.035,14.062 45.055,14.694C45.677,15.08 46.586,15.302 47.18,16.003L46.44,16.003C45.931,15.304 44.994,15.132 44.375,14.803C43.467,14.322 43.239,13.214 41.352,13.033C39.661,12.872 35.837,12.741 34.549,13.309C34.173,13.474 34.036,13.956 33.773,14.341C33.511,14.726 33.01,15.24 32.973,15.62C32.973,15.62 33.016,15.788 33.38,16.003L32.395,16.003Z" style="fill:rgb(39,45,57);"/>
        </g>
        <g>
            <g transform="matrix(-24.264579,0,0,24.264579,1032.996182,-318.881034)">
                <path d="M47.18,16.003C47.316,16.164 47.436,16.35 47.532,16.569C47.774,17.052 47.822,17.5 47.756,17.903C47.684,17.973 47.603,18.037 47.51,18.093C46.695,18.582 44.847,20.014 43.016,19.796C41.973,19.672 41.315,18.291 37.326,17.386C33.831,17.122 32.733,16.385 32.395,16.003L33.38,16.003C33.885,16.302 35.008,16.692 37.494,16.853C41.045,17.542 41.631,18.594 42.56,18.688C44.189,18.854 45.835,17.764 46.561,17.391C46.643,17.349 46.716,17.3 46.78,17.247C46.838,16.94 46.795,16.599 46.58,16.231C46.538,16.149 46.491,16.073 46.44,16.003L47.18,16.003Z" style="fill:rgb(39,45,57);"/>
            </g>
            <g transform="matrix(-24.264579,0,0,24.264579,1032.996182,-318.881034)">
                <path d="M32.248,15.767C32.248,15.767 32.524,17.024 37.326,17.386C41.315,18.291 41.973,19.672 43.016,19.796C44.847,20.014 46.695,18.582 47.51,18.093C47.603,18.037 47.684,17.973 47.756,17.903C47.53,19.296 45.949,20.166 46.301,20.188C46.754,20.216 46.501,20.97 46.159,21.15C46.943,21.861 49.416,25.33 49.571,26.876C49.557,31.041 40.581,33.892 33.19,29.9C27.469,26.878 34.547,20.077 34.21,20.358C33.813,19.989 34.379,19.024 34.379,19.024C34.379,19.024 32.146,17.002 32.248,15.767Z" style="fill:rgb(165,151,127);"/>
                <clipPath id="_clip2">
                    <path d="M32.248,15.767C32.248,15.767 32.524,17.024 37.326,17.386C41.315,18.291 41.973,19.672 43.016,19.796C44.847,20.014 46.695,18.582 47.51,18.093C47.603,18.037 47.684,17.973 47.756,17.903C47.53,19.296 45.949,20.166 46.301,20.188C46.754,20.216 46.501,20.97 46.159,21.15C46.943,21.861 49.416,25.33 49.571,26.876C49.557,31.041 40.581,33.892 33.19,29.9C27.469,26.878 34.547,20.077 34.21,20.358C33.813,19.989 34.379,19.024 34.379,19.024C34.379,19.024 32.146,17.002 32.248,15.767Z"/>
                </clipPath>
                <g clip-path="url(#_clip2)">
                    <g transform="matrix(1,0,0,1,0,0.693017)">
                        <path d="M32.248,15.767C32.248,15.767 32.524,17.024 37.326,17.386C41.315,18.291 41.973,19.672 43.016,19.796C44.847,20.014 47.025,26.436 47.18,27.982C47.167,32.147 40.581,33.892 33.19,29.9C27.469,26.878 34.547,20.077 34.21,20.358C33.813,19.989 34.379,19.024 34.379,19.024C34.379,19.024 32.146,17.002 32.248,15.767Z" style="fill-opacity:0.23;"/>
                    </g>
                    <g transform="matrix(0.617943,0,0,0.939236,13.391757,2.646582)">
                        <path d="M32.248,15.767C32.248,15.767 32.524,17.024 37.326,17.386C41.315,18.291 41.973,19.672 43.016,19.796C44.847,20.014 47.025,26.436 47.18,27.982C47.167,32.147 40.581,33.892 33.19,29.9C27.469,26.878 34.547,20.077 34.21,20.358C33.813,19.989 34.379,19.024 34.379,19.024C34.379,19.024 32.146,17.002 32.248,15.767Z" style="fill-opacity:0.23;"/>
                    </g>
                </g>
            </g>
            <g transform="matrix(-24.264579,0,0,24.264579,1032.996182,-318.881034)">
                <path d="M34.379,19.024C34.379,19.024 41.291,23.408 46.301,20.188C46.726,20.32 46.251,21.172 46.251,21.172L44.12,22.201C44.12,22.598 46.236,22.696 46.367,22.723C46.497,22.984 46.903,24.855 45.395,24.695C44.087,23.412 44.054,23.883 44.054,23.883L45.294,26.159C45.294,26.159 43.96,27.856 43.279,26.942C42.597,26.029 42.278,22.607 42.278,22.607C42.278,22.607 36.639,22.854 34.203,20.36C33.971,20.099 33.989,19.167 34.379,19.024Z" style="fill:rgb(39,45,57);"/>
                <clipPath id="_clip3">
                    <path d="M34.379,19.024C34.379,19.024 41.291,23.408 46.301,20.188C46.726,20.32 46.251,21.172 46.251,21.172L44.12,22.201C44.12,22.598 46.236,22.696 46.367,22.723C46.497,22.984 46.903,24.855 45.395,24.695C44.087,23.412 44.054,23.883 44.054,23.883L45.294,26.159C45.294,26.159 43.96,27.856 43.279,26.942C42.597,26.029 42.278,22.607 42.278,22.607C42.278,22.607 36.639,22.854 34.203,20.36C33.971,20.099 33.989,19.167 34.379,19.024Z"/>
                </clipPath>
                <g clip-path="url(#_clip3)">
                    <g transform="matrix(1,0,0,1,-0.023972,0.673514)">
                        <path d="M34.379,19.024C34.379,19.024 41.291,23.408 46.301,20.188C46.726,20.32 46.251,21.172 46.251,21.172L44.12,22.201C44.12,22.598 46.236,22.696 46.367,22.723C46.497,22.984 46.903,24.855 45.395,24.695C44.087,23.412 44.054,23.883 44.054,23.883L45.294,26.159C45.294,26.159 43.96,27.856 43.279,26.942C42.597,26.029 42.278,22.607 42.278,22.607C42.278,22.607 36.639,22.854 34.203,20.36C33.971,20.099 33.989,19.167 34.379,19.024Z" style="fill-opacity:0.23;"/>
                    </g>
                </g>
            </g>
        </g>
    </g>
</svg>
