<?xml version="1.0" encoding="UTF-8" standalone="no"?>
<!DOCTYPE svg PUBLIC "-//W3C//DTD SVG 1.1//EN" "http://www.w3.org/Graphics/SVG/1.1/DTD/svg11.dtd">
<svg width="100%" height="100%" viewBox="0 0 53 90" version="1.1" xmlns="http://www.w3.org/2000/svg" xmlns:xlink="http://www.w3.org/1999/xlink" xml:space="preserve" xmlns:serif="http://www.serif.com/" style="fill-rule:evenodd;clip-rule:evenodd;stroke-linejoin:round;stroke-miterlimit:2;">
    <g transform="matrix(1,0,0,1,-1741.972025,-873.345231)">
        <g transform="matrix(-0.031082,-0.189748,-0.189748,0.031082,1813.31711,922.878756)">
            <g transform="matrix(-0.840728,-5.132435,-3.827198,0.626921,3160.983677,9067.275568)">
                <path d="M1776.549,360.34L1776.965,432.611L1770.345,432.528L1770.345,367.124C1770.042,365.219 1774.253,358.315 1776.549,360.34Z" style="fill:rgb(212,191,155);"/>
            </g>
        </g>
        <g transform="matrix(-0.031082,-0.189748,-0.189748,0.031082,1813.31711,922.878756)">
            <g transform="matrix(0.583501,-0.812112,0.812112,0.583501,-309.373563,345.334312)">
                <path d="M154.143,204.016C154.143,204.016 108.608,169.091 209.846,141.682C223.656,115.687 238.033,46.456 285,77.137C273.154,74.126 256.368,80.255 253.612,113.388C250.467,106.05 369.826,71.706 448.571,179.701C275.606,115.378 254.054,158.039 254.054,158.039C254.054,158.039 297.643,191.048 293.082,188.309C295.878,192.156 287.754,219.606 269.891,213.537C272.607,222.123 237.793,176.446 235.37,180.324C214.62,213.543 195.98,282.712 296.052,379.788C276.515,376.554 150.247,316.903 183.864,207.994C188.248,193.792 196.245,173.926 196.245,173.926C181.764,178.678 151.745,183.073 154.143,204.016Z" style="fill:rgb(46,54,68);"/>
                <clipPath id="_clip1">
                    <path d="M154.143,204.016C154.143,204.016 108.608,169.091 209.846,141.682C223.656,115.687 238.033,46.456 285,77.137C273.154,74.126 256.368,80.255 253.612,113.388C250.467,106.05 369.826,71.706 448.571,179.701C275.606,115.378 254.054,158.039 254.054,158.039C254.054,158.039 297.643,191.048 293.082,188.309C295.878,192.156 287.754,219.606 269.891,213.537C272.607,222.123 237.793,176.446 235.37,180.324C214.62,213.543 195.98,282.712 296.052,379.788C276.515,376.554 150.247,316.903 183.864,207.994C188.248,193.792 196.245,173.926 196.245,173.926C181.764,178.678 151.745,183.073 154.143,204.016Z"/>
                </clipPath>
                <g clip-path="url(#_clip1)">
                    <g transform="matrix(1,0,0,1,-17.19585,26.32575)">
                        <path d="M154.143,204.016C154.143,204.016 108.608,169.091 209.846,141.682C223.656,115.687 238.033,46.456 285,77.137C273.154,74.126 256.368,80.255 253.612,113.388C250.467,106.05 369.826,71.706 448.571,179.701C275.606,115.378 254.054,158.039 254.054,158.039C254.054,158.039 297.643,191.048 293.082,188.309C295.878,192.156 287.754,219.606 269.891,213.537C272.607,222.123 237.793,176.446 235.37,180.324C214.62,213.543 195.98,282.712 296.052,379.788C276.515,376.554 150.247,316.903 183.864,207.994C188.248,193.792 196.245,173.926 196.245,173.926C181.764,178.678 151.745,183.073 154.143,204.016Z" style="fill-opacity:0.13;"/>
                    </g>
                    <g transform="matrix(1,0,0,1,1.994839,12.177993)">
                        <path d="M154.143,204.016C154.143,204.016 108.608,169.091 209.846,141.682C223.656,115.687 238.033,46.456 285,77.137C273.154,74.126 256.368,80.255 253.612,113.388C250.467,106.05 369.826,71.706 448.571,179.701C275.606,115.378 254.054,158.039 254.054,158.039C254.054,158.039 297.643,191.048 293.082,188.309C295.878,192.156 287.754,219.606 269.891,213.537C272.607,222.123 237.793,176.446 235.37,180.324C214.62,213.543 195.98,282.712 296.052,379.788C276.515,376.554 150.247,316.903 183.864,207.994C188.248,193.792 196.245,173.926 196.245,173.926C181.764,178.678 151.745,183.073 154.143,204.016Z" style="fill-opacity:0.13;"/>
                    </g>
                </g>
            </g>
        </g>
        <g transform="matrix(-0.031082,-0.189748,-0.189748,0.031082,1813.31711,922.878756)">
            <g transform="matrix(0.583501,-0.812112,0.812112,0.583501,-309.373563,345.334312)">
                <path d="M208.648,174.663C230.099,182.428 254.976,143.05 240.156,129.031L210.097,119.112L188.186,148.809L208.648,174.663Z" style="fill:rgb(39,46,59);"/>
                <clipPath id="_clip2">
                    <path d="M208.648,174.663C230.099,182.428 254.976,143.05 240.156,129.031L210.097,119.112L188.186,148.809L208.648,174.663Z"/>
                </clipPath>
                <g clip-path="url(#_clip2)">
                    <g transform="matrix(1,0,0,1,-8.51873,9.520126)">
                        <path d="M208.648,174.663C230.099,182.428 254.976,143.05 240.156,129.031L210.097,119.112L188.186,148.809L208.648,174.663Z" style="fill-opacity:0.18;"/>
                    </g>
                    <g transform="matrix(1,0,0,1,-19.001109,21.866259)">
                        <path d="M208.648,174.663C230.099,182.428 254.976,143.05 240.156,129.031L210.097,119.112L188.186,148.809L208.648,174.663Z" style="fill-opacity:0.18;"/>
                    </g>
                </g>
            </g>
        </g>
        <g transform="matrix(-0.031082,-0.189748,-0.189748,0.031082,1813.31711,922.878756)">
            <g transform="matrix(0.583501,-0.812112,0.812112,0.583501,-309.373563,345.334312)">
                <path d="M188.186,148.809C200.982,142.29 209.563,133.177 210.097,119.112C210.097,119.112 213.314,110.637 206.344,108.428C187.207,102.363 132.043,84.674 129.517,85.975C127.674,89.662 173.949,146.449 180.943,149.533C183.296,150.126 188.186,148.809 188.186,148.809Z" style="fill:rgb(46,54,68);"/>
                <clipPath id="_clip3">
                    <path d="M188.186,148.809C200.982,142.29 209.563,133.177 210.097,119.112C210.097,119.112 213.314,110.637 206.344,108.428C187.207,102.363 132.043,84.674 129.517,85.975C127.674,89.662 173.949,146.449 180.943,149.533C183.296,150.126 188.186,148.809 188.186,148.809Z"/>
                </clipPath>
                <g clip-path="url(#_clip3)">
                    <g transform="matrix(1,0,0,1,-5.611182,11.548197)">
                        <path d="M188.186,148.809C200.982,142.29 209.563,133.177 210.097,119.112C210.097,119.112 213.314,110.637 206.344,108.428C187.207,102.363 132.043,84.674 129.517,85.975C127.674,89.662 173.949,146.449 180.943,149.533C183.296,150.126 188.186,148.809 188.186,148.809Z" style="fill-opacity:0.1;"/>
                    </g>
                    <g transform="matrix(1,0,0,1,-4.510711,18.266299)">
                        <path d="M188.186,148.809C200.982,142.29 209.563,133.177 210.097,119.112C210.097,119.112 213.314,110.637 206.344,108.428C187.207,102.363 132.043,84.674 129.517,85.975C127.674,89.662 173.949,146.449 180.943,149.533C183.296,150.126 188.186,148.809 188.186,148.809Z" style="fill-opacity:0.1;"/>
                    </g>
                </g>
            </g>
        </g>
    </g>
</svg>
