<?xml version="1.0" encoding="UTF-8" standalone="no"?><!DOCTYPE svg PUBLIC "-//W3C//DTD SVG 1.1//EN" "http://www.w3.org/Graphics/SVG/1.1/DTD/svg11.dtd"><svg width="100%" height="100%" viewBox="0 0 5803 5803" version="1.1" xmlns="http://www.w3.org/2000/svg" xmlns:xlink="http://www.w3.org/1999/xlink" xml:space="preserve" xmlns:serif="http://www.serif.com/" style="fill-rule:evenodd;clip-rule:evenodd;stroke-linejoin:round;stroke-miterlimit:2;"><circle cx="2901.025" cy="2901.025" r="2901.025" style="fill:#255fbc;"/><clipPath id="_clip1"><circle cx="2901.025" cy="2901.025" r="2901.025"/></clipPath><g clip-path="url(#_clip1)"><g><rect x="-51.731" y="-51.731" width="5905.512" height="5905.512" style="fill:#ebebeb;"/><path d="M622.377,-51.731l1602.908,0l0,1602.908l-1602.908,-1602.908Zm2954.39,0l1602.908,0l-1602.908,1602.908l0,-1602.908Zm2277.015,674.107l0,1602.908l-1602.908,0l1602.908,-1602.908Zm0,2954.39l0,1602.908l-1602.908,-1602.908l1602.908,0Zm-674.107,2277.015l-1602.908,0l0,-1602.908l1602.908,1602.908Zm-2954.39,0l-1602.908,0l1602.908,-1602.908l0,1602.908Zm-2277.015,-674.107l0,-1602.908l1602.908,0l-1602.908,1602.908Zm0,-2954.39l0,-1602.908l1602.908,1602.908l-1602.908,0Z" style="fill:#255fbc;"/><path d="M2554.3,3094.893l-2732.791,0l0,-544.321l2732.791,0l0,-2849.242l693.45,0l0,2849.242l2732.791,0l0,544.321l-2732.791,0l0,2849.242l-693.45,0l-0,-2849.242Zm-572.907,-869.609l-2334.621,-2334.621l243.892,-243.892l2334.621,2334.621l0,243.892l-243.892,0Zm1595.374,-243.892l2334.621,-2334.621l243.892,243.892l-2334.621,2334.621l-243.892,-0l0,-243.892Zm243.892,1595.374l2334.621,2334.621l-243.892,243.892l-2334.621,-2334.621l0,-243.892l243.892,0Zm-1595.374,243.892l-2334.621,2334.621l-243.892,-243.892l2334.621,-2334.621l243.892,0l0,243.892Z" style="fill:#ff4545;"/></g></g></svg>