<?xml version="1.0" encoding="UTF-8" standalone="no"?>
<!DOCTYPE svg PUBLIC "-//W3C//DTD SVG 1.1//EN" "http://www.w3.org/Graphics/SVG/1.1/DTD/svg11.dtd">
<svg width="100%" height="100%" viewBox="0 0 227 232" version="1.1" xmlns="http://www.w3.org/2000/svg" xmlns:xlink="http://www.w3.org/1999/xlink" xml:space="preserve" xmlns:serif="http://www.serif.com/" style="fill-rule:evenodd;clip-rule:evenodd;stroke-linejoin:round;stroke-miterlimit:2;">
    <g transform="matrix(1,0,0,1,-107.5943,-7.725458)">
        <g transform="matrix(1,0,0,1,28.820745,37.4149)">
            <path d="M124.063,117.862L92.412,117.862C84.885,117.862 78.774,111.751 78.774,104.223L78.774,76.947C78.774,69.419 84.885,63.308 92.412,63.308L124.063,63.308L124.063,49.624L210.526,8.662L210.526,172.508L124.063,131.546L124.063,117.862ZM233.924,19.718C243.647,31.147 251.541,57.942 251.541,88.297C251.541,118.652 243.647,145.447 233.924,156.877C239.758,140.875 244.494,115.654 244.494,88.297C244.494,60.94 239.758,35.719 233.924,19.718ZM262.864,-4.986C272.587,10.561 280.481,47.008 280.481,88.297C280.481,129.586 272.587,166.033 262.864,181.58C268.698,159.814 273.434,125.508 273.434,88.297C273.434,51.086 268.698,16.78 262.864,-4.986ZM287.567,-29.689C297.29,-10.368 305.185,34.926 305.185,86.238C305.185,137.551 297.29,182.845 287.567,202.166C293.401,175.117 298.138,132.483 298.138,86.238C298.138,39.994 293.401,-2.64 287.567,-29.689Z" style="fill:rgb(173,158,132);"/>
        </g>
    </g>
</svg>
