<?xml version="1.0" encoding="UTF-8" standalone="no"?>
<!DOCTYPE svg PUBLIC "-//W3C//DTD SVG 1.1//EN" "http://www.w3.org/Graphics/SVG/1.1/DTD/svg11.dtd">
<svg width="100%" height="100%" viewBox="0 0 121 121" version="1.1" xmlns="http://www.w3.org/2000/svg" xmlns:xlink="http://www.w3.org/1999/xlink" xml:space="preserve" xmlns:serif="http://www.serif.com/" style="fill-rule:evenodd;clip-rule:evenodd;stroke-linejoin:round;stroke-miterlimit:2;">
    <g transform="matrix(1,0,0,1,-3.598578,-3.598578)">
        <g transform="matrix(1,0,0,1,-1.263607,-7.225078)">
            <path d="M64.31,131.619C31.412,131.109 4.862,104.243 4.862,71.225C4.862,37.889 31.927,10.824 65.264,10.824C98.6,10.824 125.665,37.889 125.665,71.225C125.665,89.507 117.526,105.902 104.676,116.982C104.723,117.034 104.77,117.086 104.817,117.138C102.334,119.274 99.68,121.202 96.881,122.904C96.851,122.851 96.82,122.798 96.79,122.745C87.61,128.378 76.813,131.627 65.264,131.627C64.945,131.627 64.627,131.624 64.31,131.619ZM99.069,110.815C106.439,104.515 112.031,96.194 114.985,86.715C113.054,85.409 111.156,84.054 109.289,82.652C111.61,82.285 113.938,81.975 116.271,81.724C116.966,78.332 117.332,74.821 117.332,71.225C117.332,67.226 116.88,63.333 116.025,59.592C113.796,60.051 111.567,60.509 109.338,60.964C111.039,67.933 111.102,75.357 109.289,82.652C106.958,92.032 101.787,100.15 94.801,106.142C96.225,107.699 97.648,109.256 99.069,110.815ZM113.633,51.928C109.879,42.537 103.467,34.49 95.33,28.721C93.353,30.274 91.334,31.774 89.273,33.222C89.669,30.723 90.131,28.239 90.659,25.768C84.404,22.263 77.353,20.012 69.847,19.356C69.583,21.739 69.316,24.122 69.046,26.504C76.069,27.089 83.01,29.315 89.273,33.222C97.641,38.441 103.844,46.066 107.349,54.779C109.443,53.826 111.537,52.876 113.633,51.928ZM61.645,19.281C51.168,20.002 41.539,23.828 33.673,29.844C34.537,32.201 35.338,34.58 36.077,36.983C33.848,35.848 31.653,34.655 29.491,33.405C24.147,38.462 19.873,44.637 17.045,51.556C19.14,52.503 21.235,53.453 23.329,54.405C26.051,47.804 30.35,41.796 36.077,36.983C43.702,30.574 52.979,27.024 62.446,26.435C62.176,24.05 61.909,21.666 61.645,19.281ZM14.547,59.4C13.663,63.199 13.196,67.158 13.196,71.225C13.196,77.391 14.27,83.308 16.241,88.799C18.563,88.721 20.888,88.701 23.215,88.738C21.582,90.372 19.91,91.964 18.201,93.513C21.471,100.4 26.209,106.457 32.009,111.279C33.429,109.72 34.851,108.163 36.274,106.607C30.639,101.928 26.097,95.853 23.215,88.738C19.528,79.631 18.981,69.855 21.237,60.775C19.007,60.319 16.776,59.86 14.547,59.4ZM38.594,115.944C46.396,120.611 55.519,123.293 65.264,123.293C65.664,123.293 66.064,123.289 66.463,123.28C67.08,121.16 67.746,119.055 68.463,116.963C69.468,118.935 70.425,120.928 71.335,122.942C79.088,122.04 86.323,119.432 92.656,115.504C91.618,113.681 90.581,111.856 89.547,110.031C83.344,113.964 76.143,116.42 68.463,116.963C58.844,117.643 49.547,115.247 41.701,110.477C40.667,112.3 39.631,114.123 38.594,115.944ZM105.148,61.816C104.401,61.967 103.653,62.118 102.906,62.269C103.588,65.144 103.95,68.143 103.95,71.225C103.95,83.16 98.534,93.839 90.028,100.938C90.655,101.621 91.282,102.304 91.909,102.987C98.231,97.612 102.99,90.281 105.142,81.622C106.816,74.884 106.72,68.118 105.148,61.816ZM68.563,30.748C68.49,31.385 68.417,32.023 68.343,32.66C83.512,33.857 96.232,43.82 101.432,57.478C102.106,57.17 102.779,56.862 103.453,56.555C98.72,44.668 88.526,35.152 75.174,31.833C72.967,31.285 70.758,30.927 68.563,30.748ZM27.218,56.176C27.892,56.484 28.567,56.792 29.241,57.1C34.644,43.349 47.698,33.43 63.15,32.596C63.076,31.957 63.003,31.318 62.929,30.679C47.325,31.567 33.243,41.377 27.218,56.176ZM39.162,103.454C39.793,102.767 40.424,102.08 41.055,101.393C32.23,94.3 26.578,83.417 26.578,71.225C26.578,68.076 26.955,65.014 27.666,62.082C26.92,61.931 26.175,61.78 25.429,61.628C25.414,61.686 25.4,61.744 25.385,61.802C21.442,77.672 27.323,93.698 39.162,103.454ZM87.435,106.298C86.974,105.482 86.514,104.665 86.053,103.849C80.047,107.686 72.913,109.911 65.264,109.911C57.918,109.911 51.047,107.859 45.194,104.298C44.731,105.12 44.267,105.941 43.803,106.763C47.296,108.902 51.17,110.55 55.354,111.59C66.763,114.425 78.253,112.182 87.435,106.298ZM82.551,92.833C88.883,87.759 92.94,79.962 92.94,71.225C92.94,68.882 92.648,66.606 92.099,64.432C88.767,65.093 85.435,65.749 82.102,66.399C85.197,64.958 88.295,63.522 91.395,62.091C87.807,51.839 78.352,44.333 67.064,43.606C66.632,47.245 66.194,50.882 65.75,54.519C65.304,50.867 64.865,47.214 64.431,43.561C52.861,43.903 43.065,51.361 39.271,61.705C42.649,63.264 46.025,64.828 49.399,66.399C45.756,65.688 42.115,64.972 38.476,64.248C37.896,66.478 37.587,68.816 37.587,71.225C37.587,80.219 41.887,88.217 48.541,93.274C50.905,90.719 53.272,88.168 55.644,85.621C53.965,88.647 52.28,91.67 50.59,94.691C54.845,97.358 59.876,98.901 65.264,98.901C70.956,98.901 76.25,97.179 80.651,94.227C79.048,91.361 77.45,88.492 75.856,85.621C78.091,88.022 80.323,90.425 82.551,92.833ZM82.102,66.399C84.403,73.483 81.882,81.243 75.856,85.621C69.83,89.999 61.67,89.999 55.644,85.621C49.619,81.243 47.097,73.483 49.399,66.399C51.7,59.315 58.302,54.519 65.75,54.519C73.199,54.519 79.8,59.315 82.102,66.399ZM65.75,56.512C57.361,56.512 50.551,63.323 50.551,71.712C50.551,80.101 57.361,86.911 65.75,86.911C74.139,86.911 80.95,80.101 80.95,71.712C80.95,63.323 74.139,56.512 65.75,56.512Z" style="fill:rgb(57,63,74);"/>
        </g>
    </g>
</svg>
