<?xml version="1.0" encoding="UTF-8" standalone="no"?>
<!DOCTYPE svg PUBLIC "-//W3C//DTD SVG 1.1//EN" "http://www.w3.org/Graphics/SVG/1.1/DTD/svg11.dtd">
<svg width="100%" height="100%" viewBox="0 0 1024 512" version="1.1" xmlns="http://www.w3.org/2000/svg" xmlns:xlink="http://www.w3.org/1999/xlink" xml:space="preserve" xmlns:serif="http://www.serif.com/" style="fill-rule:evenodd;clip-rule:evenodd;stroke-linejoin:round;stroke-miterlimit:2;">
    <rect x="0" y="0" width="1024" height="512" style="fill:none;"/>
    <g transform="matrix(-0.301398,-0.251612,-0.251433,0.301184,875.043655,374.810002)">
        <g id="Grappin">
            <path d="M238.793,171.048C229.494,158.07 233.726,150.517 239.036,147.859C217.291,150.796 223.659,170.698 228.738,185.758L224.729,187.427C224.729,187.427 223.206,183.254 219.917,184.669C210.884,188.553 184.781,199.675 184.262,200.967C184.76,202.925 220.091,209.147 223.67,208.049C224.215,207.775 224.846,207.101 225.331,206.509C208.041,238.196 231.19,236.838 231.19,236.838C223.594,229.842 233.309,218.592 237.152,212.189C237.152,212.189 240.551,222.117 243.476,228.788C265.901,279.941 331.786,261.588 340.061,256.526C271.895,252.607 256.648,220.988 253.696,202.021C253.65,201.724 254.107,201.571 254.923,201.523C257.009,210.462 263.1,216.939 270.28,216.939C271.619,216.939 272.92,216.714 274.165,216.289C280.038,216.026 287.664,215.611 290.013,215.611C298.914,215.611 306.14,205.659 306.14,193.401C306.14,181.142 298.914,171.19 290.013,171.19C286.01,171.19 271.263,172.08 267.824,172.08C268.958,172.08 270.065,172.242 271.134,172.549C270.851,172.529 270.566,172.518 270.28,172.518C263.17,172.518 257.127,178.87 254.985,187.675C254.039,187.735 253.481,187.771 253.481,187.771C253.481,187.771 247.803,165.047 332.486,133.461C270.759,119.131 237.653,166.459 238.793,171.048L239.017,171.358C238.905,171.304 238.83,171.199 238.793,171.048Z" style="fill:white;"/>
        </g>
    </g>
</svg>
