<?xml version="1.0" encoding="UTF-8" standalone="no"?>
<!DOCTYPE svg PUBLIC "-//W3C//DTD SVG 1.1//EN" "http://www.w3.org/Graphics/SVG/1.1/DTD/svg11.dtd">
<svg width="100%" height="100%" viewBox="0 0 1024 512" version="1.1" xmlns="http://www.w3.org/2000/svg" xmlns:xlink="http://www.w3.org/1999/xlink" xml:space="preserve" xmlns:serif="http://www.serif.com/" style="fill-rule:evenodd;clip-rule:evenodd;stroke-linejoin:round;stroke-miterlimit:2;">
    <rect x="0" y="0" width="1024" height="512" style="fill:none;"/>
    <g id="Aimant" transform="matrix(-0.774214,-0.774214,-0.745693,0.745693,1652.225578,744.28552)">
        <path d="M926.929,176.461L948.191,176.461L948.191,239.953C948.191,250.998 946.942,259.768 944.443,266.265C941.944,272.761 937.434,278.046 930.912,282.119C924.391,286.192 915.833,288.228 905.238,288.228C894.943,288.228 886.523,286.454 879.976,282.906C873.429,279.358 868.757,274.223 865.958,267.502C863.159,260.78 861.76,251.597 861.76,239.953L861.76,176.461L884.437,175.753L884.437,239.171C884.437,248.716 885.324,255.75 887.098,260.273C888.872,264.795 891.921,268.281 896.244,270.73C900.566,273.178 915.56,272.686 920.107,267.839C924.655,262.991 926.929,253.671 926.929,239.878L926.929,176.461Z" style="fill:white;"/>
        <clipPath id="_clip1">
            <path d="M926.929,176.461L948.191,176.461L948.191,239.953C948.191,250.998 946.942,259.768 944.443,266.265C941.944,272.761 937.434,278.046 930.912,282.119C924.391,286.192 915.833,288.228 905.238,288.228C894.943,288.228 886.523,286.454 879.976,282.906C873.429,279.358 868.757,274.223 865.958,267.502C863.159,260.78 861.76,251.597 861.76,239.953L861.76,176.461L884.437,175.753L884.437,239.171C884.437,248.716 885.324,255.75 887.098,260.273C888.872,264.795 891.921,268.281 896.244,270.73C900.566,273.178 915.56,272.686 920.107,267.839C924.655,262.991 926.929,253.671 926.929,239.878L926.929,176.461Z"/>
        </clipPath>
        <g clip-path="url(#_clip1)">
            <g transform="matrix(1.184048,0,0,1.296337,-163.952898,-43.365623)">
                <rect x="861.76" y="156.774" width="28.824" height="31.775" style="fill:rgb(255,69,69);"/>
            </g>
            <g transform="matrix(1.184048,0,0,1.296337,-99.938991,-43.365623)">
                <rect x="861.76" y="156.774" width="28.824" height="31.775" style="fill:rgb(73,188,255);"/>
            </g>
        </g>
    </g>
</svg>
