<?xml version="1.0" encoding="UTF-8" standalone="no"?>
<!DOCTYPE svg PUBLIC "-//W3C//DTD SVG 1.1//EN" "http://www.w3.org/Graphics/SVG/1.1/DTD/svg11.dtd">
<svg width="100%" height="100%" viewBox="0 0 1024 512" version="1.1" xmlns="http://www.w3.org/2000/svg" xmlns:xlink="http://www.w3.org/1999/xlink" xml:space="preserve" xmlns:serif="http://www.serif.com/" style="fill-rule:evenodd;clip-rule:evenodd;stroke-linejoin:round;stroke-miterlimit:2;">
    <rect x="0" y="0" width="1024" height="512" style="fill:none;"/>
    <g transform="matrix(0.491768,0,0,0.491768,271.613004,120.279011)">
        <g id="Téleporteur">
            <path d="M199.265,244.418C200.885,247.851 202.493,252.019 203.988,256.317C218.083,270.558 231.088,233.657 223.27,194.796C234.026,216.308 244.782,259.332 244.782,259.332C244.782,271.204 235.142,280.843 223.27,280.843C218.322,280.843 213.762,279.169 210.126,276.357C211.097,279.904 211.667,282.183 211.667,282.183C211.667,287.108 208.921,291.397 204.879,293.602L204.879,295.18L122.512,295.18L122.512,294.495C117.383,292.755 113.687,287.898 113.687,282.183C113.687,282.183 114.083,280.6 114.777,278.019C111.635,279.816 107.997,280.843 104.122,280.843C92.249,280.843 82.61,271.204 82.61,259.332C82.61,259.332 93.366,216.308 104.122,194.796C97.162,221.811 98.402,254.856 122.056,254.365C123.525,250.284 125.084,246.407 126.643,243.275C112.923,232.357 104.122,215.516 104.122,196.636C104.122,163.757 130.816,137.062 163.696,137.062C196.576,137.062 223.27,163.757 223.27,196.636C223.27,216.188 213.831,233.553 199.265,244.418ZM126.67,243.296C125.895,249.256 126.815,255.212 128.464,260.608C129.679,257.229 130.97,254.021 132.261,251.439C131.45,257.522 132.805,263.605 134.791,268.802C151.521,279.255 169.541,278.53 188.599,268.802C190.586,263.605 191.941,257.522 191.13,251.439C192.782,254.745 194.435,259.078 195.928,263.48C197.999,257.784 199.398,251.288 198.838,244.733C188.984,251.949 176.834,256.211 163.696,256.211C149.708,256.211 136.84,251.379 126.67,243.296ZM163.696,149.168C137.497,149.168 116.227,170.438 116.227,196.636C116.227,222.835 137.497,244.105 163.696,244.105C189.894,244.105 211.164,222.835 211.164,196.636C211.164,170.438 189.894,149.168 163.696,149.168ZM163.696,155.453C186.425,155.453 204.879,173.907 204.879,196.636C204.879,219.366 186.425,237.82 163.696,237.82C140.966,237.82 122.512,219.366 122.512,196.636C122.512,173.907 140.966,155.453 163.696,155.453ZM143.513,232.243C144.903,216.865 144.601,198.888 144.601,198.888C143.673,195.423 141.55,192.595 138.794,190.726C138.692,183.927 139.777,177.827 142.187,172.506C146.03,186.785 149.637,206.109 148.329,225.449C150.347,215.952 152.362,205.205 154.187,194.851C155.914,204.563 157.796,214.524 159.681,223.394C158.28,233.655 168.414,234.833 167.71,223.394C169.596,214.524 171.477,204.563 173.205,194.851C175.03,205.205 177.044,215.952 179.063,225.449C177.755,206.109 181.362,186.785 185.205,172.506C187.615,177.827 188.7,183.927 188.597,190.726C185.842,192.595 183.719,195.423 182.79,198.888C182.79,198.888 182.488,216.865 183.878,232.243C194.847,225.464 202.163,213.328 202.163,199.497C202.163,178.266 184.926,161.03 163.696,161.03C142.465,161.03 125.229,178.266 125.229,199.497C125.229,213.328 132.544,225.464 143.513,232.243ZM163.898,177.469C169.822,177.469 174.631,182.278 174.631,188.201C174.631,194.125 169.822,198.934 163.898,198.934C157.975,198.934 153.166,194.125 153.166,188.201C153.166,182.278 157.975,177.469 163.898,177.469Z" style="fill:white;"/>
        </g>
    </g>
</svg>
