<?xml version="1.0" encoding="UTF-8" standalone="no"?>
<!DOCTYPE svg PUBLIC "-//W3C//DTD SVG 1.1//EN" "http://www.w3.org/Graphics/SVG/1.1/DTD/svg11.dtd">
<svg width="100%" height="100%" viewBox="0 0 1024 512" version="1.1" xmlns="http://www.w3.org/2000/svg" xmlns:xlink="http://www.w3.org/1999/xlink" xml:space="preserve" xmlns:serif="http://www.serif.com/" style="fill-rule:evenodd;clip-rule:evenodd;stroke-linejoin:round;stroke-miterlimit:2;">
    <rect x="0" y="0" width="1024" height="512" style="fill:none;"/>
    <g transform="matrix(0.745895,-0,-0,0.715062,161.957328,58.932002)">
        <g id="réacteur">
            <path d="M141.94,462.445C141.044,462.673 140.314,462.9 139.801,463.121C127.813,468.283 119.943,481.064 99.964,484.957L63.769,483.299L59.348,485.233L30.336,479.983L23.087,463.769L37.687,452.995L81.086,453.079C81.086,453.079 76.239,434.761 77.015,434.037C77.524,434.037 77.706,434.019 77.487,433.979C77.251,433.936 77.098,433.96 77.015,434.037C72.354,434.043 40.221,432.561 36.033,432.426C35.589,432.411 35.459,432.412 35.71,432.432C35.805,432.439 35.878,432.443 35.931,432.445C31.351,433.231 31.406,421.421 34.986,420.398L74.406,419.39L75.419,405.349L39.596,403.581L28.986,389.434L40.038,374.845L75.419,372.856L81.495,358.139C80.876,357.52 33.949,358.573 34.62,351.065C34.399,342.666 34.564,344.309 41.672,344.309C48.78,344.309 86.844,343.036 86.844,343.036L91.456,325.171L32.581,315.444L33.962,304.945L55.238,296.656L95.578,299.971C111.312,300.326 124.906,309.744 120.765,328.246L144.651,328.706L145.498,330.194L161.269,330.746C161.269,330.746 163.848,356.121 171.217,355.461C168.666,361.231 167.449,368.256 172.667,373.413C173.294,374.032 174.189,375.24 175.183,376.587C175.584,377.205 176,377.757 176.417,378.247C177.913,380.227 179.469,382.116 180.586,382.591C180.882,382.717 181.182,382.834 181.484,382.945L183.613,392.639C183.613,392.639 172.092,393.314 171.783,396.501C171.278,401.71 173.299,420.13 179.341,425.185C181.868,427.3 187.301,427.933 192.767,427.955L191.761,439.058L190.268,442.13L189.595,450.618L162.847,450.972C162.847,450.972 149.743,460.06 144.115,461.948C143.57,462.061 143.056,462.175 142.579,462.288C142.549,462.289 142.52,462.289 142.491,462.289C142.239,462.289 142.058,462.343 141.94,462.445ZM36.033,432.426C36.057,432.442 36.026,432.448 35.931,432.445C35.965,432.439 35.999,432.433 36.033,432.426Z" style="fill:white;"/>
        </g>
    </g>
    <g id="bateau">
    </g>
</svg>
