<?xml version="1.0" encoding="UTF-8" standalone="no"?>
<!DOCTYPE svg PUBLIC "-//W3C//DTD SVG 1.1//EN" "http://www.w3.org/Graphics/SVG/1.1/DTD/svg11.dtd">
<svg width="100%" height="100%" viewBox="0 0 4096 2048" version="1.1" xmlns="http://www.w3.org/2000/svg" xmlns:xlink="http://www.w3.org/1999/xlink" xml:space="preserve" xmlns:serif="http://www.serif.com/" style="fill-rule:evenodd;clip-rule:evenodd;stroke-linejoin:round;stroke-miterlimit:2;">
    <g>
        <g transform="matrix(2.206919,0,0,2.206919,-85.906169,-917.873272)">
            <g id="mid-waves-3" serif:id="mid waves 3">
                <path d="M1894.636,720.14C1894.641,721.706 1894.636,1126.775 1894.636,1126.775L38.946,1126.775L38.946,883.383L39.237,883.383L39.237,848.956C39.237,848.956 38.105,735.233 38.946,718.736C106.46,688.539 168.871,771.595 254.181,811.79C478.38,679.749 705.687,631.668 952.907,814.26C1229.156,727.926 1443.207,697.673 1591.99,726.267C1591.99,726.267 1833.054,703.135 1894.636,720.14Z" style="fill:rgb(165,151,127);"/>
                <clipPath id="_clip1">
                    <path d="M1894.636,720.14C1894.641,721.706 1894.636,1126.775 1894.636,1126.775L38.946,1126.775L38.946,883.383L39.237,883.383L39.237,848.956C39.237,848.956 38.105,735.233 38.946,718.736C106.46,688.539 168.871,771.595 254.181,811.79C478.38,679.749 705.687,631.668 952.907,814.26C1229.156,727.926 1443.207,697.673 1591.99,726.267C1591.99,726.267 1833.054,703.135 1894.636,720.14Z"/>
                </clipPath>
                <g clip-path="url(#_clip1)">
                    <g transform="matrix(0.902298,0,0,0.902298,46.729291,55.004637)">
                        <path d="M-8.626,952.886C84.609,959.61 125.616,981.952 200.776,1024C130.976,1015.98 61.175,1003.453 -8.626,1022.968L-8.626,952.886ZM-8.626,1085.22L100.388,1024C137.732,1041.298 178.077,1060.963 272.75,1104.255C250.899,1074.23 238.298,1048.83 226.836,1024C296.885,1054.233 414.301,1096.458 649.988,1183.674L-8.626,1188.637L-8.626,1085.22ZM-8.626,792.358L-8.626,742.459C94.325,692.651 265.402,951.995 667.882,1108.452C452.495,1114.634 79.766,758.913 -8.626,792.358ZM257.703,834.976C498.904,687.316 747.703,670.952 962.699,826.29L817.512,867.24C879.578,926.899 948.548,942.079 1024,975.2C1003.308,994.283 855.43,1035.168 855.43,1035.168C775.098,1018.257 692.589,986.008 665.361,834.976L760.43,873.444L756.707,792.785L806.344,844.903L808.826,813.88L915.545,820.085C770.381,712.384 563.227,730.826 318.79,858.553L257.703,834.976ZM343.482,872.203L421.66,830.012C472.901,878.822 505.396,935.077 533.342,983.886L343.482,872.203ZM509.765,906.949C522.778,898.749 562.731,871.004 597.87,844.903C619.789,874.892 652.3,904.881 694.074,934.87L656.193,916.876L664.879,961.752C707.991,999.615 759.482,1026.305 812.548,1050.896L728.166,1064.546C649.602,1052.285 598.243,1024.715 559.401,992.572C541.259,972.017 524.598,944.05 509.765,906.949ZM931.676,916.876L1157.523,919.358C1129.468,931.732 1097.888,945.867 1063.214,961.55L931.676,916.876ZM568.088,1131.555C757.743,1116.264 810.686,1099.278 921.749,1048.414C986.327,1069.136 1047.446,1115.797 1105.405,1186.156L728.166,1188.637C666.37,1159.065 616.578,1144.496 568.088,1131.555ZM956.495,1035.168L1121.537,976.441L1178.619,961.55C1376.552,1067.561 1559.367,1148.808 1730.827,1188.637L1328.77,1188.637L1173.655,1008.704L1138.91,983.886C1173.117,1050.007 1199.425,1104.725 1236.942,1177.469C1120.993,1107.569 1035.94,1068.565 956.495,1035.168ZM891.033,875.992C1053.728,855.763 1402.718,696.994 1707.715,750.206C1901.509,731.905 1983.457,735.189 2048,741.832L2048,792.357C1715.663,674.103 1891.375,915.883 2004.332,952.886C1955.685,961.813 1870.454,1013.216 1752.31,1075.093L1699.959,1048.414L1608.519,905.708L1707.327,916.876L1617.826,828.771C1661.923,814.971 1734.195,836.859 1827.929,885.931L1756.188,823.808L1862.682,869.929C1862.682,869.929 1721.539,777.939 1642.737,782.281C1534.505,788.244 1395.436,760.382 1213.287,905.708L891.033,875.992ZM1256.099,961.55L1351.727,891.748L1484.738,994.511L1405.241,837.458C1517.215,856.879 1620.466,929.281 1689.411,1064.546C1699.358,1086.052 1730.827,1085.021 1730.827,1085.021C1683.292,1100.353 1637.544,1103.168 1593.318,1095.336C1473.311,1067.841 1362.863,1018.84 1256.099,961.55ZM1756.188,1118.526C1798.76,1097.836 1851.952,1067.854 1920.998,1024C1937.961,1043.166 1957.563,1052.717 2048,1085.241L2048,1188.637C1919.065,1175.266 1822.25,1151.752 1756.188,1118.526ZM1928.831,1012.832C1958.355,997.252 1989.52,951.92 2048,952.886L2048,1023.02C2004.586,1034.374 1965.625,1044.504 1928.831,1012.832Z" style="fill:rgb(151,138,116);"/>
                        <clipPath id="_clip2">
                            <path d="M-8.626,952.886C84.609,959.61 125.616,981.952 200.776,1024C130.976,1015.98 61.175,1003.453 -8.626,1022.968L-8.626,952.886ZM-8.626,1085.22L100.388,1024C137.732,1041.298 178.077,1060.963 272.75,1104.255C250.899,1074.23 238.298,1048.83 226.836,1024C296.885,1054.233 414.301,1096.458 649.988,1183.674L-8.626,1188.637L-8.626,1085.22ZM-8.626,792.358L-8.626,742.459C94.325,692.651 265.402,951.995 667.882,1108.452C452.495,1114.634 79.766,758.913 -8.626,792.358ZM257.703,834.976C498.904,687.316 747.703,670.952 962.699,826.29L817.512,867.24C879.578,926.899 948.548,942.079 1024,975.2C1003.308,994.283 855.43,1035.168 855.43,1035.168C775.098,1018.257 692.589,986.008 665.361,834.976L760.43,873.444L756.707,792.785L806.344,844.903L808.826,813.88L915.545,820.085C770.381,712.384 563.227,730.826 318.79,858.553L257.703,834.976ZM343.482,872.203L421.66,830.012C472.901,878.822 505.396,935.077 533.342,983.886L343.482,872.203ZM509.765,906.949C522.778,898.749 562.731,871.004 597.87,844.903C619.789,874.892 652.3,904.881 694.074,934.87L656.193,916.876L664.879,961.752C707.991,999.615 759.482,1026.305 812.548,1050.896L728.166,1064.546C649.602,1052.285 598.243,1024.715 559.401,992.572C541.259,972.017 524.598,944.05 509.765,906.949ZM931.676,916.876L1157.523,919.358C1129.468,931.732 1097.888,945.867 1063.214,961.55L931.676,916.876ZM568.088,1131.555C757.743,1116.264 810.686,1099.278 921.749,1048.414C986.327,1069.136 1047.446,1115.797 1105.405,1186.156L728.166,1188.637C666.37,1159.065 616.578,1144.496 568.088,1131.555ZM956.495,1035.168L1121.537,976.441L1178.619,961.55C1376.552,1067.561 1559.367,1148.808 1730.827,1188.637L1328.77,1188.637L1173.655,1008.704L1138.91,983.886C1173.117,1050.007 1199.425,1104.725 1236.942,1177.469C1120.993,1107.569 1035.94,1068.565 956.495,1035.168ZM891.033,875.992C1053.728,855.763 1402.718,696.994 1707.715,750.206C1901.509,731.905 1983.457,735.189 2048,741.832L2048,792.357C1715.663,674.103 1891.375,915.883 2004.332,952.886C1955.685,961.813 1870.454,1013.216 1752.31,1075.093L1699.959,1048.414L1608.519,905.708L1707.327,916.876L1617.826,828.771C1661.923,814.971 1734.195,836.859 1827.929,885.931L1756.188,823.808L1862.682,869.929C1862.682,869.929 1721.539,777.939 1642.737,782.281C1534.505,788.244 1395.436,760.382 1213.287,905.708L891.033,875.992ZM1256.099,961.55L1351.727,891.748L1484.738,994.511L1405.241,837.458C1517.215,856.879 1620.466,929.281 1689.411,1064.546C1699.358,1086.052 1730.827,1085.021 1730.827,1085.021C1683.292,1100.353 1637.544,1103.168 1593.318,1095.336C1473.311,1067.841 1362.863,1018.84 1256.099,961.55ZM1756.188,1118.526C1798.76,1097.836 1851.952,1067.854 1920.998,1024C1937.961,1043.166 1957.563,1052.717 2048,1085.241L2048,1188.637C1919.065,1175.266 1822.25,1151.752 1756.188,1118.526ZM1928.831,1012.832C1958.355,997.252 1989.52,951.92 2048,952.886L2048,1023.02C2004.586,1034.374 1965.625,1044.504 1928.831,1012.832Z"/>
                        </clipPath>
                        <g clip-path="url(#_clip2)">
                            <g transform="matrix(1,0,0,1,0,21.041429)">
                                <path d="M-8.626,952.886C84.609,959.61 125.616,981.952 200.776,1024C130.976,1015.98 61.175,1003.453 -8.626,1022.968L-8.626,952.886ZM-8.626,1085.22L100.388,1024C137.732,1041.298 178.077,1060.963 272.75,1104.255C250.899,1074.23 238.298,1048.83 226.836,1024C296.885,1054.233 414.301,1096.458 649.988,1183.674L-8.626,1188.637L-8.626,1085.22ZM-8.626,792.358L-8.626,742.459C94.325,692.651 265.402,951.995 667.882,1108.452C452.495,1114.634 79.766,758.913 -8.626,792.358ZM257.703,834.976C498.904,687.316 747.703,670.952 962.699,826.29L817.512,867.24C879.578,926.899 948.548,942.079 1024,975.2C1003.308,994.283 855.43,1035.168 855.43,1035.168C775.098,1018.257 692.589,986.008 665.361,834.976L760.43,873.444L756.707,792.785L806.344,844.903L808.826,813.88L915.545,820.085C770.381,712.384 563.227,730.826 318.79,858.553L257.703,834.976ZM343.482,872.203L421.66,830.012C472.901,878.822 505.396,935.077 533.342,983.886L343.482,872.203ZM509.765,906.949C522.778,898.749 562.731,871.004 597.87,844.903C619.789,874.892 652.3,904.881 694.074,934.87L656.193,916.876L664.879,961.752C707.991,999.615 759.482,1026.305 812.548,1050.896L728.166,1064.546C649.602,1052.285 598.243,1024.715 559.401,992.572C541.259,972.017 524.598,944.05 509.765,906.949ZM931.676,916.876L1157.523,919.358C1129.468,931.732 1097.888,945.867 1063.214,961.55L931.676,916.876ZM568.088,1131.555C757.743,1116.264 810.686,1099.278 921.749,1048.414C986.327,1069.136 1047.446,1115.797 1105.405,1186.156L728.166,1188.637C666.37,1159.065 616.578,1144.496 568.088,1131.555ZM956.495,1035.168L1121.537,976.441L1178.619,961.55C1376.552,1067.561 1559.367,1148.808 1730.827,1188.637L1328.77,1188.637L1173.655,1008.704L1138.91,983.886C1173.117,1050.007 1199.425,1104.725 1236.942,1177.469C1120.993,1107.569 1035.94,1068.565 956.495,1035.168ZM891.033,875.992C1053.728,855.763 1402.718,696.994 1707.715,750.206C1901.509,731.905 1983.457,735.189 2048,741.832L2048,792.357C1715.663,674.103 1891.375,915.883 2004.332,952.886C1955.685,961.813 1870.454,1013.216 1752.31,1075.093L1699.959,1048.414L1608.519,905.708L1707.327,916.876L1617.826,828.771C1661.923,814.971 1734.195,836.859 1827.929,885.931L1756.188,823.808L1862.682,869.929C1862.682,869.929 1721.539,777.939 1642.737,782.281C1534.505,788.244 1395.436,760.382 1213.287,905.708L891.033,875.992ZM1256.099,961.55L1351.727,891.748L1484.738,994.511L1405.241,837.458C1517.215,856.879 1620.466,929.281 1689.411,1064.546C1699.358,1086.052 1730.827,1085.021 1730.827,1085.021C1683.292,1100.353 1637.544,1103.168 1593.318,1095.336C1473.311,1067.841 1362.863,1018.84 1256.099,961.55ZM1756.188,1118.526C1798.76,1097.836 1851.952,1067.854 1920.998,1024C1937.961,1043.166 1957.563,1052.717 2048,1085.241L2048,1188.637C1919.065,1175.266 1822.25,1151.752 1756.188,1118.526ZM1928.831,1012.832C1958.355,997.252 1989.52,951.92 2048,952.886L2048,1023.02C2004.586,1034.374 1965.625,1044.504 1928.831,1012.832Z" style="fill-opacity:0.1;"/>
                            </g>
                        </g>
                    </g>
                </g>
            </g>
        </g>
    </g>
</svg>
