<?xml version="1.0" encoding="UTF-8" standalone="no"?>
<!DOCTYPE svg PUBLIC "-//W3C//DTD SVG 1.1//EN" "http://www.w3.org/Graphics/SVG/1.1/DTD/svg11.dtd">
<svg width="100%" height="100%" viewBox="0 0 4096 2048" version="1.1" xmlns="http://www.w3.org/2000/svg" xmlns:xlink="http://www.w3.org/1999/xlink" xml:space="preserve" xmlns:serif="http://www.serif.com/" style="fill-rule:evenodd;clip-rule:evenodd;stroke-linejoin:round;stroke-miterlimit:2;">
    <g>
        <g transform="matrix(2.206919,0,0,2.206919,-85.906169,-917.873272)">
            <g id="mid-waves-3" serif:id="mid waves 3">
                <path d="M1894.636,720.14C1894.641,721.706 1894.636,1126.775 1894.636,1126.775L38.946,1126.775L38.946,883.383L39.237,883.383L39.237,848.956C39.237,848.956 38.105,735.233 38.946,718.736C95.804,717.375 163.229,796.043 248.539,836.238C435.519,728.935 582.416,695.591 751.617,749.567C813.861,769.423 962.31,842.469 962.31,842.469C962.31,842.469 1228.656,723.61 1371.799,741.156C1419.163,743.329 1544.766,665.109 1794.131,779.756C1821.569,722.156 1833.054,703.135 1894.636,720.14Z" style="fill:rgb(165,151,127);"/>
                <clipPath id="_clip1">
                    <path d="M1894.636,720.14C1894.641,721.706 1894.636,1126.775 1894.636,1126.775L38.946,1126.775L38.946,883.383L39.237,883.383L39.237,848.956C39.237,848.956 38.105,735.233 38.946,718.736C95.804,717.375 163.229,796.043 248.539,836.238C435.519,728.935 582.416,695.591 751.617,749.567C813.861,769.423 962.31,842.469 962.31,842.469C962.31,842.469 1228.656,723.61 1371.799,741.156C1419.163,743.329 1544.766,665.109 1794.131,779.756C1821.569,722.156 1833.054,703.135 1894.636,720.14Z"/>
                </clipPath>
                <g clip-path="url(#_clip1)">
                    <g transform="matrix(0.974412,0,0,0.974412,-48.957016,-48.662732)">
                        <path d="M90.211,988.607C140.917,1006.514 178.417,1035.809 245.326,1050.653C330.815,1053.403 419.392,1049.977 509.021,1044.448L698.261,1123.556C623.66,1171.028 516.923,1182.079 380.276,1159.233C266.659,1142.268 166.598,1091.151 90.211,1053.503L90.211,988.607ZM90.211,1111.147C138.39,1145.368 287.408,1175.711 443.873,1205.767L90.211,1206.911L90.211,1111.147ZM322.883,912.601C526.341,786.835 730.06,752.435 979.018,895.538C747.603,784.015 541.89,813.167 322.883,912.601ZM254.537,1032.136C311.963,1004.485 362.239,945.096 502.816,880.026C562.989,908.82 607.582,929.824 634.664,942.072L614.499,895.538C885.946,968.011 846.892,942.628 792.881,858.31C884.915,875.303 989.359,934.356 1081.394,988.607C879.711,1048.494 830.513,1075.411 783.574,1101.84C734.093,1056.33 650.408,1023.258 536.941,1001.016C469.871,985.141 354.327,1043.595 254.537,1032.136ZM569.516,1205.767C1001.667,1049.901 1110.531,945.17 1404.032,1041.346C1404.032,1041.346 1275.55,1123.263 1042.615,1187.153C881.813,1202.148 569.516,1205.767 569.516,1205.767ZM1499.816,1045.999C1622.161,992.429 1755.699,959.061 1994.631,988.607L1994.631,1053.551C1836.556,1109.167 1671.401,1090.054 1499.816,1045.999ZM1098.844,1205.767C1331.454,1115.502 1372.543,1047.179 1471.119,1101.84L1438.158,1058.408C1606.891,1157.458 1843.045,1205.397 1994.631,1111.167L1994.631,1206.911L1098.844,1205.767ZM90.211,793.173C152.719,792.783 211.322,883.259 322.883,923.459C316.213,1005.068 273.574,1036.538 173.973,988.607C149.867,891.125 121.358,849.128 90.211,840.354L90.211,793.173ZM1024,928.112C1162.053,874.599 1352.844,796.978 1438.158,821.083L1146.542,951.379L1024,928.112ZM1169.809,977.902C1249.681,939.668 1462.036,854.77 1695.648,858.31L1470.732,816.563C1584.886,802.125 1629.081,759.363 1890.705,858.31C1927.802,784.015 1961.628,780.046 1994.631,793.753L1994.631,839.958C1921.578,812.841 1908.212,897.538 1879.847,912.601L1777.471,858.31L1846.497,912.601L1618.478,926.561L1383.867,997.138L1169.809,977.902Z" style="fill:rgb(151,138,116);"/>
                        <clipPath id="_clip2">
                            <path d="M90.211,988.607C140.917,1006.514 178.417,1035.809 245.326,1050.653C330.815,1053.403 419.392,1049.977 509.021,1044.448L698.261,1123.556C623.66,1171.028 516.923,1182.079 380.276,1159.233C266.659,1142.268 166.598,1091.151 90.211,1053.503L90.211,988.607ZM90.211,1111.147C138.39,1145.368 287.408,1175.711 443.873,1205.767L90.211,1206.911L90.211,1111.147ZM322.883,912.601C526.341,786.835 730.06,752.435 979.018,895.538C747.603,784.015 541.89,813.167 322.883,912.601ZM254.537,1032.136C311.963,1004.485 362.239,945.096 502.816,880.026C562.989,908.82 607.582,929.824 634.664,942.072L614.499,895.538C885.946,968.011 846.892,942.628 792.881,858.31C884.915,875.303 989.359,934.356 1081.394,988.607C879.711,1048.494 830.513,1075.411 783.574,1101.84C734.093,1056.33 650.408,1023.258 536.941,1001.016C469.871,985.141 354.327,1043.595 254.537,1032.136ZM569.516,1205.767C1001.667,1049.901 1110.531,945.17 1404.032,1041.346C1404.032,1041.346 1275.55,1123.263 1042.615,1187.153C881.813,1202.148 569.516,1205.767 569.516,1205.767ZM1499.816,1045.999C1622.161,992.429 1755.699,959.061 1994.631,988.607L1994.631,1053.551C1836.556,1109.167 1671.401,1090.054 1499.816,1045.999ZM1098.844,1205.767C1331.454,1115.502 1372.543,1047.179 1471.119,1101.84L1438.158,1058.408C1606.891,1157.458 1843.045,1205.397 1994.631,1111.167L1994.631,1206.911L1098.844,1205.767ZM90.211,793.173C152.719,792.783 211.322,883.259 322.883,923.459C316.213,1005.068 273.574,1036.538 173.973,988.607C149.867,891.125 121.358,849.128 90.211,840.354L90.211,793.173ZM1024,928.112C1162.053,874.599 1352.844,796.978 1438.158,821.083L1146.542,951.379L1024,928.112ZM1169.809,977.902C1249.681,939.668 1462.036,854.77 1695.648,858.31L1470.732,816.563C1584.886,802.125 1629.081,759.363 1890.705,858.31C1927.802,784.015 1961.628,780.046 1994.631,793.753L1994.631,839.958C1921.578,812.841 1908.212,897.538 1879.847,912.601L1777.471,858.31L1846.497,912.601L1618.478,926.561L1383.867,997.138L1169.809,977.902Z"/>
                        </clipPath>
                        <g clip-path="url(#_clip2)">
                            <g transform="matrix(1,0,0,1,-0,19.632044)">
                                <path d="M90.211,988.607C140.917,1006.514 178.417,1035.809 245.326,1050.653C330.815,1053.403 419.392,1049.977 509.021,1044.448L698.261,1123.556C623.66,1171.028 516.923,1182.079 380.276,1159.233C266.659,1142.268 166.598,1091.151 90.211,1053.503L90.211,988.607ZM90.211,1111.147C138.39,1145.368 287.408,1175.711 443.873,1205.767L90.211,1206.911L90.211,1111.147ZM322.883,912.601C526.341,786.835 730.06,752.435 979.018,895.538C747.603,784.015 541.89,813.167 322.883,912.601ZM254.537,1032.136C311.963,1004.485 362.239,945.096 502.816,880.026C562.989,908.82 607.582,929.824 634.664,942.072L614.499,895.538C885.946,968.011 846.892,942.628 792.881,858.31C884.915,875.303 989.359,934.356 1081.394,988.607C879.711,1048.494 830.513,1075.411 783.574,1101.84C734.093,1056.33 650.408,1023.258 536.941,1001.016C469.871,985.141 354.327,1043.595 254.537,1032.136ZM569.516,1205.767C1001.667,1049.901 1110.531,945.17 1404.032,1041.346C1404.032,1041.346 1275.55,1123.263 1042.615,1187.153C881.813,1202.148 569.516,1205.767 569.516,1205.767ZM1499.816,1045.999C1622.161,992.429 1755.699,959.061 1994.631,988.607L1994.631,1053.551C1836.556,1109.167 1671.401,1090.054 1499.816,1045.999ZM1098.844,1205.767C1331.454,1115.502 1372.543,1047.179 1471.119,1101.84L1438.158,1058.408C1606.891,1157.458 1843.045,1205.397 1994.631,1111.167L1994.631,1206.911L1098.844,1205.767ZM90.211,793.173C152.719,792.783 211.322,883.259 322.883,923.459C316.213,1005.068 273.574,1036.538 173.973,988.607C149.867,891.125 121.358,849.128 90.211,840.354L90.211,793.173ZM1024,928.112C1162.053,874.599 1352.844,796.978 1438.158,821.083L1146.542,951.379L1024,928.112ZM1169.809,977.902C1249.681,939.668 1462.036,854.77 1695.648,858.31L1470.732,816.563C1584.886,802.125 1629.081,759.363 1890.705,858.31C1927.802,784.015 1961.628,780.046 1994.631,793.753L1994.631,839.958C1921.578,812.841 1908.212,897.538 1879.847,912.601L1777.471,858.31L1846.497,912.601L1618.478,926.561L1383.867,997.138L1169.809,977.902Z" style="fill-opacity:0.1;"/>
                            </g>
                        </g>
                    </g>
                </g>
            </g>
        </g>
    </g>
</svg>
