<?xml version="1.0" encoding="UTF-8" standalone="no"?>
<!DOCTYPE svg PUBLIC "-//W3C//DTD SVG 1.1//EN" "http://www.w3.org/Graphics/SVG/1.1/DTD/svg11.dtd">
<svg width="100%" height="100%" viewBox="0 0 4096 2048" version="1.1" xmlns="http://www.w3.org/2000/svg" xmlns:xlink="http://www.w3.org/1999/xlink" xml:space="preserve" xmlns:serif="http://www.serif.com/" style="fill-rule:evenodd;clip-rule:evenodd;stroke-linejoin:round;stroke-miterlimit:2;">
    <g>
        <g transform="matrix(2.206919,0,0,2.206919,-85.906169,-917.873272)">
            <g id="mid-waves-3" serif:id="mid waves 3">
                <path d="M1894.636,720.14C1894.641,721.706 1894.636,1126.775 1894.636,1126.775L38.946,1126.775L38.946,883.383L39.237,883.383L39.237,848.956C39.237,848.956 38.105,735.233 38.946,718.736C112.337,715.965 169.273,758.757 254.582,798.951C478.781,666.911 766.416,550.37 1019.513,760.387C931.72,774.996 848.453,789.617 921.195,848.956C1273.455,735.601 1443.475,545.261 1755.567,737.042L1662.846,769.443L1705.821,839.166C1705.821,839.166 1835.152,699.673 1894.636,720.14Z" style="fill:rgb(165,151,127);"/>
                <clipPath id="_clip1">
                    <path d="M1894.636,720.14C1894.641,721.706 1894.636,1126.775 1894.636,1126.775L38.946,1126.775L38.946,883.383L39.237,883.383L39.237,848.956C39.237,848.956 38.105,735.233 38.946,718.736C112.337,715.965 169.273,758.757 254.582,798.951C478.781,666.911 766.416,550.37 1019.513,760.387C931.72,774.996 848.453,789.617 921.195,848.956C1273.455,735.601 1443.475,545.261 1755.567,737.042L1662.846,769.443L1705.821,839.166C1705.821,839.166 1835.152,699.673 1894.636,720.14Z"/>
                </clipPath>
                <g clip-path="url(#_clip1)">
                    <g transform="matrix(0.973427,0,0,0.973427,0.751845,53.45398)">
                        <path d="M1024,725.94C946.001,729.483 898.169,749.2 902.903,772.599C893.239,833.586 961.789,875.496 1087.8,903.391L1223.06,827.013L1321.092,918.282C1143.739,884.636 932.42,891.871 1237.37,1013.07C1248.421,1017.462 1281.651,1003.96 1225.542,952.811C1282.289,907.385 1515.956,1119.013 1389.343,912.078L1671.031,1098.464C1435.936,1107.541 1341.095,1101.382 1142.4,1098.464L957.504,898.428C1032.964,943.345 1083.659,971.071 1086.884,962.738C1099.875,929.172 897.182,872.575 869.399,772.599C808.161,841.094 876.678,914.126 1024,1009.109L828.448,941.798C795.239,900.05 769.002,856.559 749.03,811.502C772.163,918.983 809.724,1020.819 909.108,1098.464L731.657,1098.464L404.551,972.666L538.074,972.883L487.196,904.632L796.184,1024L624.938,923.246L492.408,778.803L593.915,725.94L724.211,841.346L710.561,772.599C765.952,787.332 751.553,761.012 694.429,709.56C743.239,716.751 792.048,732.292 840.857,772.599L829.689,694.917L969.779,717.284C865.521,625.702 749.279,610.098 601.36,645.281C754.58,588.411 889.312,618.675 1024,725.94ZM975.39,1098.464L919.797,1024L1103.453,1098.464L975.39,1098.464ZM949.127,827.013L1359.871,667.458C1507.533,597.198 1647.358,620.98 1781.783,709.56L1673.823,725.94C1706.591,792.795 1753.072,848.103 1848.792,861.945L1716.014,886.019C1709.397,906.943 1733.385,918.867 1783.024,923.246L1697.4,934.414C1628.537,890.542 1588.39,845.592 1565.863,798.41C1581.702,862.957 1630.676,925.295 1696.159,986.533C1784.069,986.76 1881.823,973.103 1945.584,1007.387L1945.584,1103.228L1709.809,1098.464L1655.209,1048.579L1789.228,1082.084L1498.854,899.073L1408.515,744.802L1467.831,734.875L1557.177,772.599L1557.177,709.56L1646.523,748.277L1640.318,709.56L1732.146,698.64C1688.062,640.877 1435.39,595.854 1268.043,752C1252.198,766.784 1368.557,749.518 1368.557,749.518L1070.737,882.296L949.127,827.013ZM1279.211,810.323L1404.544,753.241L1482.722,898.117L1279.211,810.323ZM1769.374,812.06C1825.864,764.722 1878.868,707.243 1945.584,689.652L1945.584,736.151C1918.941,732.527 1900.676,794.632 1881.056,846.309L1769.374,812.06ZM1945.584,884.703L1945.584,949.713C1871.371,936.169 1827.441,952.908 1773.096,959.233C1839.748,904.842 1902.586,862.756 1945.584,884.703ZM39.237,689.072C157.87,706.924 203.416,755.796 287.42,786.683C345.664,841.856 405.8,893.243 467.353,941.798C408.755,989.169 101.368,744.067 39.237,736.3L39.237,689.072ZM39.237,884.703L145.199,915.428L149.853,862.689L221.206,889.059L342.195,974.372L660.18,1098.464L39.237,1103.228L39.237,1007.367L374.769,1068.992L308.07,1024L39.237,949.664L39.237,884.703ZM282.197,760.686C383.786,709.872 479.172,659.688 580.761,645.281C475.408,680.06 381.923,724.582 293.117,772.599L282.197,760.686ZM317.935,783.519L467.353,734.875L479.751,772.599L429.618,799.806L508.54,861.945L317.935,783.519Z" style="fill:rgb(151,138,116);"/>
                        <clipPath id="_clip2">
                            <path d="M1024,725.94C946.001,729.483 898.169,749.2 902.903,772.599C893.239,833.586 961.789,875.496 1087.8,903.391L1223.06,827.013L1321.092,918.282C1143.739,884.636 932.42,891.871 1237.37,1013.07C1248.421,1017.462 1281.651,1003.96 1225.542,952.811C1282.289,907.385 1515.956,1119.013 1389.343,912.078L1671.031,1098.464C1435.936,1107.541 1341.095,1101.382 1142.4,1098.464L957.504,898.428C1032.964,943.345 1083.659,971.071 1086.884,962.738C1099.875,929.172 897.182,872.575 869.399,772.599C808.161,841.094 876.678,914.126 1024,1009.109L828.448,941.798C795.239,900.05 769.002,856.559 749.03,811.502C772.163,918.983 809.724,1020.819 909.108,1098.464L731.657,1098.464L404.551,972.666L538.074,972.883L487.196,904.632L796.184,1024L624.938,923.246L492.408,778.803L593.915,725.94L724.211,841.346L710.561,772.599C765.952,787.332 751.553,761.012 694.429,709.56C743.239,716.751 792.048,732.292 840.857,772.599L829.689,694.917L969.779,717.284C865.521,625.702 749.279,610.098 601.36,645.281C754.58,588.411 889.312,618.675 1024,725.94ZM975.39,1098.464L919.797,1024L1103.453,1098.464L975.39,1098.464ZM949.127,827.013L1359.871,667.458C1507.533,597.198 1647.358,620.98 1781.783,709.56L1673.823,725.94C1706.591,792.795 1753.072,848.103 1848.792,861.945L1716.014,886.019C1709.397,906.943 1733.385,918.867 1783.024,923.246L1697.4,934.414C1628.537,890.542 1588.39,845.592 1565.863,798.41C1581.702,862.957 1630.676,925.295 1696.159,986.533C1784.069,986.76 1881.823,973.103 1945.584,1007.387L1945.584,1103.228L1709.809,1098.464L1655.209,1048.579L1789.228,1082.084L1498.854,899.073L1408.515,744.802L1467.831,734.875L1557.177,772.599L1557.177,709.56L1646.523,748.277L1640.318,709.56L1732.146,698.64C1688.062,640.877 1435.39,595.854 1268.043,752C1252.198,766.784 1368.557,749.518 1368.557,749.518L1070.737,882.296L949.127,827.013ZM1279.211,810.323L1404.544,753.241L1482.722,898.117L1279.211,810.323ZM1769.374,812.06C1825.864,764.722 1878.868,707.243 1945.584,689.652L1945.584,736.151C1918.941,732.527 1900.676,794.632 1881.056,846.309L1769.374,812.06ZM1945.584,884.703L1945.584,949.713C1871.371,936.169 1827.441,952.908 1773.096,959.233C1839.748,904.842 1902.586,862.756 1945.584,884.703ZM39.237,689.072C157.87,706.924 203.416,755.796 287.42,786.683C345.664,841.856 405.8,893.243 467.353,941.798C408.755,989.169 101.368,744.067 39.237,736.3L39.237,689.072ZM39.237,884.703L145.199,915.428L149.853,862.689L221.206,889.059L342.195,974.372L660.18,1098.464L39.237,1103.228L39.237,1007.367L374.769,1068.992L308.07,1024L39.237,949.664L39.237,884.703ZM282.197,760.686C383.786,709.872 479.172,659.688 580.761,645.281C475.408,680.06 381.923,724.582 293.117,772.599L282.197,760.686ZM317.935,783.519L467.353,734.875L479.751,772.599L429.618,799.806L508.54,861.945L317.935,783.519Z"/>
                        </clipPath>
                        <g clip-path="url(#_clip2)">
                            <g transform="matrix(1,0,0,1,28.186949,29.752114)">
                                <path d="M1024,725.94C946.001,729.483 898.169,749.2 902.903,772.599C893.239,833.586 961.789,875.496 1087.8,903.391L1223.06,827.013L1321.092,918.282C1143.739,884.636 932.42,891.871 1237.37,1013.07C1248.421,1017.462 1281.651,1003.96 1225.542,952.811C1282.289,907.385 1515.956,1119.013 1389.343,912.078L1671.031,1098.464C1435.936,1107.541 1341.095,1101.382 1142.4,1098.464L957.504,898.428C1032.964,943.345 1083.659,971.071 1086.884,962.738C1099.875,929.172 897.182,872.575 869.399,772.599C808.161,841.094 876.678,914.126 1024,1009.109L828.448,941.798C795.239,900.05 769.002,856.559 749.03,811.502C772.163,918.983 809.724,1020.819 909.108,1098.464L731.657,1098.464L404.551,972.666L538.074,972.883L487.196,904.632L796.184,1024L624.938,923.246L492.408,778.803L593.915,725.94L724.211,841.346L710.561,772.599C765.952,787.332 751.553,761.012 694.429,709.56C743.239,716.751 792.048,732.292 840.857,772.599L829.689,694.917L969.779,717.284C865.521,625.702 749.279,610.098 601.36,645.281C754.58,588.411 889.312,618.675 1024,725.94ZM975.39,1098.464L919.797,1024L1103.453,1098.464L975.39,1098.464ZM949.127,827.013L1359.871,667.458C1507.533,597.198 1647.358,620.98 1781.783,709.56L1673.823,725.94C1706.591,792.795 1753.072,848.103 1848.792,861.945L1716.014,886.019C1709.397,906.943 1733.385,918.867 1783.024,923.246L1697.4,934.414C1628.537,890.542 1588.39,845.592 1565.863,798.41C1581.702,862.957 1630.676,925.295 1696.159,986.533C1784.069,986.76 1881.823,973.103 1945.584,1007.387L1945.584,1103.228L1709.809,1098.464L1655.209,1048.579L1789.228,1082.084L1498.854,899.073L1408.515,744.802L1467.831,734.875L1557.177,772.599L1557.177,709.56L1646.523,748.277L1640.318,709.56L1732.146,698.64C1688.062,640.877 1435.39,595.854 1268.043,752C1252.198,766.784 1368.557,749.518 1368.557,749.518L1070.737,882.296L949.127,827.013ZM1279.211,810.323L1404.544,753.241L1482.722,898.117L1279.211,810.323ZM1769.374,812.06C1825.864,764.722 1878.868,707.243 1945.584,689.652L1945.584,736.151C1918.941,732.527 1900.676,794.632 1881.056,846.309L1769.374,812.06ZM1945.584,884.703L1945.584,949.713C1871.371,936.169 1827.441,952.908 1773.096,959.233C1839.748,904.842 1902.586,862.756 1945.584,884.703ZM39.237,689.072C157.87,706.924 203.416,755.796 287.42,786.683C345.664,841.856 405.8,893.243 467.353,941.798C408.755,989.169 101.368,744.067 39.237,736.3L39.237,689.072ZM39.237,884.703L145.199,915.428L149.853,862.689L221.206,889.059L342.195,974.372L660.18,1098.464L39.237,1103.228L39.237,1007.367L374.769,1068.992L308.07,1024L39.237,949.664L39.237,884.703ZM282.197,760.686C383.786,709.872 479.172,659.688 580.761,645.281C475.408,680.06 381.923,724.582 293.117,772.599L282.197,760.686ZM317.935,783.519L467.353,734.875L479.751,772.599L429.618,799.806L508.54,861.945L317.935,783.519Z" style="fill-opacity:0.1;"/>
                            </g>
                        </g>
                    </g>
                </g>
            </g>
        </g>
    </g>
</svg>
